<?xml version="1.0" encoding="UTF-8" standalone="no"?>
<svg
   id="svg40"
   width="500"
   height="500"
   version="1.1"
   viewBox="0 0 500 500.00001"
   sodipodi:docname="libera-white.svg"
   inkscape:version="1.1 (c68e22c387, 2021-05-23)"
   xmlns:inkscape="http://www.inkscape.org/namespaces/inkscape"
   xmlns:sodipodi="http://sodipodi.sourceforge.net/DTD/sodipodi-0.dtd"
   xmlns="http://www.w3.org/2000/svg"
   xmlns:svg="http://www.w3.org/2000/svg"
   xmlns:rdf="http://www.w3.org/1999/02/22-rdf-syntax-ns#"
   xmlns:cc="http://creativecommons.org/ns#"
   xmlns:dc="http://purl.org/dc/elements/1.1/">
  <defs
     id="defs3407" />
  <sodipodi:namedview
     id="namedview3405"
     pagecolor="#505050"
     bordercolor="#ffffff"
     borderopacity="1"
     inkscape:pageshadow="0"
     inkscape:pageopacity="0"
     inkscape:pagecheckerboard="1"
     showgrid="false"
     fit-margin-top="0"
     fit-margin-left="0"
     fit-margin-right="0"
     fit-margin-bottom="0"
     scale-x="1"
     inkscape:zoom="1.836871"
     inkscape:cx="279.55148"
     inkscape:cy="325.82582"
     inkscape:window-width="2519"
     inkscape:window-height="1046"
     inkscape:window-x="1961"
     inkscape:window-y="1"
     inkscape:window-maximized="1"
     inkscape:current-layer="svg40" />
  <metadata
     id="metadata46">
    <rdf:RDF>
      <cc:Work
         rdf:about="">
        <dc:format>image/svg+xml</dc:format>
        <dc:type
           rdf:resource="http://purl.org/dc/dcmitype/StillImage" />
        <dc:title>Libera Chat logo</dc:title>
      </cc:Work>
    </rdf:RDF>
  </metadata>
  <title
     id="title2">Libera Chat logo</title>
  <g
     id="g1102"
     transform="translate(-8.0269642e-5,57.48494)">
    <path
       id="path28"
       d="m 201.58509,0.26545317 -0.0784,0.0126607 c -0.46085,0.0903132 -0.92128,0.18273644 -1.38171,0.27558173 -0.46001,0.0924233 -0.92001,0.18737871 -1.3796,0.28233413 -0.46001,0.0953774 -0.92001,0.19286507 -1.3796,0.29077467 -0.45916,0.097487 -0.91832,0.1975073 -1.37706,0.297527 -0.45874,0.099598 -0.91706,0.2017275 -1.37495,0.3038573 -0.4579,0.1025519 -0.91537,0.2076359 -1.37285,0.3127199 -0.45789,0.105506 -0.91537,0.2135442 -1.37242,0.3215823 -0.45705,0.1076161 -0.91368,0.2173425 -1.37031,0.3279128 -0.45621,0.1105703 -0.91242,0.2232507 -1.36821,0.3367752 -0.45578,0.1126805 -0.91072,0.227471 -1.36566,0.3431056 -0.45494,0.1156345 -0.90946,0.2333793 -1.36356,0.3519681 -0.45411,0.1177447 -0.90778,0.2375996 -1.36145,0.3582985 -0.4541,0.1202768 -0.90777,0.2418197 -1.36103,0.3646288 -0.45241,0.123653 -0.90482,0.2494162 -1.35681,0.3756014 -0.45241,0.1253412 -0.90482,0.2519484 -1.35681,0.3798217 -0.45198,0.1287173 -0.90313,0.2578567 -1.35427,0.3886842 -0.4503,0.1308275 -0.90018,0.2637651 -1.35005,0.3971246 -0.45031,0.1337817 -0.90019,0.2679853 -1.34964,0.4038771 -0.44903,0.1354698 -0.89722,0.2722056 -1.34541,0.4102074 -0.44903,0.1384239 -0.89723,0.2781139 -1.34541,0.41907 -0.44735,0.140534 -0.89428,0.2823341 -1.34077,0.4254003 -0.44736,0.1434881 -0.89428,0.2882424 -1.34077,0.4346848 -0.44567,0.1460203 -0.89132,0.2928847 -1.33614,0.4410152 -0.44523,0.1489745 -0.88963,0.298793 -1.33401,0.4498777 -0.44439,0.1506625 -0.88836,0.3030133 -1.33191,0.456208 -0.44355,0.1527727 -0.88667,0.3072336 -1.32938,0.4629606 -0.4427,0.1561481 -0.8854,0.3131411 -1.32726,0.4714011 -0.44144,0.158259 -0.88245,0.317361 -1.32305,0.478153 -0.44144,0.161213 -0.88245,0.323271 -1.32262,0.486594 -0.43975,0.163323 -0.8795,0.327912 -1.31841,0.493346 -0.43848,0.165433 -0.87654,0.332133 -1.31375,0.499676 -0.43849,0.168388 -0.87613,0.338042 -1.31376,0.508539 -0.4368,0.17092 -0.8736,0.34184 -1.30954,0.51487 -0.43638,0.17303 -0.87191,0.34606 -1.30702,0.521621 -0.27013,0.109305 -0.54019,0.219875 -0.80986,0.330446 23.97519,79.382732 47.94193,158.807671 71.91291,238.190411 l 11.06124,-12.94349 z M 297.17355,0 l -26.17394,200.67246 21.18561,-24.78969 4.20715,6.74394 46.97129,-169.189463 c -0.38447,-0.153617 -0.76935,-0.305124 -1.15465,-0.456629 -0.43638,-0.17092 -0.87276,-0.340996 -1.30997,-0.509384 -0.43764,-0.16881 -0.8757,-0.336354 -1.31418,-0.502631 -0.43891,-0.166699 -0.87866,-0.332133 -1.31841,-0.4963 -0.4389,-0.163746 -0.87865,-0.326224 -1.3184,-0.487438 -0.4406,-0.161635 -0.88161,-0.321582 -1.32263,-0.480685 -0.44185,-0.159526 -0.88414,-0.317363 -1.32684,-0.474355 -0.44186,-0.1561492 -0.88414,-0.3114541 -1.32684,-0.465493 -0.44312,-0.1540387 -0.8871,-0.3072335 -1.33106,-0.4587401 -0.44398,-0.1510847 -0.88837,-0.3013253 -1.33318,-0.4498778 -0.44481,-0.1493965 -0.88962,-0.2966829 -1.33529,-0.4435472 -0.44607,-0.1468645 -0.89258,-0.2924628 -1.3395,-0.436795 -0.44607,-0.1439102 -0.89258,-0.2865544 -1.3395,-0.4283545 -0.44735,-0.1422221 -0.89554,-0.2823341 -1.34373,-0.421602 -0.44819,-0.138846 -0.8968,-0.2764259 -1.34583,-0.4127396 -0.44904,-0.1363138 -0.89849,-0.2722055 -1.34795,-0.4059871 -0.44987,-0.1342037 -0.89976,-0.2679854 -1.35005,-0.3996569 -0.4503,-0.1312495 -0.90102,-0.262077 -1.35217,-0.3907944 -0.45114,-0.1291393 -0.90271,-0.2578566 -1.35427,-0.3844638 -0.45242,-0.1261853 -0.90525,-0.2519484 -1.3585,-0.3756015 -0.45241,-0.1240751 -0.90524,-0.2477282 -1.3585,-0.3692712 -0.45325,-0.1211208 -0.90693,-0.2418197 -1.3606,-0.3604085 -0.4541,-0.1190108 -0.90819,-0.2371776 -1.36272,-0.3536562 -0.45536,-0.1160566 -0.91115,-0.2316912 -1.36693,-0.3447936 -0.45537,-0.1139466 -0.91115,-0.227049 -1.36694,-0.3380414 -0.4562,-0.1118364 -0.91241,-0.2228287 -1.36904,-0.331711 -0.45664,-0.1080381 -0.91369,-0.2156542 -1.37116,-0.3207383 -0.45663,-0.106772 -0.91368,-0.211856 -1.37116,-0.316096 -0.45832,-0.103818 -0.91663,-0.2067918 -1.37537,-0.3076555 -0.45874,-0.1008638 -0.91791,-0.2004615 -1.37749,-0.2987931 -0.45874,-0.098754 -0.9179,-0.1966633 -1.37749,-0.29246273 -0.45958,-0.0966435 -0.91917,-0.19159895 -1.37959,-0.28571032 -0.46043,-0.0936893 -0.92086,-0.18569061 -1.38171,-0.27684781 -0.46001,-0.0907351 -0.92086,-0.18020429 -1.38129,-0.26840733 z M 71.770473,69.507368 c -0.271615,0.272628 -0.542723,0.545678 -0.812818,0.819571 -0.327955,0.333399 -0.654982,0.667642 -0.981207,1.00273 -0.325759,0.334243 -0.65076,0.668908 -0.974453,1.004838 -0.324284,0.336776 -0.647807,0.674818 -0.970234,1.013702 -0.322089,0.338464 -0.643164,0.677772 -0.96348,1.017923 -0.319937,0.339729 -0.638945,0.680303 -0.956729,1.022142 -0.318417,0.342177 -0.635991,0.684946 -0.952508,1.028473 -0.316266,0.343401 -0.631349,0.687899 -0.945757,1.032693 -0.314787,0.345596 -0.628393,0.692119 -0.941536,1.039445 -0.311875,0.34703 -0.622907,0.695074 -0.932672,1.043666 -0.310399,0.348466 -0.619954,0.697605 -0.928031,1.047885 -0.308204,0.350619 -0.615312,0.702248 -0.921701,1.054639 -0.306727,0.352095 -0.612357,0.705202 -0.917059,1.058858 -0.304532,0.354247 -0.608136,0.709423 -0.910727,1.065189 -0.302296,0.355682 -0.603495,0.712377 -0.903976,1.069409 -0.300144,0.357117 -0.599274,0.714909 -0.897223,1.07363 -0.298625,0.359269 -0.59632,0.719551 -0.893004,1.080382 -0.295754,0.360704 -0.590411,0.722083 -0.88414,1.084601 -0.294319,0.36214 -0.587457,0.725038 -0.87992,1.088822 -0.292083,0.363574 -0.583237,0.727992 -0.873168,1.093043 -0.289888,0.365726 -0.578595,0.732212 -0.866416,1.099795 -0.288411,0.367203 -0.57564,0.735165 -0.862195,1.104015 -0.285499,0.368596 -0.570154,0.73812 -0.853333,1.108235 -0.284021,0.370115 -0.5672,0.741074 -0.849112,1.112456 -0.28111,0.372266 -0.561292,0.745294 -0.84025,1.119208 -0.279633,0.37366 -0.558337,0.748249 -0.835608,1.123427 -0.277438,0.375138 -0.553695,0.751209 -0.829277,1.127654 -0.275286,0.376533 -0.549475,0.753731 -0.822525,1.131865 -0.273049,0.378008 -0.545255,0.75669 -0.815773,1.136096 -0.270854,0.37944 -0.540613,0.75964 -0.809442,1.14073 -0.26866,0.38087 -0.536392,0.7626 -0.802689,1.14495 -0.266467,0.38303 -0.531751,0.76682 -0.79636,1.15128 -0.264314,0.38375 -0.52753,0.76809 -0.789607,1.15339 -0.262077,0.3859 -0.522888,0.77272 -0.782855,1.15972 -0.259925,0.38662 -0.518668,0.774 -0.776524,1.16184 l -0.04731,0.0726 137.284436,150.02956 10.39023,-13.51743 0.47984,0.20646 z M 425.55328,66.73678 324.01427,226.89493 335.5693,245.41757 458.46271,106.23402 c -0.22536,-0.33724 -0.45156,-0.67397 -0.67861,-1.01033 -0.26123,-0.38581 -0.52373,-0.77103 -0.7875,-1.15508 -0.26334,-0.38505 -0.52795,-0.76934 -0.79383,-1.15297 -0.26545,-0.38286 -0.53259,-0.76512 -0.80015,-1.14622 -0.26756,-0.38137 -0.53682,-0.76216 -0.80692,-1.14199 -0.27009,-0.38062 -0.54103,-0.760487 -0.81323,-1.139461 -0.27221,-0.378477 -0.54526,-0.756269 -0.81958,-1.133135 -0.27431,-0.376953 -0.54989,-0.753322 -0.82632,-1.1285 -0.27642,-0.375476 -0.55412,-0.75036 -0.83265,-1.124273 -0.27854,-0.37404 -0.55834,-0.747405 -0.83941,-1.11963 -0.28106,-0.372521 -0.56298,-0.74445 -0.84573,-1.115409 -0.28318,-0.370369 -0.56721,-0.739809 -0.85207,-1.108658 -0.28529,-0.369609 -0.57142,-0.738542 -0.85882,-1.106547 -0.28655,-0.367414 -0.57437,-0.7339 -0.86304,-1.099795 -0.28951,-0.365895 -0.58028,-0.730946 -0.8719,-1.095153 -0.2912,-0.36446 -0.58281,-0.727991 -0.87612,-1.090932 -0.29331,-0.36294 -0.58746,-0.725037 -0.88245,-1.08629 -0.29626,-0.361464 -0.59295,-0.722083 -0.89132,-1.082069 -0.29753,-0.35927 -0.5959,-0.717863 -0.89554,-1.075318 -0.29921,-0.357792 -0.59885,-0.714909 -0.89975,-1.071097 -0.30175,-0.356357 -0.60476,-0.711955 -0.9082,-1.066455 -0.30427,-0.354121 -0.60898,-0.707312 -0.91495,-1.059702 -0.30554,-0.352686 -0.61193,-0.704359 -0.91916,-1.055483 -0.30765,-0.351209 -0.61616,-0.701404 -0.92593,-1.050839 -0.30976,-0.349015 -0.62037,-0.697185 -0.93224,-1.044511 -0.31104,-0.348254 -0.62333,-0.695495 -0.93648,-1.041977 -0.31314,-0.3453 -0.62755,-0.689587 -0.9428,-1.033537 -0.31525,-0.344583 -0.63219,-0.688321 -0.94955,-1.031005 -0.31778,-0.34243 -0.63642,-0.683678 -0.95589,-1.024674 -0.31989,-0.340152 -0.64063,-0.679459 -0.96221,-1.017922 -0.32117,-0.338464 -0.64359,-0.676505 -0.96686,-1.01328 -0.32285,-0.336775 -0.64654,-0.673551 -0.97107,-1.00906 -0.32538,-0.334665 -0.65204,-0.66933 -0.97953,-1.002307 -0.32707,-0.333399 -0.65498,-0.665954 -0.98416,-0.998087 -0.32917,-0.331289 -0.65919,-0.661734 -0.99048,-0.991334 -0.33087,-0.329602 -0.66216,-0.658781 -0.99472,-0.986693 -0.31061,-0.305967 -0.62248,-0.611091 -0.9352,-0.915371 z M 4.5842369,195.74955 c -0.089174,0.45156 -0.1770813,0.90314 -0.2636807,1.35512 -0.087022,0.45663 -0.1727344,0.91326 -0.2571815,1.37031 -0.084067,0.45705 -0.1668683,0.91453 -0.2482767,1.37242 -0.081957,0.45705 -0.1625637,0.91453 -0.2419464,1.372 -0.079003,0.4579 -0.1566554,0.9158 -0.233084,1.37412 -0.076851,0.45874 -0.1524773,0.91748 -0.2267114,1.37622 -0.073896,0.45874 -0.1465689,0.91748 -0.2178488,1.37622 -0.070942,0.45916 -0.1406184,0.91875 -0.2089441,1.37833 -0.068832,0.46001 -0.1363982,0.92001 -0.2026138,1.38044 -0.065878,0.46 -0.1304898,0.92001 -0.1937512,1.38043 -0.063768,0.46001 -0.1262696,0.92002 -0.187421,1.38045 -0.060813,0.46043 -0.1203612,0.92128 -0.1785162,1.38255 -0.057859,0.46127 -0.1144107,0.92297 -0.1696536,1.38466 -0.055749,0.46128 -0.1101905,0.92297 -0.1633233,1.38424 -0.052795,0.46128 -0.1042822,0.92255 -0.1544608,1.38424 -0.049799,0.46211 -0.098374,0.92423 -0.1455562,1.38635 -0.047688,0.46211 -0.094153,0.92423 -0.1392257,1.38635 -0.045452,0.46254 -0.089638,0.9255 -0.1324733,1.38846 -0.0417803,0.46254 -0.0826324,0.92549 -0.12192282,1.38845 -0.0396703,0.46254 -0.0780745,0.9255 -0.11517038,1.38804 -0.0375601,0.46339 -0.0738542,0.92677 -0.10879781,1.39015 -0.034184,0.46339 -0.0665532,0.92676 -0.0978252,1.39015 -0.0324959,0.46338 -0.0634303,0.92676 -0.0931829,1.39015 -0.0286977,0.4638 -0.0561292,0.92803 -0.0822103,1.39225 -0.0265875,0.4638 -0.051909,0.92803 -0.07588,1.39226 -0.0236334,0.46381 -0.0460007,0.92803 -0.0670175,1.39226 -0.0215232,0.4638 -0.0417804,0.92803 -0.0606871,1.39183 -0.018569,0.46381 -0.0358721,0.92804 -0.0518246,1.39184 -0.0156148,0.46465 -0.0299637,0.92929 -0.0429198,1.39394 -0.01350477,0.46381 -0.02574347,0.92761 -0.03671609,1.39184 -0.01055061,0.46465 -0.01983514,0.92929 -0.02785359,1.39394 -0.0075964,0.46465 -0.01308275,0.9293 -0.01814704,1.39353 -0.0059083,0.46465 -0.0105506,0.92929 -0.01392679,1.39352 C 0.00229159,241.90126 8.4404866e-4,242.36549 0,242.83014 c 2.785359e-4,0.33411 0.00121965,0.66848 0.00288242,1.0023 L 146.27644,298.86439 157.66686,284.0429 Z m 491.6580731,4.28355 -139.35236,79.59374 10.93465,17.52244 132.09354,-48.11074 0.0169,-0.71661 c 0.0127,-0.46379 0.0211,-0.9276 0.0296,-1.39141 0.009,-0.46465 0.0169,-0.9293 0.0169,-1.39352 0.009,-0.46465 0.0127,-0.92929 0.0127,-1.39352 0.003,-0.46465 0.009,-0.92888 0.004,-1.39353 l -0.003,-1.39352 c -0.003,-0.46507 -0.009,-0.93057 -0.0127,-1.39564 -0.004,-0.29553 -0.009,-0.59125 -0.0127,-0.88667 -0.009,-0.46423 -0.0127,-0.92887 -0.0253,-1.3931 -0.009,-0.46423 -0.0169,-0.92888 -0.0338,-1.3931 l -0.0422,-1.3931 c -0.0127,-0.46423 -0.0296,-0.92846 -0.0494,-1.39311 l -0.0536,-1.39267 c -0.0211,-0.46338 -0.0443,-0.92719 -0.0658,-1.39057 -0.0211,-0.46423 -0.0485,-0.92846 -0.0722,-1.39268 l -0.0789,-1.39057 c -0.0295,-0.46423 -0.0587,-0.92846 -0.0898,-1.39226 -0.0296,-0.46338 -0.0616,-0.92676 -0.0941,-1.39014 -0.0338,-0.46339 -0.0687,-0.92677 -0.10508,-1.39016 -0.0338,-0.46253 -0.073,-0.9255 -0.11141,-1.38804 -0.038,-0.46337 -0.0789,-0.92675 -0.12028,-1.38971 -0.038,-0.46254 -0.0836,-0.92508 -0.12703,-1.38762 -0.0431,-0.46212 -0.0903,-0.92382 -0.13758,-1.38551 -0.0473,-0.46254 -0.0937,-0.92507 -0.14222,-1.38761 -0.0494,-0.46169 -0.10086,-0.92339 -0.1532,-1.38508 -0.0515,-0.4617 -0.10509,-0.92339 -0.15952,-1.38509 -0.054,-0.46127 -0.10973,-0.92212 -0.16628,-1.38297 -0.0565,-0.46128 -0.11521,-0.92213 -0.17471,-1.38256 -0.06,-0.46085 -0.12113,-0.92211 -0.18359,-1.38254 -0.0629,-0.46043 -0.12703,-0.92043 -0.19244,-1.38044 -0.065,-0.46043 -0.13125,-0.92044 -0.19878,-1.38044 -0.0671,-0.45959 -0.13589,-0.91875 -0.20552,-1.37791 -0.0705,-0.45959 -0.14306,-0.91875 -0.21608,-1.37791 -0.0722,-0.45874 -0.14602,-0.91748 -0.22071,-1.3758 -0.076,-0.45874 -0.15278,-0.91706 -0.23169,-1.37537 -0.078,-0.4579 -0.15742,-0.9158 -0.23803,-1.37327 l -0.0422,-0.22667 z M 20.199128,340.1451 c 0.161763,0.37349 0.324453,0.74655 0.488282,1.1192 0.187506,0.42667 0.376277,0.85249 0.566356,1.27789 0.188983,0.42498 0.379189,0.84954 0.570577,1.27325 0.191895,0.42371 0.384928,0.84658 0.579017,1.26902 0.194047,0.42371 0.389275,0.84659 0.585769,1.26904 0.196917,0.4213 0.3951,0.84193 0.59421,1.26226 0.199111,0.42127 0.399446,0.84195 0.600963,1.26228 0.201264,0.41907 0.403751,0.83772 0.607293,1.25552 0.204175,0.41832 0.409532,0.83603 0.616155,1.25341 0.206327,0.41755 0.413879,0.83477 0.622485,1.25088 0.208523,0.41611 0.418227,0.83181 0.629238,1.24666 0.210675,0.41536 0.422447,0.83013 0.635569,1.24413 0.213585,0.41388 0.428354,0.82717 0.64443,1.2399 0.215781,0.41241 0.432575,0.82422 0.650762,1.23527 0.217975,0.41165 0.437216,0.82253 0.657513,1.23315 0.220085,0.41022 0.441438,0.81957 0.663844,1.22852 0.22304,0.40873 0.447345,0.81662 0.672707,1.22429 0.225149,0.40792 0.451565,0.81535 0.679036,1.22218 0.227344,0.4065 0.455786,0.81239 0.685367,1.21754 0.229497,0.40502 0.460007,0.80944 0.69212,1.2129 0.232409,0.40354 0.465915,0.80648 0.70056,1.20867 0.233843,0.40278 0.468868,0.80481 0.70478,1.20657 0.236755,0.4013 0.474778,0.80185 0.713643,1.20193 0.238908,0.39986 0.478997,0.79888 0.719973,1.19728 0.241102,0.39906 0.483218,0.79763 0.726726,1.19517 0.243255,0.39687 0.487437,0.79299 0.733055,1.18843 0.246124,0.3961 0.493347,0.7917 0.741919,1.1863 0.247602,0.39463 0.4963,0.78876 0.746139,1.18209 0.250513,0.39316 0.502207,0.7858 0.755,1.17744 0.251907,0.39168 0.505163,0.78287 0.759222,1.17324 0.254818,0.3902 0.510649,0.7799 0.767662,1.16858 0.257013,0.38877 0.515291,0.77694 0.774414,1.16395 0.259165,0.38724 0.519511,0.77398 0.780745,1.15971 0.261359,0.38577 0.523731,0.77104 0.787497,1.15508 0.263469,0.38506 0.527952,0.76936 0.793827,1.15297 0.265664,0.38282 0.532594,0.76514 0.800158,1.14622 0.267858,0.38139 0.536814,0.76218 0.80691,1.142 l 0.05959,0.0821 42.962053,-9.52931 0.853332,-1.12131 -1.020454,0.007 26.667698,-34.70304 z m 375.306032,1.32769 20.69606,34.36964 38.59832,8.71057 c 0.0958,-0.135 0.19202,-0.27005 0.28782,-0.40522 0.26883,-0.38156 0.5364,-0.76387 0.8027,-1.14706 0.26672,-0.38232 0.53175,-0.76556 0.79636,-1.14917 0.26502,-0.38371 0.52879,-0.76809 0.79171,-1.1534 0.26207,-0.38594 0.52288,-0.77273 0.78286,-1.15972 0.25997,-0.38733 0.51867,-0.77526 0.77652,-1.16436 0.25786,-0.3881 0.51445,-0.77696 0.76977,-1.16648 0.25575,-0.3902 0.50981,-0.78117 0.76302,-1.17281 0.25363,-0.39088 0.50559,-0.78243 0.75669,-1.17491 0.25152,-0.39308 0.50095,-0.78707 0.74994,-1.18124 0.24857,-0.3938 0.49672,-0.78835 0.7436,-1.18336 0.24604,-0.39519 0.49082,-0.7913 0.73475,-1.18758 0.24435,-0.39742 0.48786,-0.79552 0.7301,-1.19432 0.24224,-0.3981 0.48364,-0.79679 0.72377,-1.19644 0.23928,-0.39953 0.47773,-0.79974 0.71491,-1.20066 0.23802,-0.40101 0.47478,-0.80269 0.71069,-1.20488 0.23506,-0.40172 0.46887,-0.80396 0.70183,-1.20699 0.23295,-0.40388 0.46465,-0.80817 0.69507,-1.21332 0.23043,-0.40455 0.46001,-0.80986 0.68874,-1.21543 0.22832,-0.40602 0.45579,-0.81282 0.68199,-1.22007 0.22536,-0.40742 0.44988,-0.81535 0.67313,-1.22429 0.2241,-0.4089 0.44693,-0.8183 0.66891,-1.22852 0.22114,-0.40957 0.44144,-0.81957 0.66005,-1.23061 0.21902,-0.41102 0.43679,-0.82253 0.65329,-1.23485 0.21691,-0.41249 0.43257,-0.82547 0.64696,-1.23906 0.21397,-0.41316 0.42666,-0.82675 0.6381,-1.24117 0.21228,-0.4146 0.42371,-0.82971 0.63388,-1.2454 0.20932,-0.41603 0.41781,-0.83265 0.62502,-1.25003 0.20679,-0.41675 0.4119,-0.83393 0.61616,-1.25215 0.20509,-0.41818 0.40936,-0.83687 0.61193,-1.25636 0.20215,-0.41962 0.40346,-0.83983 0.60308,-1.26059 0.20003,-0.42029 0.39838,-0.84109 0.59631,-1.2627 0.19793,-0.42176 0.39417,-0.84405 0.58999,-1.26691 0.19582,-0.42245 0.38996,-0.84532 0.58324,-1.26903 0.19287,-0.42329 0.38404,-0.847 0.57437,-1.27113 l 0.009,-0.0131 z"
       fill="#5555ff"
       style="fill:#ffffff;stroke-width:1;paint-order:markers fill stroke" />
    <g
       id="g36"
       transform="matrix(4.220241,0,0,4.220241,-136.96602,497.40982)"
       fill="#ff55dd"
       style="fill:#ffffff;stroke-width:0.236954">
      <path
         id="path30"
         d="m 102.4,-77.66 -17.25,19.7 -7.897,-3.488 -25.66,32.99 2.235,0.0024 c 0,0 15.98,-20.43 24,-30.71 l 7.819,3.455 16.48,-18.83 c 9.127,15.53 18.97,30.48 27.93,46.1 l 2.227,-0.01328 z"
         color="#000000"
         style="fill:#ffffff;stroke-width:0.0548309" />
      <path
         id="path32"
         d="m 102.1,-71.77 -16.02,18.37 -7.826,-3.25 -22.13,28.18 2.445,0.01543 20.28,-25.94 7.76,3.22 15.22,-17.45 23.94,40.24 2.37,-0.04577 z"
         color="#000000"
         style="fill:#ffffff;stroke-width:0.0548309" />
      <path
         id="path34"
         d="m 60.94,-28.49 18.48,-23.56 7.918,3.219 14.38,-16.52 21.59,36.89 z"
         stroke-width="0"
         style="fill:#ffffff" />
    </g>
  </g>
</svg>
