<?xml version="1.0" encoding="UTF-8" standalone="no"?>
<svg
   inkscape:export-ydpi="96"
   inkscape:export-xdpi="96"
   inkscape:export-filename="/home/trevor/longterm/lunar/lunar-website/logo-full-01b.png"
   width="1500"
   height="560"
   viewBox="0 0 1500 560"
   version="1.1"
   id="svg8"
   inkscape:version="1.1 (c68e22c387, 2021-05-23)"
   sodipodi:docname="lunar_logo-full-01c.svg"
   xmlns:inkscape="http://www.inkscape.org/namespaces/inkscape"
   xmlns:sodipodi="http://sodipodi.sourceforge.net/DTD/sodipodi-0.dtd"
   xmlns="http://www.w3.org/2000/svg"
   xmlns:svg="http://www.w3.org/2000/svg"
   xmlns:rdf="http://www.w3.org/1999/02/22-rdf-syntax-ns#"
   xmlns:cc="http://creativecommons.org/ns#"
   xmlns:dc="http://purl.org/dc/elements/1.1/">
  <defs
     id="defs2" />
  <sodipodi:namedview
     fit-margin-bottom="0"
     fit-margin-right="0"
     fit-margin-left="0"
     fit-margin-top="0"
     id="base"
     pagecolor="#ffffff"
     bordercolor="#666666"
     borderopacity="1.0"
     inkscape:pageopacity="0.0"
     inkscape:pageshadow="2"
     inkscape:zoom="57.256899"
     inkscape:cx="1372.6294"
     inkscape:cy="370.37458"
     inkscape:document-units="px"
     inkscape:current-layer="layer1"
     inkscape:document-rotation="0"
     showgrid="false"
     units="px"
     showborder="true"
     inkscape:window-width="2519"
     inkscape:window-height="1046"
     inkscape:window-x="1961"
     inkscape:window-y="1"
     inkscape:window-maximized="1"
     inkscape:pagecheckerboard="1"
     width="1500px"
     inkscape:showpageshadow="false"
     showguides="true"
     inkscape:guide-bbox="true"
     inkscape:snap-bbox="true"
     inkscape:bbox-paths="true"
     inkscape:bbox-nodes="true"
     inkscape:snap-bbox-edge-midpoints="true">
    <sodipodi:guide
       position="1380.5782,212.68817"
       orientation="1,0"
       id="guide406446" />
  </sodipodi:namedview>
  <metadata
     id="metadata5">
    <rdf:RDF>
      <cc:Work
         rdf:about="">
        <dc:format>image/svg+xml</dc:format>
        <dc:type
           rdf:resource="http://purl.org/dc/dcmitype/StillImage" />
      </cc:Work>
    </rdf:RDF>
  </metadata>
  <g
     transform="translate(1040.3544,690.01489)"
     inkscape:label="Layer 1"
     inkscape:groupmode="layer"
     id="layer1">
    <g
       id="g38728"
       transform="matrix(0.84869357,0,0,0.84869357,-157.16955,-89.573776)"
       style="fill:#6a98c8;fill-opacity:1">
      <path
         d="M 43.791011,-173.68075 V -277.03063 H 82.62108 v 73.82134 h 42.19962 v 29.52854 z"
         id="path295031"
         style="font-weight:900;font-size:160.468px;line-height:1.25;font-family:kanit;-inkscape-font-specification:'kanit Heavy';text-align:center;letter-spacing:16.7155px;word-spacing:0px;text-anchor:middle;fill:#698aaf;fill-opacity:1;paint-order:markers fill stroke" />
      <path
         d="m 147.15059,-173.68075 v -103.34988 h 38.83007 v 103.34988 z"
         id="path295033"
         style="font-weight:900;font-size:160.468px;line-height:1.25;font-family:kanit;-inkscape-font-specification:'kanit Heavy';text-align:center;letter-spacing:16.7155px;word-spacing:0px;text-anchor:middle;fill:#698aaf;fill-opacity:1;paint-order:markers fill stroke" />
      <path
         d="m 213.92637,-173.68075 v -103.34988 h 32.57232 l 28.88187,40.44126 v -40.44126 h 38.83007 v 103.34988 H 281.47785 L 252.75644,-214.122 v 40.44125 z"
         id="path295035"
         style="font-weight:900;font-size:160.468px;line-height:1.25;font-family:kanit;-inkscape-font-specification:'kanit Heavy';text-align:center;letter-spacing:16.7155px;word-spacing:0px;text-anchor:middle;fill:#698aaf;fill-opacity:1;paint-order:markers fill stroke" />
      <path
         d="m 393.02074,-172.07594 q -14.60139,0 -26.31459,-4.81444 -11.7132,-4.81443 -18.61276,-14.28282 -6.7391,-9.46839 -6.7391,-23.26977 v -62.58766 h 38.83007 v 57.61274 q 0,14.44331 12.83638,14.44331 12.83639,0 12.83639,-14.44331 v -57.61274 h 38.83006 v 62.58766 q 0,13.80138 -6.89955,23.26977 -6.73911,9.46839 -18.45231,14.28282 -11.71319,4.81444 -26.31459,4.81444 z"
         id="path295037"
         style="font-weight:900;font-size:160.468px;line-height:1.25;font-family:kanit;-inkscape-font-specification:'kanit Heavy';text-align:center;letter-spacing:16.7155px;word-spacing:0px;text-anchor:middle;fill:#698aaf;fill-opacity:1;paint-order:markers fill stroke" />
      <path
         d="m 463.00537,-173.68075 39.15097,-52.79831 -37.22552,-50.55157 h 46.37144 l 14.12003,19.09726 14.28048,-19.09726 h 46.37145 l -37.22552,50.55157 39.15098,52.79831 h -47.01326 l -15.56413,-21.02304 -15.40366,21.02304 z"
         id="path295039"
         style="font-weight:900;font-size:160.468px;line-height:1.25;font-family:kanit;-inkscape-font-specification:'kanit Heavy';text-align:center;letter-spacing:16.7155px;word-spacing:0px;text-anchor:middle;fill:#698aaf;fill-opacity:1;paint-order:markers fill stroke" />
    </g>
    <g
       id="g38721"
       transform="matrix(0.84869357,0,0,0.84869357,-157.4123,-89.213421)"
       style="fill:#f4f4f4;fill-opacity:1">
      <path
         d="m -294.02389,-298.68217 v -161.12656 h 60.53762 v 115.0904 h 65.79089 v 46.03616 z"
         id="path295042"
         style="font-weight:900;font-size:250.176px;line-height:1.25;font-family:kanit;-inkscape-font-specification:'kanit Heavy';text-align:center;letter-spacing:13.03px;word-spacing:0px;text-anchor:middle;fill:#f4f4f4;fill-opacity:1;paint-order:markers fill stroke" />
      <path
         d="m -66.611985,-296.1802 q -22.764147,0 -41.025495,-7.5059 -18.26134,-7.50589 -29.01803,-22.26749 -10.50653,-14.7616 -10.50653,-36.2785 v -97.57664 h 60.537619 v 89.82055 q 0,22.51769 20.012436,22.51769 20.012437,0 20.012437,-22.51769 v -89.82055 h 60.537621 v 97.57664 q 0,21.5169 -10.7566853,36.2785 -10.5065292,14.7616 -28.7678777,22.26749 -18.261348,7.5059 -41.025495,7.5059 z"
         id="path295044"
         style="font-weight:900;font-size:250.176px;line-height:1.25;font-family:kanit;-inkscape-font-specification:'kanit Heavy';text-align:center;letter-spacing:13.03px;word-spacing:0px;text-anchor:middle;fill:#f4f4f4;fill-opacity:1;paint-order:markers fill stroke" />
      <path
         d="m 43.226741,-298.68217 v -161.12656 h 50.781558 l 45.027991,63.04952 v -63.04952 h 60.53762 v 161.12656 h -51.03172 l -44.77783,-63.04952 v 63.04952 z"
         id="path295046"
         style="font-weight:900;font-size:250.176px;line-height:1.25;font-family:kanit;-inkscape-font-specification:'kanit Heavy';text-align:center;letter-spacing:13.03px;word-spacing:0px;text-anchor:middle;fill:#f4f4f4;fill-opacity:1;paint-order:markers fill stroke" />
      <path
         d="m 225.11051,-298.68217 62.03856,-161.12656 h 62.78901 l 62.03856,161.12656 h -63.03918 l -11.50715,-30.02358 h -37.77347 l -11.50716,30.02358 z m 81.05037,-71.30601 h 24.51523 l -12.25761,-30.77418 z"
         id="path295048"
         style="font-weight:900;font-size:250.176px;line-height:1.25;font-family:kanit;-inkscape-font-specification:'kanit Heavy';text-align:center;letter-spacing:13.03px;word-spacing:0px;text-anchor:middle;fill:#f4f4f4;fill-opacity:1;paint-order:markers fill stroke" />
      <path
         d="m 437.51297,-298.68217 v -161.12656 h 90.55628 q 20.7629,0 34.27129,8.00628 13.5084,7.75609 20.01244,21.5169 6.75421,13.51062 6.75421,30.77418 0,16.26277 -8.5053,28.5224 -8.25513,12.25963 -20.01243,20.26592 2.75171,1.75138 4.25264,4.00314 1.50094,2.00158 2.50155,4.25335 l 19.01182,43.78439 H 523.3163 l -15.7598,-35.7781 q -1.25078,-3.00236 -2.7517,-4.00315 -1.50094,-1.25098 -4.25265,-1.25098 h -2.50156 v 41.03223 z m 60.53762,-88.31938 h 14.75918 q 14.75917,0 14.75917,-12.50982 0,-7.00551 -3.50217,-10.00786 -3.25203,-3.00236 -10.25638,-3.00236 h -15.7598 z"
         id="path295050"
         style="font-weight:900;font-size:250.176px;line-height:1.25;font-family:kanit;-inkscape-font-specification:'kanit Heavy';text-align:center;letter-spacing:13.03px;word-spacing:0px;text-anchor:middle;fill:#f4f4f4;fill-opacity:1;paint-order:markers fill stroke" />
    </g>
    <path
       style="fill:#f4f4f4;fill-opacity:1;stroke:none;stroke-width:3.54746;stroke-linecap:butt;stroke-linejoin:bevel;stroke-miterlimit:4;stroke-dasharray:none;stroke-opacity:1;paint-order:markers fill stroke"
       d="m -658.30297,-643.40564 a 195.22609,191.53042 44.792565 0 1 30.64772,24.81253 195.22609,191.53042 44.792565 0 1 2.65848,273.45949 195.22609,191.53042 44.792565 0 1 -273.4976,-2.56965 195.22609,191.53042 44.792565 0 1 -24.77356,-30.1943 237.30419,232.81197 44.792593 0 0 67.09207,130.86108 237.30419,232.81197 44.792593 0 0 332.44324,3.12094 237.30419,232.81197 44.792593 0 0 -3.22905,-332.39584 237.30419,232.81197 44.792593 0 0 -131.3413,-67.09425 z"
       id="path1924"
       inkscape:connector-curvature="0"
       inkscape:export-filename="/home/trevor/longterm/lunar/lunar-website/assets/images/logo-02b.png"
       inkscape:export-xdpi="96"
       inkscape:export-ydpi="96" />
    <path
       inkscape:export-ydpi="96"
       inkscape:export-xdpi="96"
       inkscape:export-filename="/home/trevor/longterm/lunar/lunar-website/assets/images/logo-02b.png"
       sodipodi:nodetypes="scccccccccccccscs"
       d="m -779.60915,-529.98937 c -32.22559,0.85655 -50.78285,5.76458 -78.09093,13.14567 46.75079,-7.18214 63.30997,-9.12227 106.07296,-0.65962 -36.54186,-1.03379 -58.62386,2.26603 -127.63631,18.41735 47.70897,-6.54564 80.27183,-9.77362 115.50449,-7.9861 -39.6115,2.53335 -81.95964,15.37476 -132.39758,37.98948 62.9389,-18.78551 100.18654,-29.08209 139.68745,-28.18917 -38.96193,8.87066 -74.01398,23.30404 -134.31989,57.9586 78.74801,-34.27 104.62847,-41.69476 133.943,-43.59111 -6.25946,38.03852 -24.74031,136.69966 -15.60565,237.59584 88.28798,34.13997 92.81381,-46.38298 197.64724,-55.09015 -2.45484,-59.18288 -1.52264,-43.45913 -12.09592,-97.50275 23.3591,0.56854 62.78813,-12.35359 62.78813,-12.35359 19.31644,-4.8838 19.84501,-13.08677 49.97023,-15.90086 0,0 -14.75852,-23.99732 -46.07022,-38.74524 -11.70553,-5.51261 -37.82899,-14.01074 -72.91246,-19.18328 -50.16695,-44.44515 -141.39917,-47.10343 -186.48454,-45.90507 z"
       style="fill:#698aaf;fill-opacity:1;stroke:none;stroke-width:0.848694;stroke-linecap:square;stroke-miterlimit:4;stroke-dasharray:none;paint-order:stroke fill markers"
       id="path1934" />
  </g>
</svg>
