<?xml version="1.0" encoding="UTF-8" standalone="no"?>
<svg
   inkscape:export-ydpi="96"
   inkscape:export-xdpi="96"
   inkscape:export-filename="/home/trevor/longterm/lunar/lunar-website/assets/images/icon-01.png"
   width="542.91541"
   height="542.96539"
   viewBox="0 0 542.91539 542.96539"
   version="1.1"
   id="svg8"
   inkscape:version="1.1 (c68e22c387, 2021-05-23)"
   sodipodi:docname="lunar_logo-01-white.svg"
   xmlns:inkscape="http://www.inkscape.org/namespaces/inkscape"
   xmlns:sodipodi="http://sodipodi.sourceforge.net/DTD/sodipodi-0.dtd"
   xmlns="http://www.w3.org/2000/svg"
   xmlns:svg="http://www.w3.org/2000/svg"
   xmlns:rdf="http://www.w3.org/1999/02/22-rdf-syntax-ns#"
   xmlns:cc="http://creativecommons.org/ns#"
   xmlns:dc="http://purl.org/dc/elements/1.1/">
  <defs
     id="defs2" />
  <sodipodi:namedview
     fit-margin-bottom="0"
     fit-margin-right="0"
     fit-margin-left="0"
     fit-margin-top="0"
     id="base"
     pagecolor="#ffffff"
     bordercolor="#666666"
     borderopacity="1.0"
     inkscape:pageopacity="0.0"
     inkscape:pageshadow="2"
     inkscape:zoom="0.62633161"
     inkscape:cx="59.872437"
     inkscape:cy="369.61251"
     inkscape:document-units="px"
     inkscape:current-layer="layer1"
     inkscape:document-rotation="0"
     showgrid="false"
     units="px"
     showborder="false"
     inkscape:window-width="2519"
     inkscape:window-height="1046"
     inkscape:window-x="1961"
     inkscape:window-y="1"
     inkscape:window-maximized="1"
     objecttolerance="10.0"
     gridtolerance="10.0"
     guidetolerance="10.0"
     inkscape:pagecheckerboard="1"
     inkscape:object-paths="true"
     inkscape:snap-intersection-paths="true"
     inkscape:snap-bbox="true"
     inkscape:bbox-paths="false"
     inkscape:bbox-nodes="true"
     inkscape:snap-smooth-nodes="true"
     inkscape:snap-midpoints="true"
     showguides="true"
     inkscape:guide-bbox="true"
     inkscape:snap-nodes="false">
    <sodipodi:guide
       position="469.48889,73.47651"
       orientation="-0.70710678,-0.70710678"
       id="guide1370" />
  </sodipodi:namedview>
  <metadata
     id="metadata5">
    <rdf:RDF>
      <cc:Work
         rdf:about="">
        <dc:format>image/svg+xml</dc:format>
        <dc:type
           rdf:resource="http://purl.org/dc/dcmitype/StillImage" />
      </cc:Work>
    </rdf:RDF>
  </metadata>
  <g
     transform="translate(933.05867,677.76216)"
     inkscape:label="Layer 1"
     inkscape:groupmode="layer"
     id="layer1">
    <path
       id="path1924"
       style="fill:#698aaf;fill-opacity:1;stroke:none;stroke-width:3.89112;stroke-linecap:butt;stroke-linejoin:bevel;stroke-miterlimit:4;stroke-dasharray:none;stroke-opacity:1;paint-order:markers fill stroke"
       d="m 293.82617,2.8125 a 210.48006,210.48006 0 0 1 96.21875,176.70312 210.48006,210.48006 0 0 1 -61.68164,148.10743 213.16889,209.13356 44.792565 0 1 -0.36133,0.38086 213.16889,209.13356 44.792565 0 1 -0.13867,0.11718 210.48006,210.48006 0 0 1 -148.29883,61.875 A 210.48006,210.48006 0 0 1 2.59375,293.4375 259.1143,254.2092 44.792593 0 0 75.576172,435.11719 259.1143,254.2092 44.792593 0 0 438.57422,438.52344 259.1143,254.2092 44.792593 0 0 435.04688,75.578125 259.1143,254.2092 44.792593 0 0 293.82617,2.8125 Z"
       transform="translate(-902.1432,-646.79731)" />
    <circle
       style="fill:#19314d;fill-opacity:1;stroke-width:2;stroke-linecap:round;stroke-linejoin:round;paint-order:stroke fill markers"
       id="path1266"
       cx="-722.57861"
       cy="-467.2821"
       r="210.48006" />
    <path
       inkscape:export-ydpi="96"
       inkscape:export-xdpi="96"
       inkscape:export-filename="/home/trevor/longterm/lunar/lunar-website/assets/images/icon-01.png"
       sodipodi:nodetypes="cccccccccccccccscc"
       d="m -744.56775,-522.39406 c -34.93078,-0.11646 -55.70234,6.32301 -85.65583,14.41913 67.38599,-5.90094 99.88654,-6.23709 120.61212,1.20217 -40.08178,-1.13394 -68.56648,0.55985 -144.26438,18.2758 52.33068,-7.17973 79.34306,-7.09707 117.98882,-5.13639 -43.44879,2.77877 -78.09136,9.65316 -135.35233,27.89767 69.49162,-15.16879 107.41146,-15.05289 150.73895,-14.07348 -46.111,3.66127 -92.27841,11.26158 -164.89193,39.83416 85.33895,-24.66546 122.42646,-19.33796 164.25966,-19.35881 -2.90723,4.20184 1.9564,-5.23385 0,0 -18.44289,89.16238 -25.60373,138.5283 -15.58417,249.19859 96.84071,37.44722 101.80497,-50.87623 216.79393,-60.42689 -2.69265,-64.91611 -1.67014,-47.66916 -13.26769,-106.94815 25.62197,0.62362 68.87061,-13.55031 68.87061,-13.55031 21.18768,-5.35691 21.76745,-14.35452 54.811,-17.44123 0,0 -16.18823,-26.32202 -50.53319,-42.49861 -12.83947,-6.04663 -41.4936,-15.36801 -79.9757,-21.04162 -55.02679,-48.75068 -155.08164,-49.88974 -204.54987,-50.35203 z"
       style="fill:#ffffff;fill-opacity:1;stroke:none;stroke-width:5;stroke-linecap:square;stroke-miterlimit:4;stroke-dasharray:none;stroke-opacity:1;paint-order:stroke fill markers"
       id="path1934" />
  </g>
</svg>
