<?xml version="1.0" encoding="UTF-8" standalone="no"?>
<svg
   sodipodi:docname="moon-penguin-01.svg"
   inkscape:version="1.3-dev (9bb0dc3846, 2022-07-20)"
   id="svg8"
   version="1.1"
   viewBox="0 0 2047.9999 1920"
   height="1920"
   width="2047.9999"
   inkscape:export-filename="../../../../../mnt/work/website/soviet-leftovers/star-logo-01.png"
   inkscape:export-xdpi="96"
   inkscape:export-ydpi="96"
   xml:space="preserve"
   xmlns:inkscape="http://www.inkscape.org/namespaces/inkscape"
   xmlns:sodipodi="http://sodipodi.sourceforge.net/DTD/sodipodi-0.dtd"
   xmlns="http://www.w3.org/2000/svg"
   xmlns:svg="http://www.w3.org/2000/svg"
   xmlns:rdf="http://www.w3.org/1999/02/22-rdf-syntax-ns#"
   xmlns:cc="http://creativecommons.org/ns#"
   xmlns:dc="http://purl.org/dc/elements/1.1/"><defs
     id="defs2"><inkscape:path-effect
       effect="spiro"
       id="path-effect7"
       is_visible="true"
       lpeversion="1" /><inkscape:path-effect
       effect="powerstroke"
       id="path-effect85217"
       is_visible="true"
       lpeversion="1"
       offset_points="4,2.5967069"
       not_jump="false"
       sort_points="true"
       interpolator_type="CubicBezierJohan"
       interpolator_beta="0.2"
       start_linecap_type="zerowidth"
       linejoin_type="extrp_arc"
       miter_limit="4"
       scale_width="1"
       end_linecap_type="zerowidth" /><inkscape:path-effect
       effect="powerstroke"
       id="path-effect85213"
       is_visible="true"
       lpeversion="1"
       offset_points="4,2.5967069"
       not_jump="false"
       sort_points="true"
       interpolator_type="CubicBezierJohan"
       interpolator_beta="0.2"
       start_linecap_type="zerowidth"
       linejoin_type="extrp_arc"
       miter_limit="4"
       scale_width="1"
       end_linecap_type="zerowidth" /><inkscape:path-effect
       effect="powerstroke"
       id="path-effect85209"
       is_visible="true"
       lpeversion="1"
       offset_points="5,2.5967069"
       not_jump="false"
       sort_points="true"
       interpolator_type="CubicBezierJohan"
       interpolator_beta="0.2"
       start_linecap_type="zerowidth"
       linejoin_type="extrp_arc"
       miter_limit="4"
       scale_width="1"
       end_linecap_type="zerowidth" /><inkscape:path-effect
       effect="powerstroke"
       id="path-effect85200"
       is_visible="true"
       lpeversion="1"
       offset_points="0.77907969,-2.5967069"
       not_jump="false"
       sort_points="true"
       interpolator_type="CubicBezierJohan"
       interpolator_beta="0.2"
       start_linecap_type="zerowidth"
       linejoin_type="extrp_arc"
       miter_limit="4"
       scale_width="1"
       end_linecap_type="zerowidth" /><inkscape:path-effect
       effect="powerstroke"
       id="path-effect85196"
       is_visible="true"
       lpeversion="1"
       offset_points="0,18.867925"
       not_jump="false"
       sort_points="true"
       interpolator_type="CubicBezierJohan"
       interpolator_beta="0.2"
       start_linecap_type="zerowidth"
       linejoin_type="extrp_arc"
       miter_limit="4"
       scale_width="1"
       end_linecap_type="zerowidth" /></defs><sodipodi:namedview
     inkscape:window-maximized="1"
     inkscape:window-y="1"
     inkscape:window-x="37"
     inkscape:window-height="1046"
     inkscape:window-width="2523"
     showborder="false"
     units="px"
     showgrid="false"
     inkscape:document-rotation="0"
     inkscape:current-layer="layer2"
     inkscape:document-units="px"
     inkscape:cy="1499.6631"
     inkscape:cx="1351.8647"
     inkscape:zoom="2.905986"
     inkscape:pageshadow="0"
     inkscape:pageopacity="0.0"
     borderopacity="1.0"
     bordercolor="#666666"
     pagecolor="#ffffff"
     id="base"
     inkscape:showpageshadow="0"
     inkscape:pagecheckerboard="1"
     inkscape:deskcolor="#d1d1d1"
     showguides="true"
     inkscape:lockguides="false" /><metadata
     id="metadata5"><rdf:RDF><cc:Work
         rdf:about=""><dc:format>image/svg+xml</dc:format><dc:type
           rdf:resource="http://purl.org/dc/dcmitype/StillImage" /></cc:Work></rdf:RDF></metadata><g
     id="layer1"
     inkscape:groupmode="layer"
     inkscape:label="Layer 1"
     transform="translate(531.08496,884.58895)"
     style="display:inline"
     sodipodi:insensitive="true"><rect
       style="fill:#1a1a1a;stroke-width:8;paint-order:stroke fill markers"
       id="rect1"
       width="1920.0001"
       height="2048"
       x="-884.58887"
       y="-1516.9282"
       transform="rotate(90)" /><circle
       style="fill:#fff6d5;stroke-width:7.99999;paint-order:stroke fill markers"
       id="use119"
       cx="-669.46613"
       cy="-1189.8477"
       r="2.5"
       transform="rotate(90)" /><circle
       style="fill:#fff6d5;stroke-width:7.99999;paint-order:stroke fill markers"
       id="use122"
       cx="-841.37878"
       cy="-1255.5293"
       r="2.5"
       transform="rotate(90)" /><circle
       style="fill:#fff6d5;stroke-width:7.99999;paint-order:stroke fill markers"
       id="use123"
       cx="60.356201"
       cy="-792.71954"
       r="2.5"
       transform="rotate(90)" /><circle
       style="fill:#fff6d5;stroke-width:7.99999;paint-order:stroke fill markers"
       id="use124"
       cx="-110.49884"
       cy="-886.34283"
       r="2.5"
       transform="rotate(90)" /><circle
       style="fill:#fff6d5;stroke-width:7.99999;paint-order:stroke fill markers"
       id="use125"
       cx="150.07599"
       cy="-317.0798"
       r="2.5"
       transform="rotate(90)" /><circle
       style="fill:#fff6d5;stroke-width:7.99999;paint-order:stroke fill markers"
       id="use126"
       cx="437.34381"
       cy="-540.96082"
       r="2.5"
       transform="rotate(90)" /><circle
       style="fill:#fff6d5;stroke-width:7.99999;paint-order:stroke fill markers"
       id="use127"
       cx="131.44147"
       cy="-709.64594"
       r="2.5"
       transform="rotate(90)" /><circle
       style="fill:#fff6d5;stroke-width:7.99999;paint-order:stroke fill markers"
       id="use128"
       cx="333.37665"
       cy="-384.91232"
       r="2.5"
       transform="rotate(90)" /><circle
       style="fill:#fff6d5;stroke-width:7.99999;paint-order:stroke fill markers"
       id="use129"
       cx="117.65088"
       cy="-311.74655"
       r="2.5"
       transform="rotate(90)" /><circle
       style="fill:#fff6d5;stroke-width:7.99999;paint-order:stroke fill markers"
       id="use130"
       cx="355.37506"
       cy="-271.15561"
       r="2.5"
       transform="rotate(90)" /><circle
       style="fill:#fff6d5;stroke-width:7.99999;paint-order:stroke fill markers"
       id="use131"
       cx="606.68085"
       cy="-285.88034"
       r="2.5"
       transform="rotate(90)" /><circle
       style="fill:#fff6d5;stroke-width:7.99999;paint-order:stroke fill markers"
       id="use132"
       cx="932.95636"
       cy="7.6651917"
       r="2.5"
       transform="rotate(90)" /><circle
       style="fill:#fff6d5;stroke-width:7.99999;paint-order:stroke fill markers"
       id="use133"
       cx="925.69025"
       cy="89.925201"
       r="2.5"
       transform="rotate(90)" /><circle
       style="fill:#fff6d5;stroke-width:7.99999;paint-order:stroke fill markers"
       id="use136"
       cx="1027.2814"
       cy="215.68411"
       r="2.5"
       transform="rotate(90)" /><circle
       style="fill:#fff6d5;stroke-width:7.99999;paint-order:stroke fill markers"
       id="use138"
       cx="780.82928"
       cy="-1437.8256"
       r="2.5"
       transform="rotate(90)" /><circle
       style="fill:#fff6d5;stroke-width:7.99999;paint-order:stroke fill markers"
       id="use139"
       cx="242.85138"
       cy="-1023.3356"
       r="2.5"
       transform="rotate(90)" /><circle
       style="fill:#fff6d5;stroke-width:7.99999;paint-order:stroke fill markers"
       id="use140"
       cx="638.13788"
       cy="-922.35205"
       r="2.5"
       transform="rotate(90)" /><circle
       style="fill:#fff6d5;stroke-width:7.99999;paint-order:stroke fill markers"
       id="use141"
       cx="-309.92059"
       cy="-650.49127"
       r="2.5"
       transform="rotate(90)" /><circle
       style="fill:#fff6d5;stroke-width:7.99999;paint-order:stroke fill markers"
       id="use142"
       cx="-500.66852"
       cy="-67.739838"
       r="2.5"
       transform="rotate(90)" /><circle
       style="fill:#fff6d5;stroke-width:7.99999;paint-order:stroke fill markers"
       id="use143"
       cx="-676.11115"
       cy="10.68399"
       r="2.5"
       transform="rotate(90)" /><circle
       style="fill:#fff6d5;stroke-width:7.99999;paint-order:stroke fill markers"
       id="use144"
       cx="-182.61938"
       cy="-379.98044"
       r="2.5"
       transform="rotate(90)" /><circle
       style="fill:#fff6d5;stroke-width:7.99999;paint-order:stroke fill markers"
       id="use145"
       cx="-212.51251"
       cy="-231.38461"
       r="2.5"
       transform="rotate(90)" /><circle
       style="fill:#fff6d5;stroke-width:7.99999;paint-order:stroke fill markers"
       id="use146"
       cx="-581.57532"
       cy="-23.926361"
       r="2.5"
       transform="rotate(90)" /><circle
       style="fill:#fff6d5;stroke-width:7.99999;paint-order:stroke fill markers"
       id="use147"
       cx="-783.5954"
       cy="1.9455873"
       r="2.5"
       transform="rotate(90)" /><circle
       style="fill:#fff6d5;stroke-width:7.99999;paint-order:stroke fill markers"
       id="use148"
       cx="-483.9072"
       cy="-1.4936217"
       r="2.5"
       transform="rotate(90)" /><circle
       style="fill:#fff6d5;stroke-width:7.99999;paint-order:stroke fill markers"
       id="use149"
       cx="-543.4646"
       cy="365.50565"
       r="2.5"
       transform="rotate(90)" /><circle
       style="fill:#fff6d5;stroke-width:7.99999;paint-order:stroke fill markers"
       id="use150"
       cx="-551.37695"
       cy="131.40958"
       r="2.5"
       transform="rotate(90)" /><circle
       style="fill:#fff6d5;stroke-width:7.99999;paint-order:stroke fill markers"
       id="use152"
       cx="-850.71002"
       cy="-715.70282"
       r="2.5"
       transform="rotate(90)" /><circle
       style="fill:#fff6d5;stroke-width:7.99999;paint-order:stroke fill markers"
       id="use153"
       cx="-735.263"
       cy="-933.48816"
       r="2.5"
       transform="rotate(90)" /><circle
       style="fill:#fff6d5;stroke-width:7.99999;paint-order:stroke fill markers"
       id="use154"
       cx="-434.93292"
       cy="-666.14026"
       r="2.5"
       transform="rotate(90)" /><circle
       style="fill:#fff6d5;stroke-width:7.99999;paint-order:stroke fill markers"
       id="use155"
       cx="-567.3595"
       cy="-949.49652"
       r="2.5"
       transform="rotate(90)" /><circle
       style="fill:#fff6d5;stroke-width:7.99999;paint-order:stroke fill markers"
       id="use156"
       cx="-594.48395"
       cy="-1118.1521"
       r="2.5"
       transform="rotate(90)" /><circle
       style="fill:#fff6d5;stroke-width:7.99999;paint-order:stroke fill markers"
       id="use157"
       cx="-325.83551"
       cy="-745.07062"
       r="2.5"
       transform="rotate(90)" /><circle
       style="fill:#fff6d5;stroke-width:7.99999;paint-order:stroke fill markers"
       id="use158"
       cx="-596.69104"
       cy="-771.4126"
       r="2.5"
       transform="rotate(90)" /><circle
       style="fill:#fff6d5;stroke-width:7.99999;paint-order:stroke fill markers"
       id="use159"
       cx="-339.7525"
       cy="-543.74304"
       r="2.5"
       transform="rotate(90)" /><circle
       style="fill:#fff6d5;stroke-width:7.99999;paint-order:stroke fill markers"
       id="use160"
       cx="-299.61932"
       cy="-355.53329"
       r="2.5"
       transform="rotate(90)" /><circle
       style="fill:#fff6d5;stroke-width:7.99999;paint-order:stroke fill markers"
       id="use161"
       cx="-459.47931"
       cy="-778.64954"
       r="2.5"
       transform="rotate(90)" /><circle
       style="fill:#fff6d5;stroke-width:7.99999;paint-order:stroke fill markers"
       id="use162"
       cx="-692.82251"
       cy="-820.72186"
       r="2.5"
       transform="rotate(90)" /><circle
       style="fill:#fff6d5;stroke-width:7.99999;paint-order:stroke fill markers"
       id="use163"
       cx="-527.77771"
       cy="-795.26929"
       r="2.5"
       transform="rotate(90)" /><circle
       style="fill:#fff6d5;stroke-width:7.99999;paint-order:stroke fill markers"
       id="use164"
       cx="-669.92322"
       cy="-301.95419"
       r="2.5"
       transform="rotate(90)" /><circle
       style="fill:#fff6d5;stroke-width:7.99999;paint-order:stroke fill markers"
       id="use165"
       cx="-539.35352"
       cy="-716.69922"
       r="2.5"
       transform="rotate(90)" /><circle
       style="fill:#fff6d5;stroke-width:7.99999;paint-order:stroke fill markers"
       id="use166"
       cx="-184.07043"
       cy="-1284.5857"
       r="2.5"
       transform="rotate(90)" /><circle
       style="fill:#fff6d5;stroke-width:7.99999;paint-order:stroke fill markers"
       id="use167"
       cx="-349.33191"
       cy="-1423.6105"
       r="2.5"
       transform="rotate(90)" /><circle
       style="fill:#fff6d5;stroke-width:7.99999;paint-order:stroke fill markers"
       id="use168"
       cx="-288.95203"
       cy="-935.33392"
       r="2.5"
       transform="rotate(90)" /><circle
       style="fill:#fff6d5;stroke-width:7.99999;paint-order:stroke fill markers"
       id="use170"
       cx="-49.664612"
       cy="-1278.0306"
       r="2.5"
       transform="rotate(90)" /><circle
       style="fill:#fff6d5;stroke-width:7.99999;paint-order:stroke fill markers"
       id="use171"
       cx="274.89008"
       cy="-1277.5551"
       r="2.5"
       transform="rotate(90)" /><circle
       style="fill:#fff6d5;stroke-width:7.99999;paint-order:stroke fill markers"
       id="use172"
       cx="232.13373"
       cy="-1240.3718"
       r="2.5"
       transform="rotate(90)" /><circle
       style="fill:#fff6d5;stroke-width:7.99999;paint-order:stroke fill markers"
       id="use173"
       cx="151.86859"
       cy="-1443.6454"
       r="2.5"
       transform="rotate(90)" /><circle
       style="fill:#fff6d5;stroke-width:7.99999;paint-order:stroke fill markers"
       id="use181"
       cx="900.64325"
       cy="-761.29803"
       r="2.5"
       transform="rotate(90)" /><circle
       style="fill:#fff6d5;stroke-width:7.99999;paint-order:stroke fill markers"
       id="use183"
       cx="841.16315"
       cy="-715.28503"
       r="2.5"
       transform="rotate(90)" /><circle
       style="fill:#fff6d5;stroke-width:7.99999;paint-order:stroke fill markers"
       id="use184"
       cx="902.71234"
       cy="-711.05243"
       r="2.5"
       transform="rotate(90)" /><circle
       style="fill:#fff6d5;stroke-width:7.99999;paint-order:stroke fill markers"
       id="use185"
       cx="1004.4549"
       cy="-444.78561"
       r="2.5"
       transform="rotate(90)" /><circle
       style="fill:#fff6d5;stroke-width:7.99999;paint-order:stroke fill markers"
       id="use186"
       cx="629.38824"
       cy="-195.82101"
       r="2.5"
       transform="rotate(90)" /><circle
       style="fill:#fff6d5;stroke-width:7.99999;paint-order:stroke fill markers"
       id="use190"
       cx="928.26825"
       cy="212.55325"
       r="2.5"
       transform="rotate(90)" /><circle
       style="fill:#fff6d5;stroke-width:7.99999;paint-order:stroke fill markers"
       id="use191"
       cx="587.52655"
       cy="3.5235901"
       r="2.5"
       transform="rotate(90)" /><circle
       style="fill:#fff6d5;stroke-width:7.99999;paint-order:stroke fill markers"
       id="use192"
       cx="623.04352"
       cy="149.87686"
       r="2.5"
       transform="rotate(90)" /><circle
       style="fill:#fff6d5;stroke-width:7.99999;paint-order:stroke fill markers"
       id="use193"
       cx="615.97858"
       cy="79.812775"
       r="2.5"
       transform="rotate(90)" /><circle
       style="fill:#fff6d5;stroke-width:7.99999;paint-order:stroke fill markers"
       id="use194"
       cx="686.51154"
       cy="194.55118"
       r="2.5"
       transform="rotate(90)" /><circle
       style="fill:#fff6d5;stroke-width:7.99999;paint-order:stroke fill markers"
       id="use195"
       cx="447.18024"
       cy="-15.647919"
       r="2.5"
       transform="rotate(90)" /><circle
       style="fill:#fff6d5;stroke-width:7.99999;paint-order:stroke fill markers"
       id="use196"
       cx="-28.63489"
       cy="463.87918"
       r="2.5"
       transform="rotate(90)" /><circle
       style="fill:#fff6d5;stroke-width:7.99999;paint-order:stroke fill markers"
       id="use197"
       cx="-15.582338"
       cy="101.42947"
       r="2.5"
       transform="rotate(90)" /><circle
       style="fill:#fff6d5;stroke-width:7.99999;paint-order:stroke fill markers"
       id="use198"
       cx="320.43243"
       cy="457.73929"
       r="2.5"
       transform="rotate(90)" /><circle
       style="fill:#fff6d5;stroke-width:7.99999;paint-order:stroke fill markers"
       id="use201"
       cx="-382.14642"
       cy="497.13968"
       r="2.5"
       transform="rotate(90)" /><circle
       style="fill:#fff6d5;stroke-width:7.99999;paint-order:stroke fill markers"
       id="use202"
       cx="-211.14594"
       cy="236.04691"
       r="2.5"
       transform="rotate(90)" /><circle
       style="fill:#fff6d5;stroke-width:7.99999;paint-order:stroke fill markers"
       id="use203"
       cx="-179.25421"
       cy="63.936798"
       r="2.5"
       transform="rotate(90)" /><circle
       style="fill:#fff6d5;stroke-width:7.99999;paint-order:stroke fill markers"
       id="use204"
       cx="-397.1712"
       cy="203.89981"
       r="2.5"
       transform="rotate(90)" /><circle
       style="fill:#fff6d5;stroke-width:7.99999;paint-order:stroke fill markers"
       id="use205"
       cx="8.6729717"
       cy="-256.327"
       r="2.5"
       transform="rotate(90)" /><circle
       style="fill:#fff6d5;stroke-width:7.99999;paint-order:stroke fill markers"
       id="use206"
       cx="-37.117126"
       cy="-160.86716"
       r="2.5"
       transform="rotate(90)" /><circle
       style="fill:#fff6d5;stroke-width:7.99999;paint-order:stroke fill markers"
       id="use207"
       cx="336.64911"
       cy="-205.97543"
       r="2.5"
       transform="rotate(90)" /><circle
       style="fill:#fff6d5;stroke-width:7.99999;paint-order:stroke fill markers"
       id="use208"
       cx="28.020811"
       cy="-58.609344"
       r="2.5"
       transform="rotate(90)" /><circle
       style="fill:#fff6d5;stroke-width:7.99999;paint-order:stroke fill markers"
       id="use209"
       cx="461.89203"
       cy="-10.20578"
       r="2.5"
       transform="rotate(90)" /><circle
       style="fill:#fff6d5;stroke-width:7.99999;paint-order:stroke fill markers"
       id="use210"
       cx="290.75287"
       cy="76.604889"
       r="2.5"
       transform="rotate(90)" /><circle
       style="fill:#fff6d5;stroke-width:7.99999;paint-order:stroke fill markers"
       id="use211"
       cx="168.9715"
       cy="49.782623"
       r="2.5"
       transform="rotate(90)" /><circle
       style="fill:#fff6d5;stroke-width:7.99999;paint-order:stroke fill markers"
       id="use212"
       cx="525.74823"
       cy="363.74014"
       r="2.5"
       transform="rotate(90)" /><circle
       style="fill:#fff6d5;stroke-width:7.99999;paint-order:stroke fill markers"
       id="use213"
       cx="208.888"
       cy="212.3262"
       r="2.5"
       transform="rotate(90)" /><circle
       style="fill:#fff6d5;stroke-width:7.99999;paint-order:stroke fill markers"
       id="use214"
       cx="352.03363"
       cy="-1399.8408"
       r="2.5"
       transform="rotate(90)" /><circle
       style="fill:#fff6d5;stroke-width:7.99999;paint-order:stroke fill markers"
       id="use216"
       cx="904.16034"
       cy="-783.5813"
       r="2.5"
       transform="rotate(90)" /><circle
       style="fill:#fff6d5;stroke-width:7.99999;paint-order:stroke fill markers"
       id="use217"
       cx="822.27264"
       cy="-1251.6708"
       r="2.5"
       transform="rotate(90)" /><circle
       style="fill:#fff6d5;stroke-width:7.99999;paint-order:stroke fill markers"
       id="use218"
       cx="846.48505"
       cy="-807.58057"
       r="2.5"
       transform="rotate(90)" /><circle
       style="fill:#fff6d5;stroke-width:7.99999;paint-order:stroke fill markers"
       id="use219"
       cx="645.75922"
       cy="-1233.6691"
       r="2.5"
       transform="rotate(90)" /><circle
       style="fill:#fff6d5;stroke-width:7.99999;paint-order:stroke fill markers"
       id="use220"
       cx="804.30804"
       cy="-1127.0742"
       r="2.5"
       transform="rotate(90)" /><circle
       style="fill:#fff6d5;stroke-width:7.99999;paint-order:stroke fill markers"
       id="use222"
       cx="655.84247"
       cy="-1254.1566"
       r="2.5"
       transform="rotate(90)" /><circle
       style="fill:#fff6d5;stroke-width:7.99999;paint-order:stroke fill markers"
       id="use223"
       cx="1000.793"
       cy="-1002.1725"
       r="2.5"
       transform="rotate(90)" /><circle
       style="fill:#fff6d5;stroke-width:7.99999;paint-order:stroke fill markers"
       id="use224"
       cx="826.89984"
       cy="-935.48419"
       r="2.5"
       transform="rotate(90)" /><circle
       style="fill:#fff6d5;stroke-width:7.99999;paint-order:stroke fill markers"
       id="use225"
       cx="937.97272"
       cy="-1378.3496"
       r="2.5"
       transform="rotate(90)" /><circle
       style="fill:#fff6d5;stroke-width:7.99999;paint-order:stroke fill markers"
       id="use226"
       cx="918.54034"
       cy="-909.51227"
       r="2.5"
       transform="rotate(90)" /><ellipse
       style="fill:#ffeeaa;stroke-width:7.99997;paint-order:stroke fill markers"
       id="use227"
       cx="297.22205"
       cy="-1223.3894"
       transform="matrix(0,-1,-1,0,0,0)"
       rx="5"
       ry="4.999999" /><ellipse
       style="fill:#ffeeaa;stroke-width:7.99997;paint-order:stroke fill markers"
       id="use228"
       cx="-476.81952"
       cy="-811.55206"
       transform="matrix(0,-1,-1,0,0,0)"
       rx="5"
       ry="4.999999" /><ellipse
       style="fill:#ffeeaa;stroke-width:7.99997;paint-order:stroke fill markers"
       id="use229"
       cx="-656.4588"
       cy="-941.38043"
       transform="matrix(0,-1,-1,0,0,0)"
       rx="5"
       ry="4.999999" /><ellipse
       style="fill:#ffeeaa;stroke-width:7.99997;paint-order:stroke fill markers"
       id="use230"
       cx="-365.64813"
       cy="-938.69196"
       transform="matrix(0,-1,-1,0,0,0)"
       rx="5"
       ry="4.999999" /><ellipse
       style="fill:#ffeeaa;stroke-width:7.99997;paint-order:stroke fill markers"
       id="use231"
       cx="-349.17108"
       cy="-705.60864"
       transform="matrix(0,-1,-1,0,0,0)"
       rx="5"
       ry="4.999999" /><ellipse
       style="fill:#ffeeaa;stroke-width:7.99997;paint-order:stroke fill markers"
       id="use232"
       cx="-709.36078"
       cy="-1110.7764"
       transform="matrix(0,-1,-1,0,0,0)"
       rx="5"
       ry="4.999999" /><ellipse
       style="fill:#ffeeaa;stroke-width:7.99997;paint-order:stroke fill markers"
       id="use233"
       cx="-748.50568"
       cy="-605.98785"
       transform="matrix(0,-1,-1,0,0,0)"
       rx="5"
       ry="4.999999" /><ellipse
       style="fill:#ffeeaa;stroke-width:7.99997;paint-order:stroke fill markers"
       id="use235"
       cx="-936.70001"
       cy="-833.90698"
       transform="matrix(0,-1,-1,0,0,0)"
       rx="5"
       ry="4.999999" /><ellipse
       style="fill:#ffeeaa;stroke-width:7.99997;paint-order:stroke fill markers"
       id="use236"
       cx="-797.3089"
       cy="-386.7583"
       transform="matrix(0,-1,-1,0,0,0)"
       rx="5"
       ry="4.999999" /><ellipse
       style="fill:#ffeeaa;stroke-width:7.99997;paint-order:stroke fill markers"
       id="use237"
       cx="-498.18427"
       cy="54.998047"
       transform="matrix(0,-1,-1,0,0,0)"
       rx="5"
       ry="4.999999" /><ellipse
       style="fill:#ffeeaa;stroke-width:7.99997;paint-order:stroke fill markers"
       id="use238"
       cx="-382.25677"
       cy="-324.35181"
       transform="matrix(0,-1,-1,0,0,0)"
       rx="5"
       ry="4.999999" /><ellipse
       style="fill:#ffeeaa;stroke-width:7.99997;paint-order:stroke fill markers"
       id="use239"
       cx="-191.79974"
       cy="-485.73511"
       transform="matrix(0,-1,-1,0,0,0)"
       rx="5"
       ry="4.999999" /><ellipse
       style="fill:#ffeeaa;stroke-width:7.99997;paint-order:stroke fill markers"
       id="use240"
       cx="205.65173"
       cy="43.337402"
       transform="matrix(0,-1,-1,0,0,0)"
       rx="5"
       ry="4.999999" /><ellipse
       style="fill:#ffeeaa;stroke-width:7.99997;paint-order:stroke fill markers"
       id="use241"
       cx="-185.09088"
       cy="-41.452637"
       transform="matrix(0,-1,-1,0,0,0)"
       rx="5"
       ry="4.999999" /><ellipse
       style="fill:#ffeeaa;stroke-width:7.99997;paint-order:stroke fill markers"
       id="use242"
       cx="476.39914"
       cy="7.6469731"
       transform="matrix(0,-1,-1,0,0,0)"
       rx="5"
       ry="4.999999" /><ellipse
       style="fill:#ffeeaa;stroke-width:7.99997;paint-order:stroke fill markers"
       id="use243"
       cx="405.92325"
       cy="-68.927612"
       transform="matrix(0,-1,-1,0,0,0)"
       rx="5"
       ry="4.999999" /><ellipse
       style="fill:#ffeeaa;stroke-width:7.99997;paint-order:stroke fill markers"
       id="use244"
       cx="377.24274"
       cy="398.57275"
       transform="matrix(0,-1,-1,0,0,0)"
       rx="5"
       ry="4.999999" /><ellipse
       style="fill:#ffeeaa;stroke-width:7.99997;paint-order:stroke fill markers"
       id="use245"
       cx="229.16907"
       cy="412.1709"
       transform="matrix(0,-1,-1,0,0,0)"
       rx="5"
       ry="4.999999" /><ellipse
       style="fill:#ffeeaa;stroke-width:7.99997;paint-order:stroke fill markers"
       id="use246"
       cx="216.69543"
       cy="206.35999"
       transform="matrix(0,-1,-1,0,0,0)"
       rx="5"
       ry="4.999999" /><ellipse
       style="fill:#ffeeaa;stroke-width:7.99997;paint-order:stroke fill markers"
       id="use247"
       cx="453.16525"
       cy="-20.627808"
       transform="matrix(0,-1,-1,0,0,0)"
       rx="5"
       ry="4.999999" /><ellipse
       style="fill:#ffeeaa;stroke-width:7.99997;paint-order:stroke fill markers"
       id="use248"
       cx="561.72839"
       cy="136.07935"
       transform="matrix(0,-1,-1,0,0,0)"
       rx="5"
       ry="4.999999" /><ellipse
       style="fill:#ffeeaa;stroke-width:7.99997;paint-order:stroke fill markers"
       id="use249"
       cx="862.27905"
       cy="228.71924"
       transform="matrix(0,-1,-1,0,0,0)"
       rx="5"
       ry="4.999999" /><ellipse
       style="fill:#ffeeaa;stroke-width:7.99997;paint-order:stroke fill markers"
       id="use250"
       cx="452.22855"
       cy="270.81433"
       transform="matrix(0,-1,-1,0,0,0)"
       rx="5"
       ry="4.999999" /><ellipse
       style="fill:#ffeeaa;stroke-width:7.99997;paint-order:stroke fill markers"
       id="use251"
       cx="723.36243"
       cy="-8.6027822"
       transform="matrix(0,-1,-1,0,0,0)"
       rx="5"
       ry="4.999999" /><ellipse
       style="fill:#ffeeaa;stroke-width:7.99997;paint-order:stroke fill markers"
       id="use253"
       cx="758.23285"
       cy="-275.79968"
       transform="matrix(0,-1,-1,0,0,0)"
       rx="5"
       ry="4.999999" /><ellipse
       style="fill:#ffeeaa;stroke-width:7.99997;paint-order:stroke fill markers"
       id="use254"
       cx="649.10687"
       cy="-719.03058"
       transform="matrix(0,-1,-1,0,0,0)"
       rx="5"
       ry="4.999999" /><ellipse
       style="fill:#ffeeaa;stroke-width:7.99997;paint-order:stroke fill markers"
       id="use256"
       cx="784.88568"
       cy="-368.87561"
       transform="matrix(0,-1,-1,0,0,0)"
       rx="5"
       ry="4.999999" /><ellipse
       style="fill:#ffeeaa;stroke-width:7.99997;paint-order:stroke fill markers"
       id="use257"
       cx="681.27527"
       cy="-670.78827"
       transform="matrix(0,-1,-1,0,0,0)"
       rx="5"
       ry="4.999999" /><ellipse
       style="fill:#ffeeaa;stroke-width:7.99997;paint-order:stroke fill markers"
       id="use259"
       cx="766.45526"
       cy="-355.9176"
       transform="matrix(0,-1,-1,0,0,0)"
       rx="5"
       ry="4.999999" /><ellipse
       style="fill:#ffeeaa;stroke-width:7.99997;paint-order:stroke fill markers"
       id="use260"
       cx="90.819153"
       cy="-517.25885"
       transform="matrix(0,-1,-1,0,0,0)"
       rx="5"
       ry="4.999999" /><ellipse
       style="fill:#ffeeaa;stroke-width:7.99997;paint-order:stroke fill markers"
       id="use261"
       cx="521.59937"
       cy="-184.91003"
       transform="matrix(0,-1,-1,0,0,0)"
       rx="5"
       ry="4.999999" /><ellipse
       style="fill:#ffeeaa;stroke-width:7.99997;paint-order:stroke fill markers"
       id="use262"
       cx="274.27228"
       cy="-756.33685"
       transform="matrix(0,-1,-1,0,0,0)"
       rx="5"
       ry="4.999999" /><ellipse
       style="fill:#ffeeaa;stroke-width:7.99997;paint-order:stroke fill markers"
       id="use263"
       cx="411.33374"
       cy="-783.73029"
       transform="matrix(0,-1,-1,0,0,0)"
       rx="5"
       ry="4.999999" /><ellipse
       style="fill:#ffeeaa;stroke-width:7.99997;paint-order:stroke fill markers"
       id="use264"
       cx="173.23688"
       cy="-821.51105"
       transform="matrix(0,-1,-1,0,0,0)"
       rx="5"
       ry="4.999999" /><ellipse
       style="fill:#ffeeaa;stroke-width:7.99997;paint-order:stroke fill markers"
       id="use265"
       cx="-73.404663"
       cy="-864.591"
       transform="matrix(0,-1,-1,0,0,0)"
       rx="5"
       ry="4.999999" /><ellipse
       style="fill:#ffeeaa;stroke-width:7.99997;paint-order:stroke fill markers"
       id="use266"
       cx="14.005251"
       cy="-1167.1462"
       transform="matrix(0,-1,-1,0,0,0)"
       rx="5"
       ry="4.999999" /><ellipse
       style="fill:#ffeeaa;stroke-width:7.99997;paint-order:stroke fill markers"
       id="use267"
       cx="-46.28833"
       cy="-933.94275"
       transform="matrix(0,-1,-1,0,0,0)"
       rx="5"
       ry="4.999999" /><ellipse
       style="fill:#ffeeaa;stroke-width:7.99997;paint-order:stroke fill markers"
       id="use268"
       cx="1.5900286"
       cy="-1148.2047"
       transform="matrix(0,-1,-1,0,0,0)"
       rx="5"
       ry="4.999999" /><ellipse
       style="fill:#ffeeaa;stroke-width:7.99997;paint-order:stroke fill markers"
       id="use269"
       cx="-295.80414"
       cy="-901.86023"
       transform="matrix(0,-1,-1,0,0,0)"
       rx="5"
       ry="4.999999" /><ellipse
       style="fill:#ffeeaa;stroke-width:7.99997;paint-order:stroke fill markers"
       id="use270"
       cx="-304.45184"
       cy="-1335.6809"
       transform="matrix(0,-1,-1,0,0,0)"
       rx="5"
       ry="4.999999" /><ellipse
       style="fill:#ffeeaa;stroke-width:7.99997;paint-order:stroke fill markers"
       id="use271"
       cx="-337.40314"
       cy="-1141.4965"
       transform="matrix(0,-1,-1,0,0,0)"
       rx="5"
       ry="4.999999" /><ellipse
       style="fill:#ffeeaa;stroke-width:7.99997;paint-order:stroke fill markers"
       id="use272"
       cx="-72.96167"
       cy="-1122.8578"
       transform="matrix(0,-1,-1,0,0,0)"
       rx="5"
       ry="4.999999" /><ellipse
       style="fill:#ffeeaa;stroke-width:7.99997;paint-order:stroke fill markers"
       id="use273"
       cx="-109.90344"
       cy="-1361.7732"
       transform="matrix(0,-1,-1,0,0,0)"
       rx="5"
       ry="4.999999" /><ellipse
       style="fill:#ffeeaa;stroke-width:7.99997;paint-order:stroke fill markers"
       id="use275"
       cx="-815.84332"
       cy="457.77368"
       transform="matrix(0,-1,-1,0,0,0)"
       rx="5"
       ry="4.999999" /><ellipse
       style="fill:#ffeeaa;stroke-width:7.99997;paint-order:stroke fill markers"
       id="use277"
       cx="-656.66718"
       cy="419.77856"
       transform="matrix(0,-1,-1,0,0,0)"
       rx="5"
       ry="4.999999" /><ellipse
       style="fill:#ffeeaa;stroke-width:7.99997;paint-order:stroke fill markers"
       id="use278"
       cx="-1015.8742"
       cy="350.47034"
       transform="matrix(0,-1,-1,0,0,0)"
       rx="5"
       ry="4.999999" /><ellipse
       style="fill:#ffeeaa;stroke-width:7.99997;paint-order:stroke fill markers"
       id="use281"
       cx="-762.92511"
       cy="191.80383"
       transform="matrix(0,-1,-1,0,0,0)"
       rx="5"
       ry="4.999999" /><ellipse
       style="fill:#ffeeaa;stroke-width:7.99997;paint-order:stroke fill markers"
       id="use288"
       cx="655.66656"
       cy="-1417.6395"
       transform="matrix(0,-1,-1,0,0,0)"
       rx="5"
       ry="4.999999" /><ellipse
       style="fill:#ffeeaa;stroke-width:7.99997;paint-order:stroke fill markers"
       id="use290"
       cx="706.92346"
       cy="-1246.2488"
       transform="matrix(0,-1,-1,0,0,0)"
       rx="5"
       ry="4.999999" /><ellipse
       style="fill:#ffeeaa;stroke-width:7.99997;paint-order:stroke fill markers"
       id="use291"
       cx="799.65863"
       cy="-1499.7277"
       transform="matrix(0,-1,-1,0,0,0)"
       rx="5"
       ry="4.999999" /><ellipse
       style="fill:#ffeeaa;stroke-width:7.99997;paint-order:stroke fill markers"
       id="use292"
       cx="573.97455"
       cy="-1022.931"
       transform="matrix(0,-1,-1,0,0,0)"
       rx="5"
       ry="4.999999" /><ellipse
       style="fill:#ffeeaa;stroke-width:7.99997;paint-order:stroke fill markers"
       id="use293"
       cx="531.57159"
       cy="-1431.9968"
       transform="matrix(0,-1,-1,0,0,0)"
       rx="5"
       ry="4.999999" /><ellipse
       style="fill:#ffeeaa;stroke-width:7.99997;paint-order:stroke fill markers"
       id="use294"
       cx="559.18549"
       cy="-1001.2006"
       transform="matrix(0,-1,-1,0,0,0)"
       rx="5"
       ry="4.999999" /><ellipse
       style="fill:#ffeeaa;stroke-width:7.99997;paint-order:stroke fill markers"
       id="use295"
       cx="647.96307"
       cy="-1367.7963"
       transform="matrix(0,-1,-1,0,0,0)"
       rx="5"
       ry="4.999999" /><ellipse
       style="fill:#ffeeaa;stroke-width:7.99997;paint-order:stroke fill markers"
       id="use296"
       cx="504.82254"
       cy="-1176.9648"
       transform="matrix(0,-1,-1,0,0,0)"
       rx="5"
       ry="4.999999" /><ellipse
       style="fill:#ffeeaa;stroke-width:7.99997;paint-order:stroke fill markers"
       id="use297"
       cx="325.71814"
       cy="-1460.9979"
       transform="matrix(0,-1,-1,0,0,0)"
       rx="5"
       ry="4.999999" /><ellipse
       style="fill:#ffeeaa;stroke-width:7.99997;paint-order:stroke fill markers"
       id="use298"
       cx="509.89124"
       cy="-772.21832"
       transform="matrix(0,-1,-1,0,0,0)"
       rx="5"
       ry="4.999999" /></g><g
     inkscape:groupmode="layer"
     id="layer2"
     inkscape:label="Layer 2"
     style="display:inline"
     transform="translate(423.45724,834.78723)"><path
       style="display:inline;fill:#999999;fill-opacity:1;stroke:none;stroke-width:8;stroke-linecap:round;stroke-linejoin:round;stroke-opacity:1;paint-order:normal"
       d="m -23.94253,942.65397 867.47218,-11.8191 c 0,0 -472.02328,-229.5977 -546.84518,-195.9195 -74.822,33.6782 -320.627,207.7386 -320.627,207.7386 z"
       id="path22"
       transform="translate(107.62772,49.801723)" /><path
       style="display:inline;fill:#a6a6a6;fill-opacity:1;stroke:none;stroke-width:7.99999;stroke-linecap:round;stroke-linejoin:round;stroke-opacity:1;paint-order:normal"
       d="m -530.95823,996.64607 850.7523,-16.6261 c 0,0 -462.9254,-322.9771 -536.3051,-275.6017 -73.3799,47.3755 -314.4472,292.2278 -314.4472,292.2278 z"
       id="path20"
       transform="translate(107.62772,49.801723)" /><path
       style="display:inline;fill:#a6a6a6;fill-opacity:1;stroke:none;stroke-width:8;stroke-linecap:round;stroke-linejoin:round;stroke-opacity:1;paint-order:normal"
       d="m 1506.5658,925.71407 -768.76773,-25.0708 c 0,0 315.42043,-245.2238 403.91963,-235.2382 202.4902,22.8475 364.8481,260.309 364.8481,260.309 z"
       id="path21"
       sodipodi:nodetypes="ccsc"
       transform="translate(107.62772,49.801723)" /><path
       id="rect19"
       style="display:inline;fill:#b2b2b2;fill-opacity:1;stroke-width:8;stroke-linecap:round;stroke-linejoin:round"
       d="m -423.44406,910.87241 125.83473,-15.13883 129.3255,1.6705 130.505903,3.2509 125.7746,-0.4201 127.425097,-3.541 129.2956,-0.02 128.7754,-8.0722 124.6843,5.2414 130.24984,4.6313 128.80444,-1.3604 128.64441,1.8505 126.59284,-1.5404 127.6851,4.7413 129.1545,-6.8819 128.4594,3.481 126.7882,-1.42567 10e-5,187.87419 -2048.01314,-2e-4 z"
       sodipodi:nodetypes="cccccccccccccccccccc" /><path
       style="display:inline;fill:none;fill-opacity:1;stroke:#4d4d4d;stroke-width:4;stroke-linecap:butt;stroke-linejoin:round;stroke-dasharray:none;stroke-opacity:1;paint-order:normal"
       d="m -423.2443,910.87241 126.0846,-13.5019 64.46289,0.8352 129.9157,2.4608 128.1403,1.4153 224.2137,-3.7562 127.407,-2.0215 96.7627,-7.1061 353.53152,8.2248 94.52925,1.2128 127.61864,1.1956 127.139,1.6004 63.8425,2.3707 129.1545,-6.8819 64.2297,1.7405 64.2297,1.7405 53.6118,-1.6808 29.9283,-0.9383 42.9983,-0.4435"
       id="path23"
       sodipodi:nodetypes="ccccccccccccccccccc" /><g
       id="g2"
       style="stroke-width:4;stroke-dasharray:none"><path
         style="display:inline;fill:#ffe680;fill-opacity:1;stroke:#808080;stroke-width:4;stroke-linecap:round;stroke-linejoin:round;stroke-opacity:1;paint-order:normal;stroke-dasharray:none"
         d="M 63.522217,923.26794 V 672.49032"
         id="path15" /><g
         id="g1"
         transform="translate(4)"
         style="stroke-width:4;stroke-dasharray:none"><path
           id="rect15"
           style="display:inline;fill:#cccccc;stroke:#808080;stroke-width:4;stroke-linecap:round;stroke-linejoin:round;stroke-dasharray:none"
           d="m 71.193984,673.01221 c 53.338766,2.35413 90.061186,-6.91875 137.531466,-3.79366 l 19.41147,96.20284 c -52.40842,-4.33589 -85.84518,15.43192 -155.682769,3.89018 z"
           sodipodi:nodetypes="ccccc" /><g
           id="g15"
           transform="matrix(0.45362465,0.02851451,0.07473472,0.45900443,90.670853,491.30905)"
           style="display:inline;stroke-width:8.81124173;stroke-dasharray:none"><path
             style="fill:#698aaf;fill-opacity:1;stroke:none;stroke-width:8.81124173;stroke-linecap:butt;stroke-linejoin:bevel;stroke-miterlimit:4;stroke-dasharray:none;stroke-opacity:1;paint-order:markers fill stroke"
             d="m 54.42401,408.82203 a 68.78804,67.485869 44.792565 0 1 10.79875,8.74271 68.78804,67.485869 44.792565 0 1 0.936715,96.35364 68.78804,67.485869 44.792565 0 1 -96.367053,-0.90542 68.78804,67.485869 44.792565 0 1 -8.728986,-10.63899 83.614288,82.031448 44.792593 0 0 23.639943,46.10899 83.614288,82.031448 44.792593 0 0 117.136591,1.09967 83.614288,82.031448 44.792593 0 0 -1.13776,-117.11989 83.614288,82.031448 44.792593 0 0 -46.2782,-23.64071 z"
             id="path1924"
             inkscape:connector-curvature="0"
             inkscape:export-filename="/home/trevor/longterm/lunar/lunar-website/assets/images/icon-01.png"
             inkscape:export-xdpi="96"
             inkscape:export-ydpi="96" /><path
             inkscape:export-ydpi="96"
             inkscape:export-xdpi="96"
             inkscape:export-filename="/home/trevor/longterm/lunar/lunar-website/assets/images/icon-01.png"
             sodipodi:nodetypes="cccccccccccccccscc"
             d="m 11.163979,448.21815 c -11.27190693,-0.0376 -17.9747373,2.04039 -27.640509,4.65295 21.7449654,-1.90419 32.232655,-2.01266 38.920648,0.38793 -12.934097,-0.36591 -22.12590121,0.18066 -46.553059,5.89747 16.8867269,-2.31685 25.6034242,-2.29017 38.074128,-1.65748 -14.02060638,0.89669 -25.19951,3.11501 -43.677206,9.00238 22.4244371,-4.89486 34.6608919,-4.85746 48.642356,-4.54141 -14.8796824,1.18146 -29.777568,3.63403 -53.209419,12.85419 27.5382544,-7.95936 39.5061224,-6.24022 53.00539,-6.24695 -0.938142,1.35591 0.631316,-1.68892 0,0 -5.951386,28.77205 -8.262136,44.70207 -5.028898,80.41456 31.249789,12.08395 32.851719,-16.41738 69.957814,-19.49931 -0.868899,-20.94795 -0.538942,-15.38249 -4.281387,-34.51139 8.268022,0.20124 22.224043,-4.37258 22.224043,-4.37258 6.83711,-1.72864 7.0242,-4.6321 17.68711,-5.62816 0,0 -5.22382,-8.49392 -16.30669,-13.71399 -4.143206,-1.9512 -13.389684,-4.95914 -25.807576,-6.78998 C 59.413982,448.7349 27.127015,448.36733 11.163979,448.21815 Z"
             style="fill:#0d3059;fill-opacity:1;stroke:none;stroke-width:8.81124173;stroke-linecap:square;stroke-miterlimit:4;stroke-dasharray:none;stroke-opacity:1;paint-order:stroke fill markers"
             id="path1934" /></g></g></g><g
       id="g3"
       transform="matrix(0.58071089,0,0,0.58020266,624.27687,442.02006)"
       style="stroke-width:10.33668799;stroke-dasharray:none;paint-order:markers fill stroke"><path
         style="display:inline;fill:none;stroke:#808080;stroke-width:10.33668799;stroke-linecap:round;paint-order:markers fill stroke;stroke-dasharray:none"
         d="m 638.70101,204.45596 c 10.61258,40.20168 7.1689,75.94999 -2.44835,115.2972"
         id="path16"
         sodipodi:nodetypes="cc"
         inkscape:transform-center-x="-2.6438717"
         inkscape:transform-center-y="62.150922"
         transform="translate(107.62772,49.801723)" /><path
         style="display:inline;fill:#cccccc;fill-opacity:1;stroke:#808080;stroke-width:10.33668799;stroke-linecap:round;stroke-dasharray:none;paint-order:markers fill stroke"
         d="m 624.27133,429.72964 c 25.56207,61.09639 68.05114,144.58547 67.04543,215.50687 -8.51323,36.94943 -26.53079,-25.0493 -42.23169,-31.20211 z"
         id="path11"
         sodipodi:nodetypes="cccc"
         transform="translate(107.62772,49.801723)" /><path
         id="path9"
         style="display:inline;fill:#cccccc;fill-opacity:1;stroke:#808080;stroke-width:10.33668799;stroke-linecap:round;stroke-dasharray:none;stroke-opacity:1;paint-order:markers fill stroke"
         d="m 391.66018,334.35062 c -37.39743,171.93404 -26.02796,448.93883 -14.0957,462.37695 1.73551,10.73014 56.43565,42.88081 75.31392,48.42638 h 28.51622 88.6032 c 24.69281,-17.28966 50.62768,-44.42605 50.62768,-44.42605 60.42718,-81.09793 39.07984,-284.77718 -7.77196,-466.37728 z"
         sodipodi:nodetypes="cccccccc"
         transform="translate(107.62772,49.801723)" /><path
         style="display:inline;fill:#b3b3b3;fill-opacity:1;stroke:#808080;stroke-width:10.3367;stroke-linecap:round;stroke-dasharray:none;paint-order:markers fill stroke"
         d="m 569.99782,845.15395 119.04898,-10e-6 c 5.23252,-5.22014 -1.38537,-20.50055 -8.40401,-25.75772 -10.29562,-7.71172 -29.64076,-13.65593 -60.01729,-18.66832 -28.28994,11.01861 -41.11469,24.55851 -50.62768,44.42605 z"
         id="path13"
         sodipodi:nodetypes="ccscc"
         transform="translate(107.62772,49.801723)" /><path
         style="display:inline;fill:#4d4d4d;fill-opacity:1;stroke:none;stroke-width:10.33668799;stroke-linecap:round;stroke-dasharray:none;paint-order:markers fill stroke"
         d="m 418.44945,250.47986 c 32.89966,-67.9393 134.89222,-64.27078 157.71567,-31.79595 131.63261,248.87986 -184.50494,115.66671 -157.71567,31.79595 z"
         id="path85746"
         sodipodi:nodetypes="ccc"
         transform="translate(107.62772,49.801723)" /><path
         style="display:inline;fill:#ffe680;stroke:none;stroke-width:10.3367;stroke-linecap:round;stroke-dasharray:none;paint-order:markers fill stroke"
         d="m 546.78532,252.10363 c 0,0 -37.20768,16.70093 -49.21369,11.28361 -24.2174,-10.92732 -4.80311,-18.58194 11.76325,-19.76214 16.40059,-0.69188 37.45044,8.47853 37.45044,8.47853 z"
         id="path85756"
         sodipodi:nodetypes="cscc"
         transform="translate(107.62772,49.801723)" /><path
         style="display:inline;fill:#ffe680;stroke:none;stroke-width:10.3367;stroke-linecap:round;stroke-dasharray:none;paint-order:markers fill stroke"
         d="m 568.03636,251.10363 c 0,0 3.96124,-5.89781 13.75444,-3.98786 8.29281,1.61733 3.90461,12.68935 0.18946,12.74536 -3.32307,0.0501 -13.9439,-8.7575 -13.9439,-8.7575 z"
         id="path85758"
         sodipodi:nodetypes="cssc"
         transform="translate(107.62772,49.801723)" /><path
         id="path4"
         style="display:inline;fill:#cccccc;fill-opacity:1;stroke:#808080;stroke-width:10.33668799;stroke-linecap:round;stroke-linejoin:round;paint-order:markers fill stroke;stroke-dasharray:none"
         d="m 505.62123,115.40653 c -79.77162,3.4e-4 -144.43923,64.66791 -144.4396,144.43953 -5.5e-4,79.77226 64.6673,144.44085 144.4396,144.44118 55.52888,-0.0721 106.10008,-31.97059 130.08443,-82.05262 -46.76282,8.22894 -104.62555,5.42892 -146.54674,-0.0333 0,0 -35.74222,-38.07852 -35.74222,-61.90669 0,-22.50955 33.76487,-58.48201 33.76487,-58.48201 45.22038,-7.32993 105.44059,-5.55388 150.66096,-0.005 -23.0291,-52.48169 -74.9093,-86.38321 -132.2213,-86.40117 z"
         sodipodi:nodetypes="sscccsccss"
         transform="translate(107.62772,49.801723)" /><ellipse
         style="display:inline;fill:#e6e6e6;fill-opacity:1;stroke:#808080;stroke-width:10.33668799;stroke-linecap:round;stroke-linejoin:round;stroke-opacity:1;paint-order:markers fill stroke;stroke-dasharray:none"
         id="path17"
         cx="539.92303"
         cy="613.35913"
         rx="73.57003"
         ry="158.28941"
         transform="translate(107.62772,49.801723)" /><path
         style="display:inline;fill:none;stroke:#808080;stroke-width:10.33668799;stroke-linecap:round;paint-order:markers fill stroke;stroke-dasharray:none"
         d="m 535.48373,399.13211 c 25.95598,-18.82249 41.03269,-44.59143 51.05034,-73.59058"
         id="path5"
         sodipodi:nodetypes="cc"
         transform="translate(107.62772,49.801723)" /><path
         style="display:inline;fill:none;stroke:#808080;stroke-width:10.33668799;stroke-linecap:round;paint-order:markers fill stroke;stroke-dasharray:none"
         d="m 526.23548,116.64909 c 27.82039,20.09391 43.98005,47.60348 54.71726,78.56145"
         id="path6"
         sodipodi:nodetypes="cc"
         transform="translate(107.62772,49.801723)" /><path
         style="display:inline;fill:#b3b3b3;fill-opacity:1;stroke:#808080;stroke-width:10.33668799;stroke-linecap:round;stroke-dasharray:none;paint-order:markers fill stroke"
         d="m 452.8784,845.15395 -103.86013,-10e-6 c -8.56686,-13.77071 21.35588,-46.58874 28.54621,-48.42637 61.25879,-5.57949 75.9817,22.91884 75.31392,48.42638 z"
         id="path14"
         sodipodi:nodetypes="cccc"
         transform="translate(107.62772,49.801723)" /><path
         style="display:inline;fill:#cccccc;fill-opacity:1;stroke:#808080;stroke-width:10.3367;stroke-linecap:round;stroke-linejoin:round;stroke-dasharray:none;paint-order:markers fill stroke"
         d="m 386.32137,427.59445 c -25.56207,61.09639 -68.05114,144.58547 -67.04543,215.50687 8.51323,36.94943 32.53079,-27.0493 48.23169,-33.20211 15.08784,-65.85536 18.90856,-125.20968 18.81374,-182.30476 z"
         id="path12"
         sodipodi:nodetypes="cccc"
         transform="translate(107.62772,49.801723)" /><path
         style="display:inline;fill:#e6e6e6;fill-opacity:1;stroke:#808080;stroke-width:10.33668799;stroke-linecap:round;stroke-linejoin:round;stroke-opacity:1;paint-order:markers fill stroke;stroke-dasharray:none"
         d="M 400.82925,237.18478 V 80.59053"
         id="path19"
         transform="translate(107.62772,49.801723)" /><path
         style="display:inline;fill:none;stroke:#808080;stroke-width:10.33668799;stroke-linecap:round;stroke-opacity:1;paint-order:markers fill stroke;stroke-dasharray:none"
         d="m 539.83198,722.81585 c 8.04704,-108.51419 6.11958,-209.5749 -4.34825,-323.68371"
         id="path7"
         sodipodi:nodetypes="cc"
         transform="translate(107.62772,49.801723)" /><ellipse
         style="display:inline;fill:#e6e6e6;fill-opacity:1;stroke:#808080;stroke-width:10.33668799;stroke-linecap:round;stroke-linejoin:round;stroke-opacity:1;paint-order:markers fill stroke;stroke-dasharray:none"
         id="path18"
         cx="408.30701"
         cy="256.94385"
         rx="29.279129"
         ry="46.363575"
         transform="translate(107.62772,49.801723)" /><path
         style="display:inline;fill:#4d4d4d;fill-opacity:1;stroke:none;stroke-width:10.3367;stroke-linecap:round;stroke-dasharray:none;paint-order:markers fill stroke"
         d="m 557.77675,256.16643 c 0,0 48.06744,-8.02451 66.53161,11.78999 l 22.30649,23.93783 c -43.7865,-3.03363 -56.1699,16.28811 -99.05609,-9.34294 -6.45829,-16.78494 2.4522,-13.34911 10.21799,-26.38488 z"
         id="path85748"
         sodipodi:nodetypes="csccc"
         transform="translate(107.62772,49.801723)" /></g><rect
       style="display:inline;fill:#1a1a1a;fill-opacity:0.85000002;stroke-width:7.99999;paint-order:stroke fill markers"
       id="rect2"
       width="2047.9999"
       height="1920"
       x="-423.45724"
       y="-834.78723" /></g></svg>
