<?xml version="1.0" encoding="UTF-8" standalone="no"?>
<svg
   sodipodi:docname="close-button.svg"
   inkscape:version="1.1 (c68e22c387, 2021-05-23)"
   id="svg8"
   version="1.1"
   viewBox="0 0 300 300"
   height="300"
   width="300"
   xmlns:inkscape="http://www.inkscape.org/namespaces/inkscape"
   xmlns:sodipodi="http://sodipodi.sourceforge.net/DTD/sodipodi-0.dtd"
   xmlns="http://www.w3.org/2000/svg"
   xmlns:svg="http://www.w3.org/2000/svg"
   xmlns:rdf="http://www.w3.org/1999/02/22-rdf-syntax-ns#"
   xmlns:cc="http://creativecommons.org/ns#"
   xmlns:dc="http://purl.org/dc/elements/1.1/">
  <defs
     id="defs2" />
  <sodipodi:namedview
     inkscape:window-maximized="1"
     inkscape:window-y="1"
     inkscape:window-x="1961"
     inkscape:window-height="1046"
     inkscape:window-width="2519"
     showborder="false"
     units="px"
     showgrid="false"
     inkscape:document-rotation="0"
     inkscape:current-layer="layer1"
     inkscape:document-units="px"
     inkscape:cy="610"
     inkscape:cx="1412.8571"
     inkscape:zoom="0.35"
     inkscape:pageshadow="0"
     inkscape:pageopacity="0.0"
     borderopacity="1.0"
     bordercolor="#666666"
     pagecolor="#ffffff"
     id="base"
     inkscape:pagecheckerboard="1"
     fit-margin-top="0"
     fit-margin-left="0"
     fit-margin-right="0"
     fit-margin-bottom="0" />
  <metadata
     id="metadata5">
    <rdf:RDF>
      <cc:Work
         rdf:about="">
        <dc:format>image/svg+xml</dc:format>
        <dc:type
           rdf:resource="http://purl.org/dc/dcmitype/StillImage" />
      </cc:Work>
    </rdf:RDF>
  </metadata>
  <g
     id="layer1"
     inkscape:groupmode="layer"
     inkscape:label="Layer 1"
     transform="translate(1012.7215,49.278358)">
    <g
       id="g3213">
      <circle
         style="fill:#550000;stroke:#957e51;stroke-width:0.697158;stroke-linecap:round;stroke-linejoin:round;paint-order:stroke fill markers"
         id="path2902"
         cx="-862.7215"
         cy="100.72165"
         r="149.65143" />
      <path
         id="rect2926"
         style="fill:#e6e6e6;stroke:#957e51;stroke-width:0.63443;stroke-linecap:round;stroke-linejoin:round;paint-order:stroke fill markers"
         d="m -794.04928,3.767648 c -1.65922,-1.6592226 -4.33098,-1.6587417 -5.9902,3.482e-4 l -62.68219,62.6823278 -62.6822,-62.6821919 c -1.65923,-1.6592258 -4.3305,-1.6592292 -5.98972,-7e-6 l -28.28148,28.2814879 c -1.65923,1.659226 -1.65971,4.330986 -3.5e-4,5.990204 l 62.68218,62.682193 -62.6817,62.68171 c -1.65922,1.65923 -1.6597,4.33098 -3.5e-4,5.9902 l 28.28148,28.28149 c 1.65922,1.65922 4.33146,1.65922 5.99068,0 l 62.68172,-62.68171 62.68171,62.68171 c 1.65922,1.65923 4.33146,1.65922 5.99068,0 l 28.28148,-28.28149 c 1.65923,-1.65922 1.65875,-4.33097 -3.5e-4,-5.9902 l -62.6821,-62.68171 62.68219,-62.682189 c 1.65923,-1.659222 1.65922,-4.331466 0,-5.990688 z" />
    </g>
  </g>
</svg>
