<?xml version="1.0" encoding="UTF-8" standalone="no"?>
<!-- Created with Inkscape (http://www.inkscape.org/) -->

<svg
   version="1.1"
   id="svg944"
   width="2048"
   height="1506.4849"
   viewBox="0 0 2048 1506.4848"
   sodipodi:docname="lunar_bg-02-light.svg"
   inkscape:version="1.1 (c68e22c387, 2021-05-23)"
   xmlns:inkscape="http://www.inkscape.org/namespaces/inkscape"
   xmlns:sodipodi="http://sodipodi.sourceforge.net/DTD/sodipodi-0.dtd"
   xmlns="http://www.w3.org/2000/svg"
   xmlns:svg="http://www.w3.org/2000/svg">
  <defs
     id="defs948" />
  <sodipodi:namedview
     id="namedview946"
     pagecolor="#505050"
     bordercolor="#ffffff"
     borderopacity="1"
     inkscape:pageshadow="0"
     inkscape:pageopacity="0"
     inkscape:pagecheckerboard="1"
     showgrid="false"
     inkscape:snap-bbox="false"
     inkscape:snap-nodes="false"
     inkscape:bbox-paths="true"
     inkscape:bbox-nodes="true"
     inkscape:snap-bbox-edge-midpoints="true"
     showguides="true"
     inkscape:guide-bbox="true"
     inkscape:zoom="0.23342026"
     inkscape:cx="974.6369"
     inkscape:cy="23.56265"
     inkscape:window-width="2519"
     inkscape:window-height="1046"
     inkscape:window-x="1961"
     inkscape:window-y="1"
     inkscape:window-maximized="1"
     inkscape:current-layer="g950"
     inkscape:snap-intersection-paths="true"
     inkscape:snap-smooth-nodes="true"
     inkscape:snap-global="true"
     inkscape:snap-midpoints="true"
     inkscape:object-paths="true"
     fit-margin-top="0"
     fit-margin-left="0"
     fit-margin-right="0"
     fit-margin-bottom="0"
     showborder="false">
    <sodipodi:guide
       position="-2.3889095e-13,1417.5596"
       orientation="0,-1"
       id="guide34646" />
  </sodipodi:namedview>
  <g
     inkscape:groupmode="layer"
     inkscape:label="Image"
     id="g950"
     transform="translate(-4355.4595,-935.07479)">
    <path
       id="rect1056"
       style="fill:#8a97a8;fill-opacity:1;stroke:none;stroke-width:0.461726;stroke-linecap:round;stroke-linejoin:round;paint-order:stroke fill markers"
       d="m 4407.3572,998.2273 c 45.4415,-6.9908 42.6465,-8.9669 88.0279,-15.015 7.6852,1.3794 28.0839,-0.4877 50.3375,-2.9158 22.2536,-2.4281 46.3623,-5.4172 63.4463,-9.1074 7.058,-0.5784 23.2198,1.5175 36.9254,-2.4801 9.6175,-1.0525 20.9977,2.6179 42.7084,-3.9188 12.3576,-0.4937 21.3886,-2.5424 32.25,-4.0623 5.7138,0.8901 18.6278,-4.2047 30.0293,-5.2536 2.1457,-0.061 11.8194,-1.3017 22.5555,1.6309 5.4084,-0.4378 9.8844,-1.623 19.873,-0.8472 8.1224,0.6309 17.0799,-2.1371 31.0011,-1.4764 10.1224,0.4805 7.4325,-2.1013 18.8549,-2.918 11.4548,-0.8178 17.0527,-0.3291 32.3969,-0.9567 15.3443,-0.6276 14.5378,3.2904 32.878,2.5049 18.3402,-0.7855 41.6009,-3.2896 60.0739,-2.9651 15.3332,-0.5659 28.3674,-4.2109 49.3242,-1.9325 16.1788,0.2586 45.3518,-0.3814 77.3858,-2.4709 32.0339,-2.0895 66.9289,-5.6285 98.0676,-7.7913 24.5011,1.5148 54.5006,0.6474 100.5905,-1.6497 45.9048,-0.448 93.5375,-5.0401 127.2727,4.253 13.637,-1.0462 17.8311,-2.5512 38.4818,-0.9884 10.7215,2.6 39.9312,2.2982 67.7213,-1.2445 32.2533,-0.5821 30.9893,5.2717 57.2773,4.6686 46.8898,4.2059 87.1698,5.0817 150.1529,6.2794 45.8165,2.3613 116.5998,8.7057 127.7428,6.6121 36.7863,-1.551 38.881,5.6159 68.6105,4.3941 23.8048,1.5847 38.2123,7.3962 74.2173,5.1281 16.1691,1.4367 12.8137,3.4854 28.023,4.4353 22.0575,1.3777 48.5478,3.5793 105.1336,9.7042 45.5658,5.1006 71.9906,5.8164 134.163,15.6721 22.7248,2.9984 53.4243,8.1554 71.0804,8.5544 43.6599,2.7578 40.1418,7.5332 59.4995,6.7403 V 2441.5596 H 4356.26 l -0.8005,-1431.362"
       sodipodi:nodetypes="ccsccccccsscccccsccccccccccsccccccc" />
    <g
       id="g78597"
       transform="matrix(1.074937,0,0,1.0289267,-403.1053,449.46621)"
       style="stroke-width:0.950859">
      <ellipse
         style="fill:#8a97a8;fill-opacity:1;stroke:none;stroke-width:0.16003;stroke-linecap:round;stroke-linejoin:round;paint-order:stroke fill markers"
         id="circle29063"
         cx="5659.6025"
         cy="913.4574"
         transform="matrix(0.99876627,0.04965818,0.43253972,0.90161488,0,0)"
         rx="242.0206"
         ry="124.09982" />
      <path
         id="path29065"
         style="fill:#8493a4;fill-opacity:1;stroke:none;stroke-width:0.150038;stroke-linecap:round;stroke-linejoin:round;paint-order:stroke fill markers"
         d="m 6278.9496,1100.1592 c -14.5654,36.8239 -65.5659,64.0838 -137.8439,73.3951 -78.7119,10.1402 -215.2172,-4.4112 -277.6062,-24.827 59.535,37.4248 150.4904,63.3442 237.9053,67.7953 64.1087,3.1875 119.9363,-5.544 155.2014,-24.2736 35.2651,-18.7296 47.079,-45.9231 32.8428,-75.5982 -2.6447,-5.4768 -6.1539,-10.9888 -10.4994,-16.4916 z"
         sodipodi:nodetypes="caccscc" />
      <path
         id="path29067"
         style="fill:#8f9ead;fill-opacity:1;stroke:none;stroke-width:0.150038;stroke-linecap:round;stroke-linejoin:round;paint-order:stroke fill markers"
         d="m 5994.0486,992.74214 a 250.78245,105.27538 10.060392 0 0 -188.0441,99.87206 250.78245,105.27538 10.060392 0 0 57.5848,56.1427 267.18741,112.16198 10.060392 0 1 200.5087,-105.906 267.18741,112.16198 10.060392 0 1 205.6458,46.9022 250.78245,105.27538 10.060392 0 0 -275.6952,-97.01096 z" />
      <g
         id="g29077"
         transform="matrix(0.03262684,-0.00583029,0.00865568,0.01834031,5816.0126,1051.0916)"
         style="stroke-width:0.950859">
        <circle
           style="fill:#8a97a8;fill-opacity:1;stroke:none;stroke-width:1.06516;stroke-linecap:round;stroke-linejoin:round;paint-order:stroke fill markers"
           id="circle29071"
           cx="5394.5347"
           cy="5991.8755"
           r="1153.5209" />
        <path
           id="path29073"
           style="fill:#8493a4;fill-opacity:1;stroke:none;stroke-width:1.06516;stroke-linecap:round;stroke-linejoin:round;paint-order:stroke fill markers"
           d="m 6535.4062,5823.217 c -157.5693,396.557 -470.8283,711.2378 -846.0115,847.5306 -408.5813,148.4254 -1041.7879,66.4234 -1298.908,-116.4332 203.2763,363.9928 587.142,589.9739 1004.0482,591.0818 305.9327,2e-4 599.3353,-121.5308 815.6626,-337.8577 216.3273,-216.3269 337.8589,-509.7293 337.8592,-815.662 -0.084,-56.4537 -4.3122,-112.8249 -12.6505,-168.6595 z"
           sodipodi:nodetypes="caccscc" />
        <path
           id="path29075"
           style="fill:#8f9ead;fill-opacity:1;stroke:none;stroke-width:1.06516;stroke-linecap:round;stroke-linejoin:round;paint-order:stroke fill markers"
           d="m 5394.5349,4838.3547 a 1153.5209,1153.5209 0 0 0 -1153.522,1153.5218 1153.5209,1153.5209 0 0 0 149.8436,562.7026 1228.9786,1228.9786 0 0 1 1228.6088,-1223.7933 1228.9786,1228.9786 0 0 1 895.3418,387.3633 1153.5209,1153.5209 0 0 0 -1120.2722,-879.7944 z" />
      </g>
    </g>
    <g
       id="g78646"
       transform="matrix(1.0468689,0.02780453,-0.03113959,0.93474863,-200.12019,365.82104)"
       style="stroke-width:1.01045">
      <ellipse
         style="fill:#8a97a8;fill-opacity:1;stroke:none;stroke-width:0.0361242;stroke-linecap:round;stroke-linejoin:round;paint-order:stroke fill markers"
         id="circle29079"
         cx="5656.8623"
         cy="946.92273"
         transform="matrix(0.99991787,0.01281591,0.43011537,0.90277393,0,0)"
         rx="50.76543"
         ry="26.696281" />
      <path
         id="path29081"
         style="fill:#8493a4;fill-opacity:1;stroke:none;stroke-width:0.0342169;stroke-linecap:round;stroke-linejoin:round;paint-order:stroke fill markers"
         d="m 6112.2097,924.47467 c -2.9865,8.19646 -13.6392,14.59446 -28.7926,17.23044 -16.5023,2.87063 -45.1832,0.80021 -58.3181,-3.16527 12.5686,7.71962 31.7103,12.65759 50.0675,12.91588 13.4627,0.17255 25.1642,-2.20113 32.5305,-6.59887 7.3662,-4.39775 9.7936,-10.45931 6.7483,-16.85121 -0.5657,-1.17954 -1.3129,-2.3597 -2.2356,-3.53097 z"
         sodipodi:nodetypes="caccscc" />
      <path
         id="path29083"
         style="fill:#8f9ead;fill-opacity:1;stroke:none;stroke-width:0.0342169;stroke-linecap:round;stroke-linejoin:round;paint-order:stroke fill markers"
         d="m 6052.2015,903.25431 a 52.466569,23.174983 8.1184917 0 0 -39.2788,23.45012 52.466569,23.174983 8.1184917 0 0 12.1952,11.84115 55.898676,24.690977 8.1184917 0 1 41.8836,-24.87596 55.898676,24.690977 8.1184917 0 1 43.2559,8.59823 52.466569,23.174983 8.1184917 0 0 -58.0559,-19.01354 z" />
    </g>
    <g
       id="g29093"
       transform="matrix(0.04492166,0.00235865,0.01003729,0.01387745,5968.893,1106.5784)"
       style="stroke-width:1.13017">
      <circle
         style="fill:#8a97a8;fill-opacity:1;stroke:none;stroke-width:1.26602;stroke-linecap:round;stroke-linejoin:round;paint-order:stroke fill markers"
         id="circle29087"
         cx="5394.5347"
         cy="5991.8755"
         r="1153.5209" />
      <path
         id="path29089"
         style="fill:#8493a4;fill-opacity:1;stroke:none;stroke-width:1.26602;stroke-linecap:round;stroke-linejoin:round;paint-order:stroke fill markers"
         d="m 6535.4062,5823.217 c -157.5693,396.557 -470.8283,711.2378 -846.0115,847.5306 -408.5813,148.4254 -1041.7879,66.4234 -1298.908,-116.4332 203.2763,363.9928 587.142,589.9739 1004.0482,591.0818 305.9327,2e-4 599.3353,-121.5308 815.6626,-337.8577 216.3273,-216.3269 337.8589,-509.7293 337.8592,-815.662 -0.084,-56.4537 -4.3122,-112.8249 -12.6505,-168.6595 z"
         sodipodi:nodetypes="caccscc" />
      <path
         id="path29091"
         style="fill:#8f9ead;fill-opacity:1;stroke:none;stroke-width:1.26602;stroke-linecap:round;stroke-linejoin:round;paint-order:stroke fill markers"
         d="m 5394.5349,4838.3547 a 1153.5209,1153.5209 0 0 0 -1153.522,1153.5218 1153.5209,1153.5209 0 0 0 149.8436,562.7026 1228.9786,1228.9786 0 0 1 1228.6088,-1223.7933 1228.9786,1228.9786 0 0 1 895.3418,387.3633 1153.5209,1153.5209 0 0 0 -1120.2722,-879.7944 z" />
    </g>
    <g
       id="g29101"
       transform="matrix(0.03613052,-1.3720506e-4,0.00904833,0.01183657,5260.4879,1041.5412)">
      <circle
         style="fill:#8a97a8;fill-opacity:1;stroke:none;stroke-width:1.12021;stroke-linecap:round;stroke-linejoin:round;paint-order:stroke fill markers"
         id="circle29095"
         cx="5394.5347"
         cy="5991.8755"
         r="1153.5209" />
      <path
         id="path29097"
         style="fill:#8493a4;fill-opacity:1;stroke:none;stroke-width:1.12021;stroke-linecap:round;stroke-linejoin:round;paint-order:stroke fill markers"
         d="m 6535.4062,5823.217 c -157.5693,396.557 -470.8283,711.2378 -846.0115,847.5306 -408.5813,148.4254 -1041.7879,66.4234 -1298.908,-116.4332 203.2763,363.9928 587.142,589.9739 1004.0482,591.0818 305.9327,2e-4 599.3353,-121.5308 815.6626,-337.8577 216.3273,-216.3269 337.8589,-509.7293 337.8592,-815.662 -0.084,-56.4537 -4.3122,-112.8249 -12.6505,-168.6595 z"
         sodipodi:nodetypes="caccscc" />
      <path
         id="path29099"
         style="fill:#8f9ead;fill-opacity:1;stroke:none;stroke-width:1.12021;stroke-linecap:round;stroke-linejoin:round;paint-order:stroke fill markers"
         d="m 5394.5349,4838.3547 a 1153.5209,1153.5209 0 0 0 -1153.522,1153.5218 1153.5209,1153.5209 0 0 0 149.8436,562.7026 1228.9786,1228.9786 0 0 1 1228.6088,-1223.7933 1228.9786,1228.9786 0 0 1 895.3418,387.3633 1153.5209,1153.5209 0 0 0 -1120.2722,-879.7944 z" />
    </g>
    <g
       id="g29109"
       transform="matrix(0.06171449,-0.00136713,0.0160613,0.01299675,5179.4186,957.543)">
      <circle
         style="fill:#8a97a8;fill-opacity:1;stroke:none;stroke-width:1.12021;stroke-linecap:round;stroke-linejoin:round;paint-order:stroke fill markers"
         id="circle29103"
         cx="5394.5347"
         cy="5991.8755"
         r="1153.5209" />
      <path
         id="path29105"
         style="fill:#8493a4;fill-opacity:1;stroke:none;stroke-width:1.12021;stroke-linecap:round;stroke-linejoin:round;paint-order:stroke fill markers"
         d="m 6535.4062,5823.217 c -157.5693,396.557 -470.8283,711.2378 -846.0115,847.5306 -408.5813,148.4254 -1041.7879,66.4234 -1298.908,-116.4332 203.2763,363.9928 587.142,589.9739 1004.0482,591.0818 305.9327,2e-4 599.3353,-121.5308 815.6626,-337.8577 216.3273,-216.3269 337.8589,-509.7293 337.8592,-815.662 -0.084,-56.4537 -4.3122,-112.8249 -12.6505,-168.6595 z"
         sodipodi:nodetypes="caccscc" />
      <path
         id="path29107"
         style="fill:#8f9ead;fill-opacity:1;stroke:none;stroke-width:1.12021;stroke-linecap:round;stroke-linejoin:round;paint-order:stroke fill markers"
         d="m 5394.5349,4838.3547 a 1153.5209,1153.5209 0 0 0 -1153.522,1153.5218 1153.5209,1153.5209 0 0 0 149.8436,562.7026 1228.9786,1228.9786 0 0 1 1228.6088,-1223.7933 1228.9786,1228.9786 0 0 1 895.3418,387.3633 1153.5209,1153.5209 0 0 0 -1120.2722,-879.7944 z" />
    </g>
    <g
       id="g29117"
       transform="matrix(0.05971773,-0.00597266,0.00835024,0.0382817,4699.6579,1864.6277)"
       style="stroke-width:0.954488">
      <circle
         style="fill:#8a97a8;fill-opacity:1;stroke:none;stroke-width:1.06923;stroke-linecap:round;stroke-linejoin:round;paint-order:stroke fill markers"
         id="circle29111"
         cx="5394.5347"
         cy="5991.8755"
         r="1153.5209" />
      <path
         id="path29113"
         style="fill:#8493a4;fill-opacity:1;stroke:none;stroke-width:1.06923;stroke-linecap:round;stroke-linejoin:round;paint-order:stroke fill markers"
         d="m 6535.4062,5823.217 c -157.5693,396.557 -470.8283,711.2378 -846.0115,847.5306 -408.5813,148.4254 -1041.7879,66.4234 -1298.908,-116.4332 203.2763,363.9928 587.142,589.9739 1004.0482,591.0818 305.9327,2e-4 599.3353,-121.5308 815.6626,-337.8577 216.3273,-216.3269 337.8589,-509.7293 337.8592,-815.662 -0.084,-56.4537 -4.3122,-112.8249 -12.6505,-168.6595 z"
         sodipodi:nodetypes="caccscc" />
      <path
         id="path29115"
         style="fill:#8f9ead;fill-opacity:1;stroke:none;stroke-width:1.06923;stroke-linecap:round;stroke-linejoin:round;paint-order:stroke fill markers"
         d="m 5394.5349,4838.3547 a 1153.5209,1153.5209 0 0 0 -1153.522,1153.5218 1153.5209,1153.5209 0 0 0 149.8436,562.7026 1228.9786,1228.9786 0 0 1 1228.6088,-1223.7933 1228.9786,1228.9786 0 0 1 895.3418,387.3633 1153.5209,1153.5209 0 0 0 -1120.2722,-879.7944 z" />
    </g>
    <g
       id="g29133"
       transform="matrix(0.0337318,-0.00154401,0.00406111,0.01414816,4722.3981,1260.9696)">
      <circle
         style="fill:#8a97a8;fill-opacity:1;stroke:none;stroke-width:1.12021;stroke-linecap:round;stroke-linejoin:round;paint-order:stroke fill markers"
         id="circle29127"
         cx="5394.5347"
         cy="5991.8755"
         r="1153.5209" />
      <path
         id="path29129"
         style="fill:#8493a4;fill-opacity:1;stroke:none;stroke-width:1.12021;stroke-linecap:round;stroke-linejoin:round;paint-order:stroke fill markers"
         d="m 6535.4062,5823.217 c -157.5693,396.557 -470.8283,711.2378 -846.0115,847.5306 -408.5813,148.4254 -1041.7879,66.4234 -1298.908,-116.4332 203.2763,363.9928 587.142,589.9739 1004.0482,591.0818 305.9327,2e-4 599.3353,-121.5308 815.6626,-337.8577 216.3273,-216.3269 337.8589,-509.7293 337.8592,-815.662 -0.084,-56.4537 -4.3122,-112.8249 -12.6505,-168.6595 z"
         sodipodi:nodetypes="caccscc" />
      <path
         id="path29131"
         style="fill:#8f9ead;fill-opacity:1;stroke:none;stroke-width:1.12021;stroke-linecap:round;stroke-linejoin:round;paint-order:stroke fill markers"
         d="m 5394.5349,4838.3547 a 1153.5209,1153.5209 0 0 0 -1153.522,1153.5218 1153.5209,1153.5209 0 0 0 149.8436,562.7026 1228.9786,1228.9786 0 0 1 1228.6088,-1223.7933 1228.9786,1228.9786 0 0 1 895.3418,387.3633 1153.5209,1153.5209 0 0 0 -1120.2722,-879.7944 z" />
    </g>
    <g
       id="g29141"
       transform="matrix(0.0337318,-0.00140703,0.00406111,0.01289298,4793.6568,1109.7118)"
       style="stroke-width:1.04755">
      <circle
         style="fill:#8a97a8;fill-opacity:1;stroke:none;stroke-width:1.17347;stroke-linecap:round;stroke-linejoin:round;paint-order:stroke fill markers"
         id="circle29135"
         cx="5394.5347"
         cy="5991.8755"
         r="1153.5209" />
      <path
         id="path29137"
         style="fill:#8493a4;fill-opacity:1;stroke:none;stroke-width:1.17347;stroke-linecap:round;stroke-linejoin:round;paint-order:stroke fill markers"
         d="m 6535.4062,5823.217 c -157.5693,396.557 -470.8283,711.2378 -846.0115,847.5306 -408.5813,148.4254 -1041.7879,66.4234 -1298.908,-116.4332 203.2763,363.9928 587.142,589.9739 1004.0482,591.0818 305.9327,2e-4 599.3353,-121.5308 815.6626,-337.8577 216.3273,-216.3269 337.8589,-509.7293 337.8592,-815.662 -0.084,-56.4537 -4.3122,-112.8249 -12.6505,-168.6595 z"
         sodipodi:nodetypes="caccscc" />
      <path
         id="path29139"
         style="fill:#8f9ead;fill-opacity:1;stroke:none;stroke-width:1.17347;stroke-linecap:round;stroke-linejoin:round;paint-order:stroke fill markers"
         d="m 5394.5349,4838.3547 a 1153.5209,1153.5209 0 0 0 -1153.522,1153.5218 1153.5209,1153.5209 0 0 0 149.8436,562.7026 1228.9786,1228.9786 0 0 1 1228.6088,-1223.7933 1228.9786,1228.9786 0 0 1 895.3418,387.3633 1153.5209,1153.5209 0 0 0 -1120.2722,-879.7944 z" />
    </g>
    <g
       id="g29149"
       transform="matrix(0.03367973,-0.00210735,0.00435838,0.00869926,4891.5379,977.1481)">
      <circle
         style="fill:#8a97a8;fill-opacity:1;stroke:none;stroke-width:1.12021;stroke-linecap:round;stroke-linejoin:round;paint-order:stroke fill markers"
         id="circle29143"
         cx="5394.5347"
         cy="5991.8755"
         r="1153.5209" />
      <path
         id="path29145"
         style="fill:#8493a4;fill-opacity:1;stroke:none;stroke-width:1.12021;stroke-linecap:round;stroke-linejoin:round;paint-order:stroke fill markers"
         d="m 6535.4062,5823.217 c -157.5693,396.557 -470.8283,711.2378 -846.0115,847.5306 -408.5813,148.4254 -1041.7879,66.4234 -1298.908,-116.4332 203.2763,363.9928 587.142,589.9739 1004.0482,591.0818 305.9327,2e-4 599.3353,-121.5308 815.6626,-337.8577 216.3273,-216.3269 337.8589,-509.7293 337.8592,-815.662 -0.084,-56.4537 -4.3122,-112.8249 -12.6505,-168.6595 z"
         sodipodi:nodetypes="caccscc" />
      <path
         id="path29147"
         style="fill:#8f9ead;fill-opacity:1;stroke:none;stroke-width:1.12021;stroke-linecap:round;stroke-linejoin:round;paint-order:stroke fill markers"
         d="m 5394.5349,4838.3547 a 1153.5209,1153.5209 0 0 0 -1153.522,1153.5218 1153.5209,1153.5209 0 0 0 149.8436,562.7026 1228.9786,1228.9786 0 0 1 1228.6088,-1223.7933 1228.9786,1228.9786 0 0 1 895.3418,387.3633 1153.5209,1153.5209 0 0 0 -1120.2722,-879.7944 z" />
    </g>
    <g
       id="g29157"
       transform="matrix(0.02682928,-0.00151624,0.00347189,0.0062591,4546.4293,1151.1133)">
      <circle
         style="fill:#8a97a8;fill-opacity:1;stroke:none;stroke-width:1.12021;stroke-linecap:round;stroke-linejoin:round;paint-order:stroke fill markers"
         id="circle29151"
         cx="5394.5347"
         cy="5991.8755"
         r="1153.5209" />
      <path
         id="path29153"
         style="fill:#8493a4;fill-opacity:1;stroke:none;stroke-width:1.12021;stroke-linecap:round;stroke-linejoin:round;paint-order:stroke fill markers"
         d="m 6535.4062,5823.217 c -157.5693,396.557 -470.8283,711.2378 -846.0115,847.5306 -408.5813,148.4254 -1041.7879,66.4234 -1298.908,-116.4332 203.2763,363.9928 587.142,589.9739 1004.0482,591.0818 305.9327,2e-4 599.3353,-121.5308 815.6626,-337.8577 216.3273,-216.3269 337.8589,-509.7293 337.8592,-815.662 -0.084,-56.4537 -4.3122,-112.8249 -12.6505,-168.6595 z"
         sodipodi:nodetypes="caccscc" />
      <path
         id="path29155"
         style="fill:#8f9ead;fill-opacity:1;stroke:none;stroke-width:1.12021;stroke-linecap:round;stroke-linejoin:round;paint-order:stroke fill markers"
         d="m 5394.5349,4838.3547 a 1153.5209,1153.5209 0 0 0 -1153.522,1153.5218 1153.5209,1153.5209 0 0 0 149.8436,562.7026 1228.9786,1228.9786 0 0 1 1228.6088,-1223.7933 1228.9786,1228.9786 0 0 1 895.3418,387.3633 1153.5209,1153.5209 0 0 0 -1120.2722,-879.7944 z" />
    </g>
    <g
       id="g78638"
       transform="translate(59.22172,457.89387)">
      <ellipse
         style="fill:#8a97a8;fill-opacity:1;stroke:none;stroke-width:0.0138956;stroke-linecap:round;stroke-linejoin:round;paint-order:stroke fill markers"
         id="circle29159"
         cx="5922.6421"
         cy="547.44318"
         transform="matrix(0.99882869,0.04838638,0.34815266,0.93743785,0,0)"
         rx="25.361"
         ry="8.0731268" />
      <path
         id="path29161"
         style="fill:#8493a4;fill-opacity:1;stroke:none;stroke-width:0.0133245;stroke-linecap:round;stroke-linejoin:round;paint-order:stroke fill markers"
         d="m 6130.9412,799.8763 c -2.494,2.43412 -8.6064,4.16544 -16.5133,4.66051 -8.6108,0.53914 -22.7158,-0.67248 -28.8077,-2.14569 5.3509,2.60434 14.3312,4.49532 23.4891,4.9461 6.7183,0.32546 12.8653,-0.15976 17.0887,-1.34892 4.2235,-1.18915 6.1774,-2.98483 5.432,-4.992 -0.1394,-0.37047 -0.3696,-0.74481 -0.6888,-1.12 z"
         sodipodi:nodetypes="caccscc" />
      <path
         id="path29163"
         style="fill:#8f9ead;fill-opacity:1;stroke:none;stroke-width:0.0133245;stroke-linecap:round;stroke-linejoin:round;paint-order:stroke fill markers"
         d="m 6103.488,792.20111 a 25.576911,7.3605278 5.0253644 0 0 -22.5207,6.34094 25.576911,7.3605278 5.0253644 0 0 4.6617,3.8512 27.250028,7.8420175 5.0253644 0 1 23.9983,-6.7221 27.250028,7.8420175 5.0253644 0 1 20.6055,3.4939 25.576911,7.3605278 5.0253644 0 0 -26.7448,-6.96394 z" />
    </g>
    <g
       id="g29173"
       transform="matrix(0.01859442,8.4989618e-4,0.00223486,0.00566786,5976.8058,1044.2039)"
       style="stroke-width:1.07463">
      <circle
         style="fill:#8a97a8;fill-opacity:1;stroke:none;stroke-width:1.20381;stroke-linecap:round;stroke-linejoin:round;paint-order:stroke fill markers"
         id="circle29167"
         cx="5394.5347"
         cy="5991.8755"
         r="1153.5209" />
      <path
         id="path29169"
         style="fill:#8493a4;fill-opacity:1;stroke:none;stroke-width:1.20381;stroke-linecap:round;stroke-linejoin:round;paint-order:stroke fill markers"
         d="m 6535.4062,5823.217 c -157.5693,396.557 -470.8283,711.2378 -846.0115,847.5306 -408.5813,148.4254 -1041.7879,66.4234 -1298.908,-116.4332 203.2763,363.9928 587.142,589.9739 1004.0482,591.0818 305.9327,2e-4 599.3353,-121.5308 815.6626,-337.8577 216.3273,-216.3269 337.8589,-509.7293 337.8592,-815.662 -0.084,-56.4537 -4.3122,-112.8249 -12.6505,-168.6595 z"
         sodipodi:nodetypes="caccscc" />
      <path
         id="path29171"
         style="fill:#8f9ead;fill-opacity:1;stroke:none;stroke-width:1.20381;stroke-linecap:round;stroke-linejoin:round;paint-order:stroke fill markers"
         d="m 5394.5349,4838.3547 a 1153.5209,1153.5209 0 0 0 -1153.522,1153.5218 1153.5209,1153.5209 0 0 0 149.8436,562.7026 1228.9786,1228.9786 0 0 1 1228.6088,-1223.7933 1228.9786,1228.9786 0 0 1 895.3418,387.3633 1153.5209,1153.5209 0 0 0 -1120.2722,-879.7944 z" />
    </g>
    <g
       id="g29181"
       transform="matrix(0.01654154,6.7579829e-4,0.00211416,0.00490945,5740.9178,986.6592)">
      <circle
         style="fill:#8a97a8;fill-opacity:1;stroke:none;stroke-width:1.12021;stroke-linecap:round;stroke-linejoin:round;paint-order:stroke fill markers"
         id="circle29175"
         cx="5394.5347"
         cy="5991.8755"
         r="1153.5209" />
      <path
         id="path29177"
         style="fill:#8493a4;fill-opacity:1;stroke:none;stroke-width:1.12021;stroke-linecap:round;stroke-linejoin:round;paint-order:stroke fill markers"
         d="m 6535.4062,5823.217 c -157.5693,396.557 -470.8283,711.2378 -846.0115,847.5306 -408.5813,148.4254 -1041.7879,66.4234 -1298.908,-116.4332 203.2763,363.9928 587.142,589.9739 1004.0482,591.0818 305.9327,2e-4 599.3353,-121.5308 815.6626,-337.8577 216.3273,-216.3269 337.8589,-509.7293 337.8592,-815.662 -0.084,-56.4537 -4.3122,-112.8249 -12.6505,-168.6595 z"
         sodipodi:nodetypes="caccscc" />
      <path
         id="path29179"
         style="fill:#8f9ead;fill-opacity:1;stroke:none;stroke-width:1.12021;stroke-linecap:round;stroke-linejoin:round;paint-order:stroke fill markers"
         d="m 5394.5349,4838.3547 a 1153.5209,1153.5209 0 0 0 -1153.522,1153.5218 1153.5209,1153.5209 0 0 0 149.8436,562.7026 1228.9786,1228.9786 0 0 1 1228.6088,-1223.7933 1228.9786,1228.9786 0 0 1 895.3418,387.3633 1153.5209,1153.5209 0 0 0 -1120.2722,-879.7944 z" />
    </g>
    <g
       id="g29189"
       transform="matrix(0.01593591,6.7579829e-4,0.00203676,0.00490945,6278.776,1196.3093)">
      <circle
         style="fill:#8a97a8;fill-opacity:1;stroke:none;stroke-width:1.12021;stroke-linecap:round;stroke-linejoin:round;paint-order:stroke fill markers"
         id="circle29183"
         cx="5394.5347"
         cy="5991.8755"
         r="1153.5209" />
      <path
         id="path29185"
         style="fill:#8493a4;fill-opacity:1;stroke:none;stroke-width:1.12021;stroke-linecap:round;stroke-linejoin:round;paint-order:stroke fill markers"
         d="m 6535.4062,5823.217 c -157.5693,396.557 -470.8283,711.2378 -846.0115,847.5306 -408.5813,148.4254 -1041.7879,66.4234 -1298.908,-116.4332 203.2763,363.9928 587.142,589.9739 1004.0482,591.0818 305.9327,2e-4 599.3353,-121.5308 815.6626,-337.8577 216.3273,-216.3269 337.8589,-509.7293 337.8592,-815.662 -0.084,-56.4537 -4.3122,-112.8249 -12.6505,-168.6595 z"
         sodipodi:nodetypes="caccscc" />
      <path
         id="path29187"
         style="fill:#8f9ead;fill-opacity:1;stroke:none;stroke-width:1.12021;stroke-linecap:round;stroke-linejoin:round;paint-order:stroke fill markers"
         d="m 5394.5349,4838.3547 a 1153.5209,1153.5209 0 0 0 -1153.522,1153.5218 1153.5209,1153.5209 0 0 0 149.8436,562.7026 1228.9786,1228.9786 0 0 1 1228.6088,-1223.7933 1228.9786,1228.9786 0 0 1 895.3418,387.3633 1153.5209,1153.5209 0 0 0 -1120.2722,-879.7944 z" />
    </g>
    <g
       id="g29197"
       transform="matrix(0.02384844,0.00401492,0.00191992,0.01551226,6051.0306,2146.4929)">
      <circle
         style="fill:#8a97a8;fill-opacity:1;stroke:none;stroke-width:1.12021;stroke-linecap:round;stroke-linejoin:round;paint-order:stroke fill markers"
         id="circle29191"
         cx="5394.5347"
         cy="5991.8755"
         r="1153.5209" />
      <path
         id="path29193"
         style="fill:#8493a4;fill-opacity:1;stroke:none;stroke-width:1.12021;stroke-linecap:round;stroke-linejoin:round;paint-order:stroke fill markers"
         d="m 6535.4062,5823.217 c -157.5693,396.557 -470.8283,711.2378 -846.0115,847.5306 -408.5813,148.4254 -1041.7879,66.4234 -1298.908,-116.4332 203.2763,363.9928 587.142,589.9739 1004.0482,591.0818 305.9327,2e-4 599.3353,-121.5308 815.6626,-337.8577 216.3273,-216.3269 337.8589,-509.7293 337.8592,-815.662 -0.084,-56.4537 -4.3122,-112.8249 -12.6505,-168.6595 z"
         sodipodi:nodetypes="caccscc" />
      <path
         id="path29195"
         style="fill:#8f9ead;fill-opacity:1;stroke:none;stroke-width:1.12021;stroke-linecap:round;stroke-linejoin:round;paint-order:stroke fill markers"
         d="m 5394.5349,4838.3547 a 1153.5209,1153.5209 0 0 0 -1153.522,1153.5218 1153.5209,1153.5209 0 0 0 149.8436,562.7026 1228.9786,1228.9786 0 0 1 1228.6088,-1223.7933 1228.9786,1228.9786 0 0 1 895.3418,387.3633 1153.5209,1153.5209 0 0 0 -1120.2722,-879.7944 z" />
    </g>
    <g
       id="g29205"
       transform="matrix(0.01369016,0.00102876,0.00290609,0.01172227,5944.2258,2096.6867)">
      <circle
         style="fill:#8a97a8;fill-opacity:1;stroke:none;stroke-width:1.12021;stroke-linecap:round;stroke-linejoin:round;paint-order:stroke fill markers"
         id="circle29199"
         cx="5394.5347"
         cy="5991.8755"
         r="1153.5209" />
      <path
         id="path29201"
         style="fill:#8493a4;fill-opacity:1;stroke:none;stroke-width:1.12021;stroke-linecap:round;stroke-linejoin:round;paint-order:stroke fill markers"
         d="m 6535.4062,5823.217 c -157.5693,396.557 -470.8283,711.2378 -846.0115,847.5306 -408.5813,148.4254 -1041.7879,66.4234 -1298.908,-116.4332 203.2763,363.9928 587.142,589.9739 1004.0482,591.0818 305.9327,2e-4 599.3353,-121.5308 815.6626,-337.8577 216.3273,-216.3269 337.8589,-509.7293 337.8592,-815.662 -0.084,-56.4537 -4.3122,-112.8249 -12.6505,-168.6595 z"
         sodipodi:nodetypes="caccscc" />
      <path
         id="path29203"
         style="fill:#8f9ead;fill-opacity:1;stroke:none;stroke-width:1.12021;stroke-linecap:round;stroke-linejoin:round;paint-order:stroke fill markers"
         d="m 5394.5349,4838.3547 a 1153.5209,1153.5209 0 0 0 -1153.522,1153.5218 1153.5209,1153.5209 0 0 0 149.8436,562.7026 1228.9786,1228.9786 0 0 1 1228.6088,-1223.7933 1228.9786,1228.9786 0 0 1 895.3418,387.3633 1153.5209,1153.5209 0 0 0 -1120.2722,-879.7944 z" />
    </g>
    <g
       id="g29213"
       transform="matrix(0.00815761,6.5742641e-4,0.00173166,0.00749104,5875.7839,2186.3032)">
      <circle
         style="fill:#8a97a8;fill-opacity:1;stroke:none;stroke-width:1.12021;stroke-linecap:round;stroke-linejoin:round;paint-order:stroke fill markers"
         id="circle29207"
         cx="5394.5347"
         cy="5991.8755"
         r="1153.5209" />
      <path
         id="path29209"
         style="fill:#8493a4;fill-opacity:1;stroke:none;stroke-width:1.12021;stroke-linecap:round;stroke-linejoin:round;paint-order:stroke fill markers"
         d="m 6535.4062,5823.217 c -157.5693,396.557 -470.8283,711.2378 -846.0115,847.5306 -408.5813,148.4254 -1041.7879,66.4234 -1298.908,-116.4332 203.2763,363.9928 587.142,589.9739 1004.0482,591.0818 305.9327,2e-4 599.3353,-121.5308 815.6626,-337.8577 216.3273,-216.3269 337.8589,-509.7293 337.8592,-815.662 -0.084,-56.4537 -4.3122,-112.8249 -12.6505,-168.6595 z"
         sodipodi:nodetypes="caccscc" />
      <path
         id="path29211"
         style="fill:#8f9ead;fill-opacity:1;stroke:none;stroke-width:1.12021;stroke-linecap:round;stroke-linejoin:round;paint-order:stroke fill markers"
         d="m 5394.5349,4838.3547 a 1153.5209,1153.5209 0 0 0 -1153.522,1153.5218 1153.5209,1153.5209 0 0 0 149.8436,562.7026 1228.9786,1228.9786 0 0 1 1228.6088,-1223.7933 1228.9786,1228.9786 0 0 1 895.3418,387.3633 1153.5209,1153.5209 0 0 0 -1120.2722,-879.7944 z" />
    </g>
    <g
       id="g29221"
       transform="matrix(0.01631971,0.00101837,0.00346428,0.01160378,5797.485,2102.6191)">
      <circle
         style="fill:#8a97a8;fill-opacity:1;stroke:none;stroke-width:1.12021;stroke-linecap:round;stroke-linejoin:round;paint-order:stroke fill markers"
         id="circle29215"
         cx="5394.5347"
         cy="5991.8755"
         r="1153.5209" />
      <path
         id="path29217"
         style="fill:#8493a4;fill-opacity:1;stroke:none;stroke-width:1.12021;stroke-linecap:round;stroke-linejoin:round;paint-order:stroke fill markers"
         d="m 6535.4062,5823.217 c -157.5693,396.557 -470.8283,711.2378 -846.0115,847.5306 -408.5813,148.4254 -1041.7879,66.4234 -1298.908,-116.4332 203.2763,363.9928 587.142,589.9739 1004.0482,591.0818 305.9327,2e-4 599.3353,-121.5308 815.6626,-337.8577 216.3273,-216.3269 337.8589,-509.7293 337.8592,-815.662 -0.084,-56.4537 -4.3122,-112.8249 -12.6505,-168.6595 z"
         sodipodi:nodetypes="caccscc" />
      <path
         id="path29219"
         style="fill:#8f9ead;fill-opacity:1;stroke:none;stroke-width:1.12021;stroke-linecap:round;stroke-linejoin:round;paint-order:stroke fill markers"
         d="m 5394.5349,4838.3547 a 1153.5209,1153.5209 0 0 0 -1153.522,1153.5218 1153.5209,1153.5209 0 0 0 149.8436,562.7026 1228.9786,1228.9786 0 0 1 1228.6088,-1223.7933 1228.9786,1228.9786 0 0 1 895.3418,387.3633 1153.5209,1153.5209 0 0 0 -1120.2722,-879.7944 z" />
    </g>
    <g
       id="g29229"
       transform="matrix(0.01239611,-0.00396512,0.00653781,0.00314928,4431.7872,1294.783)">
      <circle
         style="fill:#8a97a8;fill-opacity:1;stroke:none;stroke-width:1.12021;stroke-linecap:round;stroke-linejoin:round;paint-order:stroke fill markers"
         id="circle29223"
         cx="5394.5347"
         cy="5991.8755"
         r="1153.5209" />
      <path
         id="path29225"
         style="fill:#8493a4;fill-opacity:1;stroke:none;stroke-width:1.12021;stroke-linecap:round;stroke-linejoin:round;paint-order:stroke fill markers"
         d="m 6535.4062,5823.217 c -157.5693,396.557 -470.8283,711.2378 -846.0115,847.5306 -408.5813,148.4254 -1041.7879,66.4234 -1298.908,-116.4332 203.2763,363.9928 587.142,589.9739 1004.0482,591.0818 305.9327,2e-4 599.3353,-121.5308 815.6626,-337.8577 216.3273,-216.3269 337.8589,-509.7293 337.8592,-815.662 -0.084,-56.4537 -4.3122,-112.8249 -12.6505,-168.6595 z"
         sodipodi:nodetypes="caccscc" />
      <path
         id="path29227"
         style="fill:#8f9ead;fill-opacity:1;stroke:none;stroke-width:1.12021;stroke-linecap:round;stroke-linejoin:round;paint-order:stroke fill markers"
         d="m 5394.5349,4838.3547 a 1153.5209,1153.5209 0 0 0 -1153.522,1153.5218 1153.5209,1153.5209 0 0 0 149.8436,562.7026 1228.9786,1228.9786 0 0 1 1228.6088,-1223.7933 1228.9786,1228.9786 0 0 1 895.3418,387.3633 1153.5209,1153.5209 0 0 0 -1120.2722,-879.7944 z" />
    </g>
    <g
       id="g29237"
       transform="matrix(0.01339996,-0.00330246,0.00550419,0.0034914,4333.8794,1191.3255)">
      <circle
         style="fill:#8a97a8;fill-opacity:1;stroke:none;stroke-width:1.12021;stroke-linecap:round;stroke-linejoin:round;paint-order:stroke fill markers"
         id="circle29231"
         cx="5394.5347"
         cy="5991.8755"
         r="1153.5209" />
      <path
         id="path29233"
         style="fill:#8493a4;fill-opacity:1;stroke:none;stroke-width:1.12021;stroke-linecap:round;stroke-linejoin:round;paint-order:stroke fill markers"
         d="m 6535.4062,5823.217 c -157.5693,396.557 -470.8283,711.2378 -846.0115,847.5306 -408.5813,148.4254 -1041.7879,66.4234 -1298.908,-116.4332 203.2763,363.9928 587.142,589.9739 1004.0482,591.0818 305.9327,2e-4 599.3353,-121.5308 815.6626,-337.8577 216.3273,-216.3269 337.8589,-509.7293 337.8592,-815.662 -0.084,-56.4537 -4.3122,-112.8249 -12.6505,-168.6595 z"
         sodipodi:nodetypes="caccscc" />
      <path
         id="path29235"
         style="fill:#8f9ead;fill-opacity:1;stroke:none;stroke-width:1.12021;stroke-linecap:round;stroke-linejoin:round;paint-order:stroke fill markers"
         d="m 5394.5349,4838.3547 a 1153.5209,1153.5209 0 0 0 -1153.522,1153.5218 1153.5209,1153.5209 0 0 0 149.8436,562.7026 1228.9786,1228.9786 0 0 1 1228.6088,-1223.7933 1228.9786,1228.9786 0 0 1 895.3418,387.3633 1153.5209,1153.5209 0 0 0 -1120.2722,-879.7944 z" />
    </g>
    <g
       id="g78654"
       transform="matrix(0.01339996,-0.00330246,0.00550419,0.0034914,4292.9647,1183.6942)">
      <circle
         style="fill:#8a97a8;fill-opacity:1;stroke:none;stroke-width:1.12021;stroke-linecap:round;stroke-linejoin:round;paint-order:stroke fill markers"
         id="circle78648"
         cx="5394.5347"
         cy="5991.8755"
         r="1153.5209" />
      <path
         id="path78650"
         style="fill:#8493a4;fill-opacity:1;stroke:none;stroke-width:1.12021;stroke-linecap:round;stroke-linejoin:round;paint-order:stroke fill markers"
         d="m 6535.4062,5823.217 c -157.5693,396.557 -470.8283,711.2378 -846.0115,847.5306 -408.5813,148.4254 -1041.7879,66.4234 -1298.908,-116.4332 203.2763,363.9928 587.142,589.9739 1004.0482,591.0818 305.9327,2e-4 599.3353,-121.5308 815.6626,-337.8577 216.3273,-216.3269 337.8589,-509.7293 337.8592,-815.662 -0.084,-56.4537 -4.3122,-112.8249 -12.6505,-168.6595 z"
         sodipodi:nodetypes="caccscc" />
      <path
         id="path78652"
         style="fill:#8f9ead;fill-opacity:1;stroke:none;stroke-width:1.12021;stroke-linecap:round;stroke-linejoin:round;paint-order:stroke fill markers"
         d="m 5394.5349,4838.3547 a 1153.5209,1153.5209 0 0 0 -1153.522,1153.5218 1153.5209,1153.5209 0 0 0 149.8436,562.7026 1228.9786,1228.9786 0 0 1 1228.6088,-1223.7933 1228.9786,1228.9786 0 0 1 895.3418,387.3633 1153.5209,1153.5209 0 0 0 -1120.2722,-879.7944 z" />
    </g>
    <g
       id="g78662"
       transform="matrix(0.01346344,-0.00371871,0.00687529,0.00365835,4355.9939,1363.0185)"
       style="stroke-width:0.931789">
      <circle
         style="fill:#8a97a8;fill-opacity:1;stroke:none;stroke-width:1.0438;stroke-linecap:round;stroke-linejoin:round;paint-order:stroke fill markers"
         id="circle78656"
         cx="5394.5347"
         cy="5991.8755"
         r="1153.5209" />
      <path
         id="path78658"
         style="fill:#8493a4;fill-opacity:1;stroke:none;stroke-width:1.0438;stroke-linecap:round;stroke-linejoin:round;paint-order:stroke fill markers"
         d="m 6535.4062,5823.217 c -157.5693,396.557 -470.8283,711.2378 -846.0115,847.5306 -408.5813,148.4254 -1041.7879,66.4234 -1298.908,-116.4332 203.2763,363.9928 587.142,589.9739 1004.0482,591.0818 305.9327,2e-4 599.3353,-121.5308 815.6626,-337.8577 216.3273,-216.3269 337.8589,-509.7293 337.8592,-815.662 -0.084,-56.4537 -4.3122,-112.8249 -12.6505,-168.6595 z"
         sodipodi:nodetypes="caccscc" />
      <path
         id="path78660"
         style="fill:#8f9ead;fill-opacity:1;stroke:none;stroke-width:1.0438;stroke-linecap:round;stroke-linejoin:round;paint-order:stroke fill markers"
         d="m 5394.5349,4838.3547 a 1153.5209,1153.5209 0 0 0 -1153.522,1153.5218 1153.5209,1153.5209 0 0 0 149.8436,562.7026 1228.9786,1228.9786 0 0 1 1228.6088,-1223.7933 1228.9786,1228.9786 0 0 1 895.3418,387.3633 1153.5209,1153.5209 0 0 0 -1120.2722,-879.7944 z" />
    </g>
    <g
       id="g78670"
       transform="matrix(0.00897667,-0.00102776,0.00134755,0.00532038,5006.4389,1602.41)"
       style="stroke-width:2.62979">
      <circle
         style="fill:#8a97a8;fill-opacity:1;stroke:none;stroke-width:2.94591;stroke-linecap:round;stroke-linejoin:round;paint-order:stroke fill markers"
         id="circle78664"
         cx="5394.5347"
         cy="5991.8755"
         r="1153.5209" />
      <path
         id="path78666"
         style="fill:#8493a4;fill-opacity:1;stroke:none;stroke-width:2.94591;stroke-linecap:round;stroke-linejoin:round;paint-order:stroke fill markers"
         d="m 6535.4062,5823.217 c -157.5693,396.557 -470.8283,711.2378 -846.0115,847.5306 -408.5813,148.4254 -1041.7879,66.4234 -1298.908,-116.4332 203.2763,363.9928 587.142,589.9739 1004.0482,591.0818 305.9327,2e-4 599.3353,-121.5308 815.6626,-337.8577 216.3273,-216.3269 337.8589,-509.7293 337.8592,-815.662 -0.084,-56.4537 -4.3122,-112.8249 -12.6505,-168.6595 z"
         sodipodi:nodetypes="caccscc" />
      <path
         id="path78668"
         style="fill:#8f9ead;fill-opacity:1;stroke:none;stroke-width:2.94591;stroke-linecap:round;stroke-linejoin:round;paint-order:stroke fill markers"
         d="m 5394.5349,4838.3547 a 1153.5209,1153.5209 0 0 0 -1153.522,1153.5218 1153.5209,1153.5209 0 0 0 149.8436,562.7026 1228.9786,1228.9786 0 0 1 1228.6088,-1223.7933 1228.9786,1228.9786 0 0 1 895.3418,387.3633 1153.5209,1153.5209 0 0 0 -1120.2722,-879.7944 z" />
    </g>
    <g
       id="g29125"
       transform="matrix(0.01841116,-0.00210794,0.00276383,0.01091211,4916.7183,1577.0138)"
       style="stroke-width:1.2822">
      <circle
         style="fill:#8a97a8;fill-opacity:1;stroke:none;stroke-width:1.43633;stroke-linecap:round;stroke-linejoin:round;paint-order:stroke fill markers"
         id="circle29119"
         cx="5394.5347"
         cy="5991.8755"
         r="1153.5209" />
      <path
         id="path29121"
         style="fill:#8493a4;fill-opacity:1;stroke:none;stroke-width:1.43633;stroke-linecap:round;stroke-linejoin:round;paint-order:stroke fill markers"
         d="m 6535.4062,5823.217 c -157.5693,396.557 -470.8283,711.2378 -846.0115,847.5306 -408.5813,148.4254 -1041.7879,66.4234 -1298.908,-116.4332 203.2763,363.9928 587.142,589.9739 1004.0482,591.0818 305.9327,2e-4 599.3353,-121.5308 815.6626,-337.8577 216.3273,-216.3269 337.8589,-509.7293 337.8592,-815.662 -0.084,-56.4537 -4.3122,-112.8249 -12.6505,-168.6595 z"
         sodipodi:nodetypes="caccscc" />
      <path
         id="path29123"
         style="fill:#8f9ead;fill-opacity:1;stroke:none;stroke-width:1.43633;stroke-linecap:round;stroke-linejoin:round;paint-order:stroke fill markers"
         d="m 5394.5349,4838.3547 a 1153.5209,1153.5209 0 0 0 -1153.522,1153.5218 1153.5209,1153.5209 0 0 0 149.8436,562.7026 1228.9786,1228.9786 0 0 1 1228.6088,-1223.7933 1228.9786,1228.9786 0 0 1 895.3418,387.3633 1153.5209,1153.5209 0 0 0 -1120.2722,-879.7944 z" />
    </g>
    <g
       id="g78678"
       transform="matrix(0.32027459,0.00831847,-0.00952671,0.27965485,4159.6313,1156.528)"
       style="stroke-width:3.33992">
      <ellipse
         style="fill:#8a97a8;fill-opacity:1;stroke:none;stroke-width:0.119405;stroke-linecap:round;stroke-linejoin:round;paint-order:stroke fill markers"
         id="ellipse78672"
         cx="5656.8623"
         cy="946.92273"
         transform="matrix(0.99991787,0.01281591,0.43011537,0.90277393,0,0)"
         rx="50.76543"
         ry="26.696281" />
      <path
         id="path78674"
         style="fill:#8493a4;fill-opacity:1;stroke:none;stroke-width:0.1131;stroke-linecap:round;stroke-linejoin:round;paint-order:stroke fill markers"
         d="m 6112.2097,924.47467 c -2.9865,8.19646 -13.6392,14.59446 -28.7926,17.23044 -16.5023,2.87063 -45.1832,0.80021 -58.3181,-3.16527 12.5686,7.71962 31.7103,12.65759 50.0675,12.91588 13.4627,0.17255 25.1642,-2.20113 32.5305,-6.59887 7.3662,-4.39775 9.7936,-10.45931 6.7483,-16.85121 -0.5657,-1.17954 -1.3129,-2.3597 -2.2356,-3.53097 z"
         sodipodi:nodetypes="caccscc" />
      <path
         id="path78676"
         style="fill:#8f9ead;fill-opacity:1;stroke:none;stroke-width:0.1131;stroke-linecap:round;stroke-linejoin:round;paint-order:stroke fill markers"
         d="m 6052.2015,903.25431 a 52.466569,23.174983 8.1184917 0 0 -39.2788,23.45012 52.466569,23.174983 8.1184917 0 0 12.1952,11.84115 55.898676,24.690977 8.1184917 0 1 41.8836,-24.87596 55.898676,24.690977 8.1184917 0 1 43.2559,8.59823 52.466569,23.174983 8.1184917 0 0 -58.0559,-19.01354 z" />
    </g>
    <g
       id="g78686"
       transform="matrix(0.0127557,0.00145364,0.00127305,0.00400465,6110.9071,1023.3725)"
       style="stroke-width:1.55808">
      <circle
         style="fill:#8a97a8;fill-opacity:1;stroke:none;stroke-width:1.74537;stroke-linecap:round;stroke-linejoin:round;paint-order:stroke fill markers"
         id="circle78680"
         cx="5394.5347"
         cy="5991.8755"
         r="1153.5209" />
      <path
         id="path78682"
         style="fill:#8493a4;fill-opacity:1;stroke:none;stroke-width:1.74537;stroke-linecap:round;stroke-linejoin:round;paint-order:stroke fill markers"
         d="m 6535.4062,5823.217 c -157.5693,396.557 -470.8283,711.2378 -846.0115,847.5306 -408.5813,148.4254 -1041.7879,66.4234 -1298.908,-116.4332 203.2763,363.9928 587.142,589.9739 1004.0482,591.0818 305.9327,2e-4 599.3353,-121.5308 815.6626,-337.8577 216.3273,-216.3269 337.8589,-509.7293 337.8592,-815.662 -0.084,-56.4537 -4.3122,-112.8249 -12.6505,-168.6595 z"
         sodipodi:nodetypes="caccscc" />
      <path
         id="path78684"
         style="fill:#8f9ead;fill-opacity:1;stroke:none;stroke-width:1.74537;stroke-linecap:round;stroke-linejoin:round;paint-order:stroke fill markers"
         d="m 5394.5349,4838.3547 a 1153.5209,1153.5209 0 0 0 -1153.522,1153.5218 1153.5209,1153.5209 0 0 0 149.8436,562.7026 1228.9786,1228.9786 0 0 1 1228.6088,-1223.7933 1228.9786,1228.9786 0 0 1 895.3418,387.3633 1153.5209,1153.5209 0 0 0 -1120.2722,-879.7944 z" />
    </g>
    <g
       id="g78694"
       transform="matrix(0.01816037,-7.610039e-5,0.00454798,0.00656512,5492.8065,1142.6699)"
       style="stroke-width:1.89394">
      <circle
         style="fill:#8a97a8;fill-opacity:1;stroke:none;stroke-width:2.12161;stroke-linecap:round;stroke-linejoin:round;paint-order:stroke fill markers"
         id="circle78688"
         cx="5394.5347"
         cy="5991.8755"
         r="1153.5209" />
      <path
         id="path78690"
         style="fill:#8493a4;fill-opacity:1;stroke:none;stroke-width:2.12161;stroke-linecap:round;stroke-linejoin:round;paint-order:stroke fill markers"
         d="m 6535.4062,5823.217 c -157.5693,396.557 -470.8283,711.2378 -846.0115,847.5306 -408.5813,148.4254 -1041.7879,66.4234 -1298.908,-116.4332 203.2763,363.9928 587.142,589.9739 1004.0482,591.0818 305.9327,2e-4 599.3353,-121.5308 815.6626,-337.8577 216.3273,-216.3269 337.8589,-509.7293 337.8592,-815.662 -0.084,-56.4537 -4.3122,-112.8249 -12.6505,-168.6595 z"
         sodipodi:nodetypes="caccscc" />
      <path
         id="path78692"
         style="fill:#8f9ead;fill-opacity:1;stroke:none;stroke-width:2.12161;stroke-linecap:round;stroke-linejoin:round;paint-order:stroke fill markers"
         d="m 5394.5349,4838.3547 a 1153.5209,1153.5209 0 0 0 -1153.522,1153.5218 1153.5209,1153.5209 0 0 0 149.8436,562.7026 1228.9786,1228.9786 0 0 1 1228.6088,-1223.7933 1228.9786,1228.9786 0 0 1 895.3418,387.3633 1153.5209,1153.5209 0 0 0 -1120.2722,-879.7944 z" />
    </g>
    <g
       id="g78702"
       transform="matrix(0.0270375,-0.00235652,0.0075844,0.0092159,5126.4394,1193.6764)"
       style="stroke-width:1.26731">
      <circle
         style="fill:#8a97a8;fill-opacity:1;stroke:none;stroke-width:1.41966;stroke-linecap:round;stroke-linejoin:round;paint-order:stroke fill markers"
         id="circle78696"
         cx="5394.5347"
         cy="5991.8755"
         r="1153.5209" />
      <path
         id="path78698"
         style="fill:#8493a4;fill-opacity:1;stroke:none;stroke-width:1.41966;stroke-linecap:round;stroke-linejoin:round;paint-order:stroke fill markers"
         d="m 6535.4062,5823.217 c -157.5693,396.557 -470.8283,711.2378 -846.0115,847.5306 -408.5813,148.4254 -1041.7879,66.4234 -1298.908,-116.4332 203.2763,363.9928 587.142,589.9739 1004.0482,591.0818 305.9327,2e-4 599.3353,-121.5308 815.6626,-337.8577 216.3273,-216.3269 337.8589,-509.7293 337.8592,-815.662 -0.084,-56.4537 -4.3122,-112.8249 -12.6505,-168.6595 z"
         sodipodi:nodetypes="caccscc" />
      <path
         id="path78700"
         style="fill:#8f9ead;fill-opacity:1;stroke:none;stroke-width:1.41966;stroke-linecap:round;stroke-linejoin:round;paint-order:stroke fill markers"
         d="m 5394.5349,4838.3547 a 1153.5209,1153.5209 0 0 0 -1153.522,1153.5218 1153.5209,1153.5209 0 0 0 149.8436,562.7026 1228.9786,1228.9786 0 0 1 1228.6088,-1223.7933 1228.9786,1228.9786 0 0 1 895.3418,387.3633 1153.5209,1153.5209 0 0 0 -1120.2722,-879.7944 z" />
    </g>
    <g
       id="g78710"
       transform="matrix(0.01740003,-5.1643302e-4,0.00453514,0.00566094,5198.0277,1066.0607)"
       style="stroke-width:2.06232">
      <circle
         style="fill:#8a97a8;fill-opacity:1;stroke:none;stroke-width:2.31023;stroke-linecap:round;stroke-linejoin:round;paint-order:stroke fill markers"
         id="circle78704"
         cx="5394.5347"
         cy="5991.8755"
         r="1153.5209" />
      <path
         id="path78706"
         style="fill:#8493a4;fill-opacity:1;stroke:none;stroke-width:2.31023;stroke-linecap:round;stroke-linejoin:round;paint-order:stroke fill markers"
         d="m 6535.4062,5823.217 c -157.5693,396.557 -470.8283,711.2378 -846.0115,847.5306 -408.5813,148.4254 -1041.7879,66.4234 -1298.908,-116.4332 203.2763,363.9928 587.142,589.9739 1004.0482,591.0818 305.9327,2e-4 599.3353,-121.5308 815.6626,-337.8577 216.3273,-216.3269 337.8589,-509.7293 337.8592,-815.662 -0.084,-56.4537 -4.3122,-112.8249 -12.6505,-168.6595 z"
         sodipodi:nodetypes="caccscc" />
      <path
         id="path78708"
         style="fill:#8f9ead;fill-opacity:1;stroke:none;stroke-width:2.31023;stroke-linecap:round;stroke-linejoin:round;paint-order:stroke fill markers"
         d="m 5394.5349,4838.3547 a 1153.5209,1153.5209 0 0 0 -1153.522,1153.5218 1153.5209,1153.5209 0 0 0 149.8436,562.7026 1228.9786,1228.9786 0 0 1 1228.6088,-1223.7933 1228.9786,1228.9786 0 0 1 895.3418,387.3633 1153.5209,1153.5209 0 0 0 -1120.2722,-879.7944 z" />
    </g>
    <g
       id="g78718"
       transform="matrix(0.06276516,-0.00224325,0.00773294,0.00617369,4456.4927,1067.1353)"
       style="stroke-width:0.654066">
      <circle
         style="fill:#8a97a8;fill-opacity:1;stroke:none;stroke-width:0.732691;stroke-linecap:round;stroke-linejoin:round;paint-order:stroke fill markers"
         id="circle78712"
         cx="5394.5347"
         cy="5991.8755"
         r="1153.5209" />
      <path
         id="path78714"
         style="fill:#8493a4;fill-opacity:1;stroke:none;stroke-width:0.732691;stroke-linecap:round;stroke-linejoin:round;paint-order:stroke fill markers"
         d="m 6535.4062,5823.217 c -157.5693,396.557 -470.8283,711.2378 -846.0115,847.5306 -408.5813,148.4254 -1041.7879,66.4234 -1298.908,-116.4332 203.2763,363.9928 587.142,589.9739 1004.0482,591.0818 305.9327,2e-4 599.3353,-121.5308 815.6626,-337.8577 216.3273,-216.3269 337.8589,-509.7293 337.8592,-815.662 -0.084,-56.4537 -4.3122,-112.8249 -12.6505,-168.6595 z"
         sodipodi:nodetypes="caccscc" />
      <path
         id="path78716"
         style="fill:#8f9ead;fill-opacity:1;stroke:none;stroke-width:0.732691;stroke-linecap:round;stroke-linejoin:round;paint-order:stroke fill markers"
         d="m 5394.5349,4838.3547 a 1153.5209,1153.5209 0 0 0 -1153.522,1153.5218 1153.5209,1153.5209 0 0 0 149.8436,562.7026 1228.9786,1228.9786 0 0 1 1228.6088,-1223.7933 1228.9786,1228.9786 0 0 1 895.3418,387.3633 1153.5209,1153.5209 0 0 0 -1120.2722,-879.7944 z" />
    </g>
    <g
       id="g78814"
       transform="matrix(0.014687,-0.00168155,0.00220477,0.00870484,4653.3375,1405.0483)"
       style="stroke-width:1.60733">
      <circle
         style="fill:#8a97a8;fill-opacity:1;stroke:none;stroke-width:1.80054;stroke-linecap:round;stroke-linejoin:round;paint-order:stroke fill markers"
         id="circle78808"
         cx="5394.5347"
         cy="5991.8755"
         r="1153.5209" />
      <path
         id="path78810"
         style="fill:#8493a4;fill-opacity:1;stroke:none;stroke-width:1.80054;stroke-linecap:round;stroke-linejoin:round;paint-order:stroke fill markers"
         d="m 6535.4062,5823.217 c -157.5693,396.557 -470.8283,711.2378 -846.0115,847.5306 -408.5813,148.4254 -1041.7879,66.4234 -1298.908,-116.4332 203.2763,363.9928 587.142,589.9739 1004.0482,591.0818 305.9327,2e-4 599.3353,-121.5308 815.6626,-337.8577 216.3273,-216.3269 337.8589,-509.7293 337.8592,-815.662 -0.084,-56.4537 -4.3122,-112.8249 -12.6505,-168.6595 z"
         sodipodi:nodetypes="caccscc" />
      <path
         id="path78812"
         style="fill:#8f9ead;fill-opacity:1;stroke:none;stroke-width:1.80054;stroke-linecap:round;stroke-linejoin:round;paint-order:stroke fill markers"
         d="m 5394.5349,4838.3547 a 1153.5209,1153.5209 0 0 0 -1153.522,1153.5218 1153.5209,1153.5209 0 0 0 149.8436,562.7026 1228.9786,1228.9786 0 0 1 1228.6088,-1223.7933 1228.9786,1228.9786 0 0 1 895.3418,387.3633 1153.5209,1153.5209 0 0 0 -1120.2722,-879.7944 z" />
    </g>
    <g
       id="g78822"
       transform="matrix(0.0133247,-0.00152558,0.00200027,0.00789742,4826.0909,1863.091)"
       style="stroke-width:1.77166">
      <circle
         style="fill:#8a97a8;fill-opacity:1;stroke:none;stroke-width:1.98462;stroke-linecap:round;stroke-linejoin:round;paint-order:stroke fill markers"
         id="circle78816"
         cx="5394.5347"
         cy="5991.8755"
         r="1153.5209" />
      <path
         id="path78818"
         style="fill:#8493a4;fill-opacity:1;stroke:none;stroke-width:1.98462;stroke-linecap:round;stroke-linejoin:round;paint-order:stroke fill markers"
         d="m 6535.4062,5823.217 c -157.5693,396.557 -470.8283,711.2378 -846.0115,847.5306 -408.5813,148.4254 -1041.7879,66.4234 -1298.908,-116.4332 203.2763,363.9928 587.142,589.9739 1004.0482,591.0818 305.9327,2e-4 599.3353,-121.5308 815.6626,-337.8577 216.3273,-216.3269 337.8589,-509.7293 337.8592,-815.662 -0.084,-56.4537 -4.3122,-112.8249 -12.6505,-168.6595 z"
         sodipodi:nodetypes="caccscc" />
      <path
         id="path78820"
         style="fill:#8f9ead;fill-opacity:1;stroke:none;stroke-width:1.98462;stroke-linecap:round;stroke-linejoin:round;paint-order:stroke fill markers"
         d="m 5394.5349,4838.3547 a 1153.5209,1153.5209 0 0 0 -1153.522,1153.5218 1153.5209,1153.5209 0 0 0 149.8436,562.7026 1228.9786,1228.9786 0 0 1 1228.6088,-1223.7933 1228.9786,1228.9786 0 0 1 895.3418,387.3633 1153.5209,1153.5209 0 0 0 -1120.2722,-879.7944 z" />
    </g>
    <g
       id="g78830"
       transform="matrix(0.01137634,-1.523012e-4,0.00101537,0.00683603,5218.9757,1843.7545)"
       style="stroke-width:2.08845">
      <circle
         style="fill:#8a97a8;fill-opacity:1;stroke:none;stroke-width:2.33949;stroke-linecap:round;stroke-linejoin:round;paint-order:stroke fill markers"
         id="circle78824"
         cx="5394.5347"
         cy="5991.8755"
         r="1153.5209" />
      <path
         id="path78826"
         style="fill:#8493a4;fill-opacity:1;stroke:none;stroke-width:2.33949;stroke-linecap:round;stroke-linejoin:round;paint-order:stroke fill markers"
         d="m 6535.4062,5823.217 c -157.5693,396.557 -470.8283,711.2378 -846.0115,847.5306 -408.5813,148.4254 -1041.7879,66.4234 -1298.908,-116.4332 203.2763,363.9928 587.142,589.9739 1004.0482,591.0818 305.9327,2e-4 599.3353,-121.5308 815.6626,-337.8577 216.3273,-216.3269 337.8589,-509.7293 337.8592,-815.662 -0.084,-56.4537 -4.3122,-112.8249 -12.6505,-168.6595 z"
         sodipodi:nodetypes="caccscc" />
      <path
         id="path78828"
         style="fill:#8f9ead;fill-opacity:1;stroke:none;stroke-width:2.33949;stroke-linecap:round;stroke-linejoin:round;paint-order:stroke fill markers"
         d="m 5394.5349,4838.3547 a 1153.5209,1153.5209 0 0 0 -1153.522,1153.5218 1153.5209,1153.5209 0 0 0 149.8436,562.7026 1228.9786,1228.9786 0 0 1 1228.6088,-1223.7933 1228.9786,1228.9786 0 0 1 895.3418,387.3633 1153.5209,1153.5209 0 0 0 -1120.2722,-879.7944 z" />
    </g>
    <g
       id="g78838"
       transform="matrix(0.00822521,-1.523012e-4,7.3412255e-4,0.00683603,5422.1113,1922.4736)"
       style="stroke-width:2.45613">
      <circle
         style="fill:#8a97a8;fill-opacity:1;stroke:none;stroke-width:2.75137;stroke-linecap:round;stroke-linejoin:round;paint-order:stroke fill markers"
         id="circle78832"
         cx="5394.5347"
         cy="5991.8755"
         r="1153.5209" />
      <path
         id="path78834"
         style="fill:#8493a4;fill-opacity:1;stroke:none;stroke-width:2.75137;stroke-linecap:round;stroke-linejoin:round;paint-order:stroke fill markers"
         d="m 6535.4062,5823.217 c -157.5693,396.557 -470.8283,711.2378 -846.0115,847.5306 -408.5813,148.4254 -1041.7879,66.4234 -1298.908,-116.4332 203.2763,363.9928 587.142,589.9739 1004.0482,591.0818 305.9327,2e-4 599.3353,-121.5308 815.6626,-337.8577 216.3273,-216.3269 337.8589,-509.7293 337.8592,-815.662 -0.084,-56.4537 -4.3122,-112.8249 -12.6505,-168.6595 z"
         sodipodi:nodetypes="caccscc" />
      <path
         id="path78836"
         style="fill:#8f9ead;fill-opacity:1;stroke:none;stroke-width:2.75137;stroke-linecap:round;stroke-linejoin:round;paint-order:stroke fill markers"
         d="m 5394.5349,4838.3547 a 1153.5209,1153.5209 0 0 0 -1153.522,1153.5218 1153.5209,1153.5209 0 0 0 149.8436,562.7026 1228.9786,1228.9786 0 0 1 1228.6088,-1223.7933 1228.9786,1228.9786 0 0 1 895.3418,387.3633 1153.5209,1153.5209 0 0 0 -1120.2722,-879.7944 z" />
    </g>
    <g
       id="g78846"
       transform="matrix(0.00822521,-1.523012e-4,7.3412255e-4,0.00683603,5405.3026,2034.8751)"
       style="stroke-width:2.45613">
      <circle
         style="fill:#8a97a8;fill-opacity:1;stroke:none;stroke-width:2.75137;stroke-linecap:round;stroke-linejoin:round;paint-order:stroke fill markers"
         id="circle78840"
         cx="5394.5347"
         cy="5991.8755"
         r="1153.5209" />
      <path
         id="path78842"
         style="fill:#8493a4;fill-opacity:1;stroke:none;stroke-width:2.75137;stroke-linecap:round;stroke-linejoin:round;paint-order:stroke fill markers"
         d="m 6535.4062,5823.217 c -157.5693,396.557 -470.8283,711.2378 -846.0115,847.5306 -408.5813,148.4254 -1041.7879,66.4234 -1298.908,-116.4332 203.2763,363.9928 587.142,589.9739 1004.0482,591.0818 305.9327,2e-4 599.3353,-121.5308 815.6626,-337.8577 216.3273,-216.3269 337.8589,-509.7293 337.8592,-815.662 -0.084,-56.4537 -4.3122,-112.8249 -12.6505,-168.6595 z"
         sodipodi:nodetypes="caccscc" />
      <path
         id="path78844"
         style="fill:#8f9ead;fill-opacity:1;stroke:none;stroke-width:2.75137;stroke-linecap:round;stroke-linejoin:round;paint-order:stroke fill markers"
         d="m 5394.5349,4838.3547 a 1153.5209,1153.5209 0 0 0 -1153.522,1153.5218 1153.5209,1153.5209 0 0 0 149.8436,562.7026 1228.9786,1228.9786 0 0 1 1228.6088,-1223.7933 1228.9786,1228.9786 0 0 1 895.3418,387.3633 1153.5209,1153.5209 0 0 0 -1120.2722,-879.7944 z" />
    </g>
    <g
       id="g78854"
       transform="matrix(0.00913949,-1.6923038e-4,8.1572462e-4,0.0075959,5335.3465,2047.6383)"
       style="stroke-width:2.21043">
      <circle
         style="fill:#8a97a8;fill-opacity:1;stroke:none;stroke-width:2.47613;stroke-linecap:round;stroke-linejoin:round;paint-order:stroke fill markers"
         id="circle78848"
         cx="5394.5347"
         cy="5991.8755"
         r="1153.5209" />
      <path
         id="path78850"
         style="fill:#8493a4;fill-opacity:1;stroke:none;stroke-width:2.47613;stroke-linecap:round;stroke-linejoin:round;paint-order:stroke fill markers"
         d="m 6535.4062,5823.217 c -157.5693,396.557 -470.8283,711.2378 -846.0115,847.5306 -408.5813,148.4254 -1041.7879,66.4234 -1298.908,-116.4332 203.2763,363.9928 587.142,589.9739 1004.0482,591.0818 305.9327,2e-4 599.3353,-121.5308 815.6626,-337.8577 216.3273,-216.3269 337.8589,-509.7293 337.8592,-815.662 -0.084,-56.4537 -4.3122,-112.8249 -12.6505,-168.6595 z"
         sodipodi:nodetypes="caccscc" />
      <path
         id="path78852"
         style="fill:#8f9ead;fill-opacity:1;stroke:none;stroke-width:2.47613;stroke-linecap:round;stroke-linejoin:round;paint-order:stroke fill markers"
         d="m 5394.5349,4838.3547 a 1153.5209,1153.5209 0 0 0 -1153.522,1153.5218 1153.5209,1153.5209 0 0 0 149.8436,562.7026 1228.9786,1228.9786 0 0 1 1228.6088,-1223.7933 1228.9786,1228.9786 0 0 1 895.3418,387.3633 1153.5209,1153.5209 0 0 0 -1120.2722,-879.7944 z" />
    </g>
    <g
       id="g78862"
       transform="matrix(0.00822521,-1.523012e-4,7.3412255e-4,0.00683603,5296.1443,2250.21)"
       style="stroke-width:2.45613">
      <circle
         style="fill:#8a97a8;fill-opacity:1;stroke:none;stroke-width:2.75137;stroke-linecap:round;stroke-linejoin:round;paint-order:stroke fill markers"
         id="circle78856"
         cx="5394.5347"
         cy="5991.8755"
         r="1153.5209" />
      <path
         id="path78858"
         style="fill:#8493a4;fill-opacity:1;stroke:none;stroke-width:2.75137;stroke-linecap:round;stroke-linejoin:round;paint-order:stroke fill markers"
         d="m 6535.4062,5823.217 c -157.5693,396.557 -470.8283,711.2378 -846.0115,847.5306 -408.5813,148.4254 -1041.7879,66.4234 -1298.908,-116.4332 203.2763,363.9928 587.142,589.9739 1004.0482,591.0818 305.9327,2e-4 599.3353,-121.5308 815.6626,-337.8577 216.3273,-216.3269 337.8589,-509.7293 337.8592,-815.662 -0.084,-56.4537 -4.3122,-112.8249 -12.6505,-168.6595 z"
         sodipodi:nodetypes="caccscc" />
      <path
         id="path78860"
         style="fill:#8f9ead;fill-opacity:1;stroke:none;stroke-width:2.75137;stroke-linecap:round;stroke-linejoin:round;paint-order:stroke fill markers"
         d="m 5394.5349,4838.3547 a 1153.5209,1153.5209 0 0 0 -1153.522,1153.5218 1153.5209,1153.5209 0 0 0 149.8436,562.7026 1228.9786,1228.9786 0 0 1 1228.6088,-1223.7933 1228.9786,1228.9786 0 0 1 895.3418,387.3633 1153.5209,1153.5209 0 0 0 -1120.2722,-879.7944 z" />
    </g>
    <g
       id="g78870"
       transform="matrix(0.00820676,-5.7120472e-4,0.00108149,0.00678975,5279.9895,2346.5495)"
       style="stroke-width:2.45613">
      <circle
         style="fill:#8a97a8;fill-opacity:1;stroke:none;stroke-width:2.75137;stroke-linecap:round;stroke-linejoin:round;paint-order:stroke fill markers"
         id="circle78864"
         cx="5394.5347"
         cy="5991.8755"
         r="1153.5209" />
      <path
         id="path78866"
         style="fill:#8493a4;fill-opacity:1;stroke:none;stroke-width:2.75137;stroke-linecap:round;stroke-linejoin:round;paint-order:stroke fill markers"
         d="m 6535.4062,5823.217 c -157.5693,396.557 -470.8283,711.2378 -846.0115,847.5306 -408.5813,148.4254 -1041.7879,66.4234 -1298.908,-116.4332 203.2763,363.9928 587.142,589.9739 1004.0482,591.0818 305.9327,2e-4 599.3353,-121.5308 815.6626,-337.8577 216.3273,-216.3269 337.8589,-509.7293 337.8592,-815.662 -0.084,-56.4537 -4.3122,-112.8249 -12.6505,-168.6595 z"
         sodipodi:nodetypes="caccscc" />
      <path
         id="path78868"
         style="fill:#8f9ead;fill-opacity:1;stroke:none;stroke-width:2.75137;stroke-linecap:round;stroke-linejoin:round;paint-order:stroke fill markers"
         d="m 5394.5349,4838.3547 a 1153.5209,1153.5209 0 0 0 -1153.522,1153.5218 1153.5209,1153.5209 0 0 0 149.8436,562.7026 1228.9786,1228.9786 0 0 1 1228.6088,-1223.7933 1228.9786,1228.9786 0 0 1 895.3418,387.3633 1153.5209,1153.5209 0 0 0 -1120.2722,-879.7944 z" />
    </g>
    <g
       id="g78878"
       transform="matrix(0.02680588,0.00451281,0.00215801,0.01743593,6041.8456,2239.2261)"
       style="stroke-width:0.889672">
      <circle
         style="fill:#8a97a8;fill-opacity:1;stroke:none;stroke-width:0.99662;stroke-linecap:round;stroke-linejoin:round;paint-order:stroke fill markers"
         id="circle78872"
         cx="5394.5347"
         cy="5991.8755"
         r="1153.5209" />
      <path
         id="path78874"
         style="fill:#8493a4;fill-opacity:1;stroke:none;stroke-width:0.99662;stroke-linecap:round;stroke-linejoin:round;paint-order:stroke fill markers"
         d="m 6535.4062,5823.217 c -157.5693,396.557 -470.8283,711.2378 -846.0115,847.5306 -408.5813,148.4254 -1041.7879,66.4234 -1298.908,-116.4332 203.2763,363.9928 587.142,589.9739 1004.0482,591.0818 305.9327,2e-4 599.3353,-121.5308 815.6626,-337.8577 216.3273,-216.3269 337.8589,-509.7293 337.8592,-815.662 -0.084,-56.4537 -4.3122,-112.8249 -12.6505,-168.6595 z"
         sodipodi:nodetypes="caccscc" />
      <path
         id="path78876"
         style="fill:#8f9ead;fill-opacity:1;stroke:none;stroke-width:0.99662;stroke-linecap:round;stroke-linejoin:round;paint-order:stroke fill markers"
         d="m 5394.5349,4838.3547 a 1153.5209,1153.5209 0 0 0 -1153.522,1153.5218 1153.5209,1153.5209 0 0 0 149.8436,562.7026 1228.9786,1228.9786 0 0 1 1228.6088,-1223.7933 1228.9786,1228.9786 0 0 1 895.3418,387.3633 1153.5209,1153.5209 0 0 0 -1120.2722,-879.7944 z" />
    </g>
    <g
       id="g78974"
       transform="matrix(0.01232611,-0.00296468,0.00616043,0.01019312,5987.3603,2269.3542)"
       style="stroke-width:0.645551">
      <circle
         style="fill:#8a97a8;fill-opacity:1;stroke:none;stroke-width:0.723153;stroke-linecap:round;stroke-linejoin:round;paint-order:stroke fill markers"
         id="circle78968"
         cx="5394.5347"
         cy="5991.8755"
         r="1153.5209" />
      <path
         id="path78970"
         style="fill:#8493a4;fill-opacity:1;stroke:none;stroke-width:0.723153;stroke-linecap:round;stroke-linejoin:round;paint-order:stroke fill markers"
         d="m 6535.4062,5823.217 c -157.5693,396.557 -470.8283,711.2378 -846.0115,847.5306 -408.5813,148.4254 -1041.7879,66.4234 -1298.908,-116.4332 203.2763,363.9928 587.142,589.9739 1004.0482,591.0818 305.9327,2e-4 599.3353,-121.5308 815.6626,-337.8577 216.3273,-216.3269 337.8589,-509.7293 337.8592,-815.662 -0.084,-56.4537 -4.3122,-112.8249 -12.6505,-168.6595 z"
         sodipodi:nodetypes="caccscc" />
      <path
         id="path78972"
         style="fill:#8f9ead;fill-opacity:1;stroke:none;stroke-width:0.723153;stroke-linecap:round;stroke-linejoin:round;paint-order:stroke fill markers"
         d="m 5394.5349,4838.3547 a 1153.5209,1153.5209 0 0 0 -1153.522,1153.5218 1153.5209,1153.5209 0 0 0 149.8436,562.7026 1228.9786,1228.9786 0 0 1 1228.6088,-1223.7933 1228.9786,1228.9786 0 0 1 895.3418,387.3633 1153.5209,1153.5209 0 0 0 -1120.2722,-879.7944 z" />
    </g>
    <g
       id="g78982"
       transform="matrix(0.016035,1.1256213e-4,0.0044601,0.01438921,5834.9396,2232.7336)"
       style="stroke-width:0.510375">
      <circle
         style="fill:#8a97a8;fill-opacity:1;stroke:none;stroke-width:0.571727;stroke-linecap:round;stroke-linejoin:round;paint-order:stroke fill markers"
         id="circle78976"
         cx="5394.5347"
         cy="5991.8755"
         r="1153.5209" />
      <path
         id="path78978"
         style="fill:#8493a4;fill-opacity:1;stroke:none;stroke-width:0.571727;stroke-linecap:round;stroke-linejoin:round;paint-order:stroke fill markers"
         d="m 6535.4062,5823.217 c -157.5693,396.557 -470.8283,711.2378 -846.0115,847.5306 -408.5813,148.4254 -1041.7879,66.4234 -1298.908,-116.4332 203.2763,363.9928 587.142,589.9739 1004.0482,591.0818 305.9327,2e-4 599.3353,-121.5308 815.6626,-337.8577 216.3273,-216.3269 337.8589,-509.7293 337.8592,-815.662 -0.084,-56.4537 -4.3122,-112.8249 -12.6505,-168.6595 z"
         sodipodi:nodetypes="caccscc" />
      <path
         id="path78980"
         style="fill:#8f9ead;fill-opacity:1;stroke:none;stroke-width:0.571727;stroke-linecap:round;stroke-linejoin:round;paint-order:stroke fill markers"
         d="m 5394.5349,4838.3547 a 1153.5209,1153.5209 0 0 0 -1153.522,1153.5218 1153.5209,1153.5209 0 0 0 149.8436,562.7026 1228.9786,1228.9786 0 0 1 1228.6088,-1223.7933 1228.9786,1228.9786 0 0 1 895.3418,387.3633 1153.5209,1153.5209 0 0 0 -1120.2722,-879.7944 z" />
    </g>
    <g
       id="g78990"
       transform="matrix(0.00990514,6.9531856e-5,0.00275509,0.0088885,5904.3863,2329.7002)"
       style="stroke-width:0.826224">
      <circle
         style="fill:#8a97a8;fill-opacity:1;stroke:none;stroke-width:0.925544;stroke-linecap:round;stroke-linejoin:round;paint-order:stroke fill markers"
         id="circle78984"
         cx="5394.5347"
         cy="5991.8755"
         r="1153.5209" />
      <path
         id="path78986"
         style="fill:#8493a4;fill-opacity:1;stroke:none;stroke-width:0.925544;stroke-linecap:round;stroke-linejoin:round;paint-order:stroke fill markers"
         d="m 6535.4062,5823.217 c -157.5693,396.557 -470.8283,711.2378 -846.0115,847.5306 -408.5813,148.4254 -1041.7879,66.4234 -1298.908,-116.4332 203.2763,363.9928 587.142,589.9739 1004.0482,591.0818 305.9327,2e-4 599.3353,-121.5308 815.6626,-337.8577 216.3273,-216.3269 337.8589,-509.7293 337.8592,-815.662 -0.084,-56.4537 -4.3122,-112.8249 -12.6505,-168.6595 z"
         sodipodi:nodetypes="caccscc" />
      <path
         id="path78988"
         style="fill:#8f9ead;fill-opacity:1;stroke:none;stroke-width:0.925544;stroke-linecap:round;stroke-linejoin:round;paint-order:stroke fill markers"
         d="m 5394.5349,4838.3547 a 1153.5209,1153.5209 0 0 0 -1153.522,1153.5218 1153.5209,1153.5209 0 0 0 149.8436,562.7026 1228.9786,1228.9786 0 0 1 1228.6088,-1223.7933 1228.9786,1228.9786 0 0 1 895.3418,387.3633 1153.5209,1153.5209 0 0 0 -1120.2722,-879.7944 z" />
    </g>
    <g
       id="g78998"
       transform="matrix(0.00678418,5.4674125e-4,0.00144012,0.00622984,6073.3906,1974.1123)"
       style="stroke-width:1.20245">
      <circle
         style="fill:#8a97a8;fill-opacity:1;stroke:none;stroke-width:1.34699;stroke-linecap:round;stroke-linejoin:round;paint-order:stroke fill markers"
         id="circle78992"
         cx="5394.5347"
         cy="5991.8755"
         r="1153.5209" />
      <path
         id="path78994"
         style="fill:#8493a4;fill-opacity:1;stroke:none;stroke-width:1.34699;stroke-linecap:round;stroke-linejoin:round;paint-order:stroke fill markers"
         d="m 6535.4062,5823.217 c -157.5693,396.557 -470.8283,711.2378 -846.0115,847.5306 -408.5813,148.4254 -1041.7879,66.4234 -1298.908,-116.4332 203.2763,363.9928 587.142,589.9739 1004.0482,591.0818 305.9327,2e-4 599.3353,-121.5308 815.6626,-337.8577 216.3273,-216.3269 337.8589,-509.7293 337.8592,-815.662 -0.084,-56.4537 -4.3122,-112.8249 -12.6505,-168.6595 z"
         sodipodi:nodetypes="caccscc" />
      <path
         id="path78996"
         style="fill:#8f9ead;fill-opacity:1;stroke:none;stroke-width:1.34699;stroke-linecap:round;stroke-linejoin:round;paint-order:stroke fill markers"
         d="m 5394.5349,4838.3547 a 1153.5209,1153.5209 0 0 0 -1153.522,1153.5218 1153.5209,1153.5209 0 0 0 149.8436,562.7026 1228.9786,1228.9786 0 0 1 1228.6088,-1223.7933 1228.9786,1228.9786 0 0 1 895.3418,387.3633 1153.5209,1153.5209 0 0 0 -1120.2722,-879.7944 z" />
    </g>
    <g
       id="g79006"
       transform="matrix(0.00678418,5.4674125e-4,0.00144012,0.00622984,5604.3824,2046.6718)"
       style="stroke-width:1.20245">
      <circle
         style="fill:#8a97a8;fill-opacity:1;stroke:none;stroke-width:1.34699;stroke-linecap:round;stroke-linejoin:round;paint-order:stroke fill markers"
         id="circle79000"
         cx="5394.5347"
         cy="5991.8755"
         r="1153.5209" />
      <path
         id="path79002"
         style="fill:#8493a4;fill-opacity:1;stroke:none;stroke-width:1.34699;stroke-linecap:round;stroke-linejoin:round;paint-order:stroke fill markers"
         d="m 6535.4062,5823.217 c -157.5693,396.557 -470.8283,711.2378 -846.0115,847.5306 -408.5813,148.4254 -1041.7879,66.4234 -1298.908,-116.4332 203.2763,363.9928 587.142,589.9739 1004.0482,591.0818 305.9327,2e-4 599.3353,-121.5308 815.6626,-337.8577 216.3273,-216.3269 337.8589,-509.7293 337.8592,-815.662 -0.084,-56.4537 -4.3122,-112.8249 -12.6505,-168.6595 z"
         sodipodi:nodetypes="caccscc" />
      <path
         id="path79004"
         style="fill:#8f9ead;fill-opacity:1;stroke:none;stroke-width:1.34699;stroke-linecap:round;stroke-linejoin:round;paint-order:stroke fill markers"
         d="m 5394.5349,4838.3547 a 1153.5209,1153.5209 0 0 0 -1153.522,1153.5218 1153.5209,1153.5209 0 0 0 149.8436,562.7026 1228.9786,1228.9786 0 0 1 1228.6088,-1223.7933 1228.9786,1228.9786 0 0 1 895.3418,387.3633 1153.5209,1153.5209 0 0 0 -1120.2722,-879.7944 z" />
    </g>
    <g
       id="g79014"
       transform="matrix(0.0097086,-0.00167447,0.00494581,0.00549014,5892.9521,1785.7851)"
       style="stroke-width:0.986821">
      <circle
         style="fill:#8a97a8;fill-opacity:1;stroke:none;stroke-width:1.10544;stroke-linecap:round;stroke-linejoin:round;paint-order:stroke fill markers"
         id="circle79008"
         cx="5394.5347"
         cy="5991.8755"
         r="1153.5209" />
      <path
         id="path79010"
         style="fill:#8493a4;fill-opacity:1;stroke:none;stroke-width:1.10544;stroke-linecap:round;stroke-linejoin:round;paint-order:stroke fill markers"
         d="m 6535.4062,5823.217 c -157.5693,396.557 -470.8283,711.2378 -846.0115,847.5306 -408.5813,148.4254 -1041.7879,66.4234 -1298.908,-116.4332 203.2763,363.9928 587.142,589.9739 1004.0482,591.0818 305.9327,2e-4 599.3353,-121.5308 815.6626,-337.8577 216.3273,-216.3269 337.8589,-509.7293 337.8592,-815.662 -0.084,-56.4537 -4.3122,-112.8249 -12.6505,-168.6595 z"
         sodipodi:nodetypes="caccscc" />
      <path
         id="path79012"
         style="fill:#8f9ead;fill-opacity:1;stroke:none;stroke-width:1.10544;stroke-linecap:round;stroke-linejoin:round;paint-order:stroke fill markers"
         d="m 5394.5349,4838.3547 a 1153.5209,1153.5209 0 0 0 -1153.522,1153.5218 1153.5209,1153.5209 0 0 0 149.8436,562.7026 1228.9786,1228.9786 0 0 1 1228.6088,-1223.7933 1228.9786,1228.9786 0 0 1 895.3418,387.3633 1153.5209,1153.5209 0 0 0 -1120.2722,-879.7944 z" />
    </g>
    <g
       id="g79022"
       transform="matrix(0.00980524,-9.5811264e-4,0.00452995,0.005838,5947.0563,1702.2675)"
       style="stroke-width:0.986821">
      <circle
         style="fill:#8a97a8;fill-opacity:1;stroke:none;stroke-width:1.10544;stroke-linecap:round;stroke-linejoin:round;paint-order:stroke fill markers"
         id="circle79016"
         cx="5394.5347"
         cy="5991.8755"
         r="1153.5209" />
      <path
         id="path79018"
         style="fill:#8493a4;fill-opacity:1;stroke:none;stroke-width:1.10544;stroke-linecap:round;stroke-linejoin:round;paint-order:stroke fill markers"
         d="m 6535.4062,5823.217 c -157.5693,396.557 -470.8283,711.2378 -846.0115,847.5306 -408.5813,148.4254 -1041.7879,66.4234 -1298.908,-116.4332 203.2763,363.9928 587.142,589.9739 1004.0482,591.0818 305.9327,2e-4 599.3353,-121.5308 815.6626,-337.8577 216.3273,-216.3269 337.8589,-509.7293 337.8592,-815.662 -0.084,-56.4537 -4.3122,-112.8249 -12.6505,-168.6595 z"
         sodipodi:nodetypes="caccscc" />
      <path
         id="path79020"
         style="fill:#8f9ead;fill-opacity:1;stroke:none;stroke-width:1.10544;stroke-linecap:round;stroke-linejoin:round;paint-order:stroke fill markers"
         d="m 5394.5349,4838.3547 a 1153.5209,1153.5209 0 0 0 -1153.522,1153.5218 1153.5209,1153.5209 0 0 0 149.8436,562.7026 1228.9786,1228.9786 0 0 1 1228.6088,-1223.7933 1228.9786,1228.9786 0 0 1 895.3418,387.3633 1153.5209,1153.5209 0 0 0 -1120.2722,-879.7944 z" />
    </g>
    <g
       id="g79030"
       transform="matrix(0.00868988,4.565472e-4,0.00318623,0.00569618,5873.584,1685.7178)"
       style="stroke-width:1.11724">
      <circle
         style="fill:#8a97a8;fill-opacity:1;stroke:none;stroke-width:1.25154;stroke-linecap:round;stroke-linejoin:round;paint-order:stroke fill markers"
         id="circle79024"
         cx="5394.5347"
         cy="5991.8755"
         r="1153.5209" />
      <path
         id="path79026"
         style="fill:#8493a4;fill-opacity:1;stroke:none;stroke-width:1.25154;stroke-linecap:round;stroke-linejoin:round;paint-order:stroke fill markers"
         d="m 6535.4062,5823.217 c -157.5693,396.557 -470.8283,711.2378 -846.0115,847.5306 -408.5813,148.4254 -1041.7879,66.4234 -1298.908,-116.4332 203.2763,363.9928 587.142,589.9739 1004.0482,591.0818 305.9327,2e-4 599.3353,-121.5308 815.6626,-337.8577 216.3273,-216.3269 337.8589,-509.7293 337.8592,-815.662 -0.084,-56.4537 -4.3122,-112.8249 -12.6505,-168.6595 z"
         sodipodi:nodetypes="caccscc" />
      <path
         id="path79028"
         style="fill:#8f9ead;fill-opacity:1;stroke:none;stroke-width:1.25154;stroke-linecap:round;stroke-linejoin:round;paint-order:stroke fill markers"
         d="m 5394.5349,4838.3547 a 1153.5209,1153.5209 0 0 0 -1153.522,1153.5218 1153.5209,1153.5209 0 0 0 149.8436,562.7026 1228.9786,1228.9786 0 0 1 1228.6088,-1223.7933 1228.9786,1228.9786 0 0 1 895.3418,387.3633 1153.5209,1153.5209 0 0 0 -1120.2722,-879.7944 z" />
    </g>
    <g
       id="g79038"
       transform="matrix(0.00959173,-0.00185524,0.00551315,0.0081085,5951.4722,1884.1975)"
       style="stroke-width:0.825506">
      <circle
         style="fill:#8a97a8;fill-opacity:1;stroke:none;stroke-width:0.92474;stroke-linecap:round;stroke-linejoin:round;paint-order:stroke fill markers"
         id="circle79032"
         cx="5394.5347"
         cy="5991.8755"
         r="1153.5209" />
      <path
         id="path79034"
         style="fill:#8493a4;fill-opacity:1;stroke:none;stroke-width:0.92474;stroke-linecap:round;stroke-linejoin:round;paint-order:stroke fill markers"
         d="m 6535.4062,5823.217 c -157.5693,396.557 -470.8283,711.2378 -846.0115,847.5306 -408.5813,148.4254 -1041.7879,66.4234 -1298.908,-116.4332 203.2763,363.9928 587.142,589.9739 1004.0482,591.0818 305.9327,2e-4 599.3353,-121.5308 815.6626,-337.8577 216.3273,-216.3269 337.8589,-509.7293 337.8592,-815.662 -0.084,-56.4537 -4.3122,-112.8249 -12.6505,-168.6595 z"
         sodipodi:nodetypes="caccscc" />
      <path
         id="path79036"
         style="fill:#8f9ead;fill-opacity:1;stroke:none;stroke-width:0.92474;stroke-linecap:round;stroke-linejoin:round;paint-order:stroke fill markers"
         d="m 5394.5349,4838.3547 a 1153.5209,1153.5209 0 0 0 -1153.522,1153.5218 1153.5209,1153.5209 0 0 0 149.8436,562.7026 1228.9786,1228.9786 0 0 1 1228.6088,-1223.7933 1228.9786,1228.9786 0 0 1 895.3418,387.3633 1153.5209,1153.5209 0 0 0 -1120.2722,-879.7944 z" />
    </g>
    <g
       id="g79046"
       transform="matrix(0.01481464,-3.4507996e-4,-0.0026035,0.00940775,4386.0636,2164.427)"
       style="stroke-width:1.56666">
      <circle
         style="fill:#8a97a8;fill-opacity:1;stroke:none;stroke-width:1.75498;stroke-linecap:round;stroke-linejoin:round;paint-order:stroke fill markers"
         id="circle79040"
         cx="5394.5347"
         cy="5991.8755"
         r="1153.5209" />
      <path
         id="path79042"
         style="fill:#8493a4;fill-opacity:1;stroke:none;stroke-width:1.75498;stroke-linecap:round;stroke-linejoin:round;paint-order:stroke fill markers"
         d="m 6535.4062,5823.217 c -157.5693,396.557 -470.8283,711.2378 -846.0115,847.5306 -408.5813,148.4254 -1041.7879,66.4234 -1298.908,-116.4332 203.2763,363.9928 587.142,589.9739 1004.0482,591.0818 305.9327,2e-4 599.3353,-121.5308 815.6626,-337.8577 216.3273,-216.3269 337.8589,-509.7293 337.8592,-815.662 -0.084,-56.4537 -4.3122,-112.8249 -12.6505,-168.6595 z"
         sodipodi:nodetypes="caccscc" />
      <path
         id="path79044"
         style="fill:#8f9ead;fill-opacity:1;stroke:none;stroke-width:1.75498;stroke-linecap:round;stroke-linejoin:round;paint-order:stroke fill markers"
         d="m 5394.5349,4838.3547 a 1153.5209,1153.5209 0 0 0 -1153.522,1153.5218 1153.5209,1153.5209 0 0 0 149.8436,562.7026 1228.9786,1228.9786 0 0 1 1228.6088,-1223.7933 1228.9786,1228.9786 0 0 1 895.3418,387.3633 1153.5209,1153.5209 0 0 0 -1120.2722,-879.7944 z" />
    </g>
    <g
       id="g79054"
       transform="matrix(0.00897859,-3.4507996e-4,-3.2816121e-5,0.00940775,4688.86,2290.633)"
       style="stroke-width:2.00605">
      <circle
         style="fill:#8a97a8;fill-opacity:1;stroke:none;stroke-width:2.24718;stroke-linecap:round;stroke-linejoin:round;paint-order:stroke fill markers"
         id="circle79048"
         cx="5394.5347"
         cy="5991.8755"
         r="1153.5209" />
      <path
         id="path79050"
         style="fill:#8493a4;fill-opacity:1;stroke:none;stroke-width:2.24718;stroke-linecap:round;stroke-linejoin:round;paint-order:stroke fill markers"
         d="m 6535.4062,5823.217 c -157.5693,396.557 -470.8283,711.2378 -846.0115,847.5306 -408.5813,148.4254 -1041.7879,66.4234 -1298.908,-116.4332 203.2763,363.9928 587.142,589.9739 1004.0482,591.0818 305.9327,2e-4 599.3353,-121.5308 815.6626,-337.8577 216.3273,-216.3269 337.8589,-509.7293 337.8592,-815.662 -0.084,-56.4537 -4.3122,-112.8249 -12.6505,-168.6595 z"
         sodipodi:nodetypes="caccscc" />
      <path
         id="path79052"
         style="fill:#8f9ead;fill-opacity:1;stroke:none;stroke-width:2.24718;stroke-linecap:round;stroke-linejoin:round;paint-order:stroke fill markers"
         d="m 5394.5349,4838.3547 a 1153.5209,1153.5209 0 0 0 -1153.522,1153.5218 1153.5209,1153.5209 0 0 0 149.8436,562.7026 1228.9786,1228.9786 0 0 1 1228.6088,-1223.7933 1228.9786,1228.9786 0 0 1 895.3418,387.3633 1153.5209,1153.5209 0 0 0 -1120.2722,-879.7944 z" />
    </g>
    <g
       id="g79062"
       transform="matrix(0.01220889,0.00372347,-0.00532914,0.01094278,5044.2657,2185.8036)"
       style="stroke-width:1.48828">
      <circle
         style="fill:#8a97a8;fill-opacity:1;stroke:none;stroke-width:1.66719;stroke-linecap:round;stroke-linejoin:round;paint-order:stroke fill markers"
         id="circle79056"
         cx="5394.5347"
         cy="5991.8755"
         r="1153.5209" />
      <path
         id="path79058"
         style="fill:#8493a4;fill-opacity:1;stroke:none;stroke-width:1.66719;stroke-linecap:round;stroke-linejoin:round;paint-order:stroke fill markers"
         d="m 6535.4062,5823.217 c -157.5693,396.557 -470.8283,711.2378 -846.0115,847.5306 -408.5813,148.4254 -1041.7879,66.4234 -1298.908,-116.4332 203.2763,363.9928 587.142,589.9739 1004.0482,591.0818 305.9327,2e-4 599.3353,-121.5308 815.6626,-337.8577 216.3273,-216.3269 337.8589,-509.7293 337.8592,-815.662 -0.084,-56.4537 -4.3122,-112.8249 -12.6505,-168.6595 z"
         sodipodi:nodetypes="caccscc" />
      <path
         id="path79060"
         style="fill:#8f9ead;fill-opacity:1;stroke:none;stroke-width:1.66719;stroke-linecap:round;stroke-linejoin:round;paint-order:stroke fill markers"
         d="m 5394.5349,4838.3547 a 1153.5209,1153.5209 0 0 0 -1153.522,1153.5218 1153.5209,1153.5209 0 0 0 149.8436,562.7026 1228.9786,1228.9786 0 0 1 1228.6088,-1223.7933 1228.9786,1228.9786 0 0 1 895.3418,387.3633 1153.5209,1153.5209 0 0 0 -1120.2722,-879.7944 z" />
    </g>
    <g
       id="g79070"
       transform="matrix(0.01220889,0.00372347,-0.00532914,0.01094278,5044.2657,2185.8036)"
       style="stroke-width:1.48828">
      <circle
         style="fill:#8a97a8;fill-opacity:1;stroke:none;stroke-width:1.66719;stroke-linecap:round;stroke-linejoin:round;paint-order:stroke fill markers"
         id="circle79064"
         cx="5394.5347"
         cy="5991.8755"
         r="1153.5209" />
      <path
         id="path79066"
         style="fill:#8493a4;fill-opacity:1;stroke:none;stroke-width:1.66719;stroke-linecap:round;stroke-linejoin:round;paint-order:stroke fill markers"
         d="m 6535.4062,5823.217 c -157.5693,396.557 -470.8283,711.2378 -846.0115,847.5306 -408.5813,148.4254 -1041.7879,66.4234 -1298.908,-116.4332 203.2763,363.9928 587.142,589.9739 1004.0482,591.0818 305.9327,2e-4 599.3353,-121.5308 815.6626,-337.8577 216.3273,-216.3269 337.8589,-509.7293 337.8592,-815.662 -0.084,-56.4537 -4.3122,-112.8249 -12.6505,-168.6595 z"
         sodipodi:nodetypes="caccscc" />
      <path
         id="path79068"
         style="fill:#8f9ead;fill-opacity:1;stroke:none;stroke-width:1.66719;stroke-linecap:round;stroke-linejoin:round;paint-order:stroke fill markers"
         d="m 5394.5349,4838.3547 a 1153.5209,1153.5209 0 0 0 -1153.522,1153.5218 1153.5209,1153.5209 0 0 0 149.8436,562.7026 1228.9786,1228.9786 0 0 1 1228.6088,-1223.7933 1228.9786,1228.9786 0 0 1 895.3418,387.3633 1153.5209,1153.5209 0 0 0 -1120.2722,-879.7944 z" />
    </g>
    <g
       id="g79078"
       transform="matrix(0.00962331,0.00293492,-0.00420054,0.00862533,4897.3584,2203.269)"
       style="stroke-width:1.88815">
      <circle
         style="fill:#8a97a8;fill-opacity:1;stroke:none;stroke-width:2.11513;stroke-linecap:round;stroke-linejoin:round;paint-order:stroke fill markers"
         id="circle79072"
         cx="5394.5347"
         cy="5991.8755"
         r="1153.5209" />
      <path
         id="path79074"
         style="fill:#8493a4;fill-opacity:1;stroke:none;stroke-width:2.11513;stroke-linecap:round;stroke-linejoin:round;paint-order:stroke fill markers"
         d="m 6535.4062,5823.217 c -157.5693,396.557 -470.8283,711.2378 -846.0115,847.5306 -408.5813,148.4254 -1041.7879,66.4234 -1298.908,-116.4332 203.2763,363.9928 587.142,589.9739 1004.0482,591.0818 305.9327,2e-4 599.3353,-121.5308 815.6626,-337.8577 216.3273,-216.3269 337.8589,-509.7293 337.8592,-815.662 -0.084,-56.4537 -4.3122,-112.8249 -12.6505,-168.6595 z"
         sodipodi:nodetypes="caccscc" />
      <path
         id="path79076"
         style="fill:#8f9ead;fill-opacity:1;stroke:none;stroke-width:2.11513;stroke-linecap:round;stroke-linejoin:round;paint-order:stroke fill markers"
         d="m 5394.5349,4838.3547 a 1153.5209,1153.5209 0 0 0 -1153.522,1153.5218 1153.5209,1153.5209 0 0 0 149.8436,562.7026 1228.9786,1228.9786 0 0 1 1228.6088,-1223.7933 1228.9786,1228.9786 0 0 1 895.3418,387.3633 1153.5209,1153.5209 0 0 0 -1120.2722,-879.7944 z" />
    </g>
    <g
       id="g79086"
       transform="matrix(0.0085828,0.00179664,-0.00297318,0.00781526,4556.0361,2177.0687)"
       style="stroke-width:2.16637">
      <circle
         style="fill:#8a97a8;fill-opacity:1;stroke:none;stroke-width:2.42679;stroke-linecap:round;stroke-linejoin:round;paint-order:stroke fill markers"
         id="circle79080"
         cx="5394.5347"
         cy="5991.8755"
         r="1153.5209" />
      <path
         id="path79082"
         style="fill:#8493a4;fill-opacity:1;stroke:none;stroke-width:2.42679;stroke-linecap:round;stroke-linejoin:round;paint-order:stroke fill markers"
         d="m 6535.4062,5823.217 c -157.5693,396.557 -470.8283,711.2378 -846.0115,847.5306 -408.5813,148.4254 -1041.7879,66.4234 -1298.908,-116.4332 203.2763,363.9928 587.142,589.9739 1004.0482,591.0818 305.9327,2e-4 599.3353,-121.5308 815.6626,-337.8577 216.3273,-216.3269 337.8589,-509.7293 337.8592,-815.662 -0.084,-56.4537 -4.3122,-112.8249 -12.6505,-168.6595 z"
         sodipodi:nodetypes="caccscc" />
      <path
         id="path79084"
         style="fill:#8f9ead;fill-opacity:1;stroke:none;stroke-width:2.42679;stroke-linecap:round;stroke-linejoin:round;paint-order:stroke fill markers"
         d="m 5394.5349,4838.3547 a 1153.5209,1153.5209 0 0 0 -1153.522,1153.5218 1153.5209,1153.5209 0 0 0 149.8436,562.7026 1228.9786,1228.9786 0 0 1 1228.6088,-1223.7933 1228.9786,1228.9786 0 0 1 895.3418,387.3633 1153.5209,1153.5209 0 0 0 -1120.2722,-879.7944 z" />
    </g>
    <g
       id="g79094"
       transform="matrix(0.00692963,0.00145058,-0.0024005,0.00630993,4494.3497,2121.5795)"
       style="stroke-width:2.68319">
      <circle
         style="fill:#8a97a8;fill-opacity:1;stroke:none;stroke-width:3.00574;stroke-linecap:round;stroke-linejoin:round;paint-order:stroke fill markers"
         id="circle79088"
         cx="5394.5347"
         cy="5991.8755"
         r="1153.5209" />
      <path
         id="path79090"
         style="fill:#8493a4;fill-opacity:1;stroke:none;stroke-width:3.00574;stroke-linecap:round;stroke-linejoin:round;paint-order:stroke fill markers"
         d="m 6535.4062,5823.217 c -157.5693,396.557 -470.8283,711.2378 -846.0115,847.5306 -408.5813,148.4254 -1041.7879,66.4234 -1298.908,-116.4332 203.2763,363.9928 587.142,589.9739 1004.0482,591.0818 305.9327,2e-4 599.3353,-121.5308 815.6626,-337.8577 216.3273,-216.3269 337.8589,-509.7293 337.8592,-815.662 -0.084,-56.4537 -4.3122,-112.8249 -12.6505,-168.6595 z"
         sodipodi:nodetypes="caccscc" />
      <path
         id="path79092"
         style="fill:#8f9ead;fill-opacity:1;stroke:none;stroke-width:3.00574;stroke-linecap:round;stroke-linejoin:round;paint-order:stroke fill markers"
         d="m 5394.5349,4838.3547 a 1153.5209,1153.5209 0 0 0 -1153.522,1153.5218 1153.5209,1153.5209 0 0 0 149.8436,562.7026 1228.9786,1228.9786 0 0 1 1228.6088,-1223.7933 1228.9786,1228.9786 0 0 1 895.3418,387.3633 1153.5209,1153.5209 0 0 0 -1120.2722,-879.7944 z" />
    </g>
    <g
       id="g79102"
       transform="matrix(0.00468386,9.8047577e-4,-0.00162254,0.00426499,4517.3293,2277.8167)"
       style="stroke-width:3.9697">
      <circle
         style="fill:#8a97a8;fill-opacity:1;stroke:none;stroke-width:4.4469;stroke-linecap:round;stroke-linejoin:round;paint-order:stroke fill markers"
         id="circle79096"
         cx="5394.5347"
         cy="5991.8755"
         r="1153.5209" />
      <path
         id="path79098"
         style="fill:#8493a4;fill-opacity:1;stroke:none;stroke-width:4.4469;stroke-linecap:round;stroke-linejoin:round;paint-order:stroke fill markers"
         d="m 6535.4062,5823.217 c -157.5693,396.557 -470.8283,711.2378 -846.0115,847.5306 -408.5813,148.4254 -1041.7879,66.4234 -1298.908,-116.4332 203.2763,363.9928 587.142,589.9739 1004.0482,591.0818 305.9327,2e-4 599.3353,-121.5308 815.6626,-337.8577 216.3273,-216.3269 337.8589,-509.7293 337.8592,-815.662 -0.084,-56.4537 -4.3122,-112.8249 -12.6505,-168.6595 z"
         sodipodi:nodetypes="caccscc" />
      <path
         id="path79100"
         style="fill:#8f9ead;fill-opacity:1;stroke:none;stroke-width:4.4469;stroke-linecap:round;stroke-linejoin:round;paint-order:stroke fill markers"
         d="m 5394.5349,4838.3547 a 1153.5209,1153.5209 0 0 0 -1153.522,1153.5218 1153.5209,1153.5209 0 0 0 149.8436,562.7026 1228.9786,1228.9786 0 0 1 1228.6088,-1223.7933 1228.9786,1228.9786 0 0 1 895.3418,387.3633 1153.5209,1153.5209 0 0 0 -1120.2722,-879.7944 z" />
    </g>
    <g
       id="g79110"
       transform="matrix(0.00579153,0.00121235,-0.00200625,0.0052736,4997.2935,2200.0346)"
       style="stroke-width:3.21047">
      <circle
         style="fill:#8a97a8;fill-opacity:1;stroke:none;stroke-width:3.5964;stroke-linecap:round;stroke-linejoin:round;paint-order:stroke fill markers"
         id="circle79104"
         cx="5394.5347"
         cy="5991.8755"
         r="1153.5209" />
      <path
         id="path79106"
         style="fill:#8493a4;fill-opacity:1;stroke:none;stroke-width:3.5964;stroke-linecap:round;stroke-linejoin:round;paint-order:stroke fill markers"
         d="m 6535.4062,5823.217 c -157.5693,396.557 -470.8283,711.2378 -846.0115,847.5306 -408.5813,148.4254 -1041.7879,66.4234 -1298.908,-116.4332 203.2763,363.9928 587.142,589.9739 1004.0482,591.0818 305.9327,2e-4 599.3353,-121.5308 815.6626,-337.8577 216.3273,-216.3269 337.8589,-509.7293 337.8592,-815.662 -0.084,-56.4537 -4.3122,-112.8249 -12.6505,-168.6595 z"
         sodipodi:nodetypes="caccscc" />
      <path
         id="path79108"
         style="fill:#8f9ead;fill-opacity:1;stroke:none;stroke-width:3.5964;stroke-linecap:round;stroke-linejoin:round;paint-order:stroke fill markers"
         d="m 5394.5349,4838.3547 a 1153.5209,1153.5209 0 0 0 -1153.522,1153.5218 1153.5209,1153.5209 0 0 0 149.8436,562.7026 1228.9786,1228.9786 0 0 1 1228.6088,-1223.7933 1228.9786,1228.9786 0 0 1 895.3418,387.3633 1153.5209,1153.5209 0 0 0 -1120.2722,-879.7944 z" />
    </g>
  </g>
</svg>
